<?xml version="1.0" encoding="UTF-8"?>
<svg xmlns="http://www.w3.org/2000/svg" version="1.1" viewBox="-13.5903811 -15.6 27.1807621 31.2">
  <title>Kirigami cut pattern</title>
  <desc>Topology-based cut paths with optional engrave paths.</desc>
  <g id="cut" fill="none" stroke="#FF0000" stroke-width="0.05" stroke-linecap="round" stroke-linejoin="round">
    <path d="M -12.9903811 -7.5 L 0 -15 L 12.9903811 -7.5 L 12.9903811 7.5 L 0 15 L -12.9903811 7.5 Z" />
    <path d="M 1.94856 -3.81820454 L 1.94856 -11.625 L 1.94856 -13.125 L 1.94856 -13.875 L 0.64953 -14.625 L 0.64953 -3.41461686 A 0.3 0.3 0 0 0 1.0995307 -3.15480965 L 1.7985607 -3.55839732 A 0.3 0.3 0 0 0 1.94856 -3.81820454 Z" />
    <path d="M -9.09327 -7.5 L -10.3923 -6.75 L -10.8918281 -6.46160218 A 0.3 0.3 0 0 0 -11.04183 -6.20179346 L -11.04183 -5.625 L -11.04183 -4.125 L -11.04183 3.68179546 A 0.3 0.3 0 0 1 -11.1918293 3.94160268 L -11.8908593 4.34519035 A 0.3 0.3 0 0 1 -12.34086 4.08538314 L -12.34086 -6.9517949 A 0.3 0.3 0 0 1 -12.19086 -7.21160254 L -2.63237998 -12.7301924 A 0.3 0.3 0 0 1 -2.18238 -12.4703848 L -2.18238 -11.6632052 A 0.3 0.3 0 0 1 -2.33238012 -11.4033975 L -9.09327 -7.5 Z" />
    <path d="M -0.64953 -14.625 L -0.64953 -3.41461686 A 0.3 0.3 0 0 1 -1.0995307 -3.15480965 L -1.7985607 -3.55839732 A 0.3 0.3 0 0 1 -1.94856 -3.81820454 L -1.94856 -11.625 L -1.94856 -13.125 L -1.94856 -13.875 L -0.64953 -14.625 Z" />
    <path d="M -0.149999978 -0.83660251 L -9.70848134 -6.3551932 A 0.3 0.3 0 0 1 -9.70848206 -6.87480805 L -9.00945016 -7.27839683 A 0.3 0.3 0 0 1 -8.70944957 -7.2783973 L -1.94856 -3.375 L -0.64953 -2.625 L -0.149998104 -2.33659999 A 0.3 0.3 0 0 0 0.149998104 -2.33659999 L 0.64953 -2.625 L 1.94856 -3.375 L 8.70944957 -7.2783973 A 0.3 0.3 0 0 1 9.00945016 -7.27839683 L 9.70848206 -6.87480805 A 0.3 0.3 0 0 1 9.70848134 -6.3551932 L 0.149999978 -0.83660251 A 0.3 0.3 0 0 1 -0.149999978 -0.83660251 Z" />
    <path d="M 0.64953 0.548205098 L 0.64953 11.5853831 A 0.3 0.3 0 0 0 1.0995307 11.8451904 L 1.7985607 11.4416027 A 0.3 0.3 0 0 0 1.94856 11.1817955 L 1.94856 3.375 L 1.94856 1.875 L 1.94856 1.29820654 A 0.3 0.3 0 0 1 2.0985619 1.03839782 L 2.59809 0.75 L 3.89712 0 L 10.6580099 -3.90339748 A 0.3 0.3 0 0 0 10.80801 -4.16320517 L 10.80801 -4.97038481 A 0.3 0.3 0 0 0 10.35801 -5.23019244 L 0.799530022 0.288397464 A 0.3 0.3 0 0 0 0.64953 0.548205098 Z" />
    <path d="M 0.149999978 14.1633975 L 9.70848134 8.6448068 A 0.3 0.3 0 0 0 9.70848206 8.12519195 L 9.00945016 7.72160317 A 0.3 0.3 0 0 0 8.70944957 7.7216027 L 1.94856 11.625 L 0.64953 12.375 L 0.149998104 12.6634 A 0.3 0.3 0 0 1 -0.149998104 12.6634 L -0.64953 12.375 L -1.94856 11.625 L -8.70944957 7.7216027 A 0.3 0.3 0 0 0 -9.00945016 7.72160317 L -9.70848206 8.12519195 A 0.3 0.3 0 0 0 -9.70848134 8.6448068 L -0.149999978 14.1633975 A 0.3 0.3 0 0 0 0.149999978 14.1633975 Z" />
    <path d="M 12.34086 7.875 L 2.63237998 2.26980756 A 0.3 0.3 0 0 0 2.18238 2.52961519 L 2.18238 3.33679483 A 0.3 0.3 0 0 0 2.33238012 3.59660252 L 9.09327 7.5 L 10.3923 8.25 L 11.04183 8.625 L 12.34086 7.875 Z" />
    <path d="M 12.34086 -6.9517949 L 12.34086 4.08538314 A 0.3 0.3 0 0 1 11.8908593 4.34519035 L 11.1918293 3.94160268 A 0.3 0.3 0 0 1 11.04183 3.68179546 L 11.04183 -4.125 L 11.04183 -5.625 L 11.04183 -6.20179346 A 0.3 0.3 0 0 0 10.8918281 -6.46160218 L 10.3923 -6.75 L 9.09327 -7.5 L 2.33238012 -11.4033975 A 0.3 0.3 0 0 1 2.18238 -11.6632052 L 2.18238 -12.4703848 A 0.3 0.3 0 0 1 2.63237998 -12.7301924 L 12.19086 -7.21160254 A 0.3 0.3 0 0 1 12.34086 -6.9517949 Z" />
    <path d="M 12.99039 6.75 L 3.28190866 1.1448068 A 0.3 0.3 0 0 1 3.28190794 0.625191948 L 3.98093984 0.22160317 A 0.3 0.3 0 0 1 4.28094043 0.221602697 L 11.04183 4.125 L 12.34086 4.875 L 12.99039 5.25 L 12.99039 6.75 Z" />
    <path d="M -0.799530022 0.288397464 L -10.35801 -5.23019244 A 0.3 0.3 0 0 0 -10.80801 -4.97038481 L -10.80801 -4.16320517 A 0.3 0.3 0 0 0 -10.6580099 -3.90339748 L -3.89712 0 L -2.59809 0.75 L -2.0985619 1.03839782 A 0.3 0.3 0 0 1 -1.94856 1.29820654 L -1.94856 1.875 L -1.94856 3.375 L -1.94856 11.1817955 A 0.3 0.3 0 0 0 -1.7985607 11.4416027 L -1.0995307 11.8451904 A 0.3 0.3 0 0 0 -0.64953 11.5853831 L -0.64953 0.548205098 A 0.3 0.3 0 0 0 -0.799530022 0.288397464 Z" />
    <path d="M -12.99039 6.75 L -3.28190866 1.1448068 A 0.3 0.3 0 0 0 -3.28190794 0.625191948 L -3.98093984 0.22160317 A 0.3 0.3 0 0 0 -4.28094043 0.221602697 L -11.04183 4.125 L -12.34086 4.875 L -12.99039 5.25 L -12.99039 6.75 Z" />
    <path d="M -12.34086 7.875 L -2.63237998 2.26980756 A 0.3 0.3 0 0 1 -2.18238 2.52961519 L -2.18238 3.33679483 A 0.3 0.3 0 0 1 -2.33238012 3.59660252 L -9.09327 7.5 L -10.3923 8.25 L -11.04183 8.625 L -12.34086 7.875 Z" />
  </g>
</svg>
