<?xml version="1.0" encoding="UTF-8"?>
<svg xmlns="http://www.w3.org/2000/svg" version="1.1" viewBox="-0.779422863 -0.779422863 24.0588457 40.5299889">
  <title>Kirigami cut pattern</title>
  <desc>Topology-based cut paths with optional engrave paths.</desc>
  <g id="cut" fill="none" stroke="#FF0000" stroke-width="0.05" stroke-linecap="round" stroke-linejoin="round">
    <path d="M 7.5 12.9903811 L 0 0 L 15 0 L 22.5 12.9903811 L 15 25.9807621 L 22.5 38.9711432 L 7.5 38.9711432 L 0 25.9807621 Z" />
    <path d="M 21.7499899 38.9711432 L 16.0230715 31.4261848 A 0.2 0.2 0 0 0 15.6793928 31.4696011 L 15.0564308 32.9515653 A 0.2 0.2 0 0 0 15.081497 33.149988 L 16.7817527 35.3900057 A 0.2 0.2 0 0 0 16.7817546 35.3900081 L 18.0329599 37.0383677 A 0.2 0.2 0 0 1 18.0329625 37.038371 L 19.4999909 38.9711432 L 21.7499899 38.9711432 Z" />
    <path d="M 5.96047861 3.16157273 L 3.907366 2.90218132 A 0.2 0.2 0 0 0 3.90736146 2.90218075 L 1.4999993 2.5980892 L 0.375019311 0.649532043 L 9.77256815 1.83670759 A 0.2 0.2 0 0 1 9.90680803 2.15604998 L 8.93489015 3.43651129 A 0.2 0.2 0 0 1 8.75051873 3.514015 L 5.96048232 3.1615732 A 0.2 0.2 0 0 1 5.96047861 3.16157273 Z" />
    <path d="M 14.2499934 0 L 8.52307503 7.54495839 A 0.2 0.2 0 0 1 8.17939632 7.50154208 L 7.55643429 6.01957783 A 0.2 0.2 0 0 1 7.58150051 5.82115518 L 9.28175624 3.58113751 A 0.2 0.2 0 0 1 9.2817581 3.58113507 L 10.5329634 1.9327755 A 0.2 0.2 0 0 0 10.5329659 1.93277219 L 11.9999944 0 L 14.2499934 0 Z" />
    <path d="M 7.81618756 12.2009282 L 4.20434834 3.6087062 A 0.2 0.2 0 0 1 4.41378979 3.33278039 L 6.00866652 3.53427802 A 0.2 0.2 0 0 1 6.16797003 3.65519689 L 7.25775188 6.24765882 L 8.05970006 8.15541319 L 8.94116786 10.2523698 A 0.2 0.2 0 0 0 9.15060831 10.3732904 L 11.4073591 10.0881872 A 0.2 0.2 0 0 1 11.4073614 10.0881869 L 13.4604757 9.82883424 A 0.2 0.2 0 0 0 13.4604783 9.82883391 L 16.2505137 9.4763548 A 0.2 0.2 0 0 1 16.4348877 9.55385818 L 17.4068055 10.8343193 A 0.2 0.2 0 0 1 17.2725664 11.1536616 L 8.02562738 12.3218479 A 0.2 0.2 0 0 1 7.81618756 12.2009282 Z" />
    <path d="M 15.3750123 0.649532043 L 11.7043456 9.3816615 A 0.2 0.2 0 0 0 11.9137869 9.6575876 L 13.508663 9.45609005 A 0.2 0.2 0 0 0 13.6679665 9.33517118 L 14.7577484 6.74270925 L 16.4999923 2.5980892 L 15.3750123 0.649532043 Z" />
    <path d="M 21.6582066 12.8694484 L 16.0230699 5.44544506 A 0.2 0.2 0 0 0 15.679392 5.4888604 L 15.0564319 6.97078967 A 0.2 0.2 0 0 0 15.0814976 7.16921366 L 16.7817537 9.40923178 L 19.4082083 12.8694493 A 0.2 0.2 0 0 1 19.4082095 13.1112878 L 18.0329625 14.9231403 A 0.2 0.2 0 0 1 18.0329599 14.9231436 L 16.7817546 16.5715031 A 0.2 0.2 0 0 0 16.7817527 16.5715056 L 15.081497 18.8115232 A 0.2 0.2 0 0 0 15.0564308 19.0099459 L 15.6793928 20.4919101 A 0.2 0.2 0 0 0 16.0230715 20.5353265 L 21.6582069 13.111288 A 0.2 0.2 0 0 0 21.6582066 12.8694484 Z" />
    <path d="M 7.81618768 13.779846 L 4.20434618 22.3720365 A 0.2 0.2 0 0 0 4.4137838 22.647963 L 6.0086631 22.4464953 A 0.2 0.2 0 0 0 6.16797072 22.3255751 L 7.25775188 19.7330773 L 8.05969956 17.8253631 A 0.2 0.2 0 0 0 8.05970056 17.8253607 L 8.94116786 15.7284053 A 0.2 0.2 0 0 1 9.15060831 15.6074847 L 11.4073591 15.8925879 A 0.2 0.2 0 0 0 11.4073614 15.8925882 L 13.4604757 16.1519409 A 0.2 0.2 0 0 1 13.4604783 16.1519412 L 16.2505122 16.5044201 A 0.2 0.2 0 0 0 16.4348876 16.4269149 L 17.4068104 15.1464168 A 0.2 0.2 0 0 0 17.2725692 14.8270762 L 8.0256266 13.6589265 A 0.2 0.2 0 0 0 7.81618768 13.779846 Z" />
    <path d="M 0.375019311 25.3312431 L 9.77257267 24.1440669 A 0.2 0.2 0 0 0 9.90681392 23.8247264 L 8.93489109 22.5442283 A 0.2 0.2 0 0 0 8.75051567 22.4667231 L 5.96048177 22.819202 A 0.2 0.2 0 0 1 5.96047915 22.8192023 L 3.90736489 23.078555 A 0.2 0.2 0 0 0 3.90736256 23.0785552 L 1.4999993 23.3826859 L 0.375019311 25.3312431 Z" />
    <path d="M 14.1582104 25.8598552 L 8.52307503 18.4358167 A 0.2 0.2 0 0 0 8.17939632 18.479233 L 7.55643429 19.9611973 A 0.2 0.2 0 0 0 7.58150051 20.1596199 L 9.28175624 22.3996376 A 0.2 0.2 0 0 0 9.2817581 22.39964 L 10.5329634 24.0479996 A 0.2 0.2 0 0 1 10.5329659 24.0480029 L 11.908213 25.8598554 A 0.2 0.2 0 0 1 11.9082118 26.1016939 L 9.28175717 29.5619114 L 7.5815011 31.8019295 A 0.2 0.2 0 0 0 7.55643544 32.0003535 L 8.17939549 33.4822828 A 0.2 0.2 0 0 0 8.52307335 33.5256981 L 14.1582101 26.1016948 A 0.2 0.2 0 0 0 14.1582104 25.8598552 Z" />
    <path d="M 15.3750123 25.3312431 L 11.7043427 16.5991067 A 0.2 0.2 0 0 1 11.9137803 16.3231801 L 13.5086596 16.5246478 A 0.2 0.2 0 0 1 13.6679672 16.6455681 L 14.7577484 19.2380659 L 15.5596961 21.1457801 A 0.2 0.2 0 0 1 15.5596971 21.1457824 L 16.4999923 23.3826859 L 15.3750123 25.3312431 Z" />
    <path d="M 7.81618768 38.1816652 L 4.20434907 29.5894817 A 0.2 0.2 0 0 1 4.4137904 29.3135556 L 6.00866652 29.5150531 A 0.2 0.2 0 0 1 6.16797003 29.635972 L 7.25775188 32.2284339 L 8.94116836 36.2331095 A 0.2 0.2 0 0 0 9.15060519 36.3540294 L 11.407358 36.0689624 A 0.2 0.2 0 0 0 11.4073625 36.0689619 L 13.4604751 35.8095704 A 0.2 0.2 0 0 1 13.4604788 35.80957 L 16.2505152 35.4571282 A 0.2 0.2 0 0 1 16.4348867 35.5346319 L 17.4068045 36.8150932 A 0.2 0.2 0 0 1 17.2725647 37.1344356 L 8.0256266 38.3025847 A 0.2 0.2 0 0 1 7.81618768 38.1816652 Z" />
    <path d="M 0.375019311 26.6302682 L 9.77256989 27.8174815 A 0.2 0.2 0 0 1 9.90680898 28.1368238 L 8.93489122 29.417285 A 0.2 0.2 0 0 1 8.75051718 29.4947884 L 5.96048177 29.1423093 A 0.2 0.2 0 0 0 5.96047915 29.1423089 L 3.90736489 28.8829563 A 0.2 0.2 0 0 1 3.90736256 28.882956 L 1.4999993 28.5788253 L 0.375019311 26.6302682 Z" />
    <path d="M 15.3750123 26.6302682 L 11.7043448 35.362437 A 0.2 0.2 0 0 0 11.9137863 35.6383628 L 13.508663 35.4368652 A 0.2 0.2 0 0 0 13.6679665 35.3159463 L 14.7577484 32.7234844 L 15.5596966 30.81573 L 16.4999923 28.5788253 L 15.3750123 26.6302682 Z" />
  </g>
</svg>
