<?xml version="1.0" encoding="UTF-8"?>
<svg xmlns="http://www.w3.org/2000/svg" version="1.1" viewBox="-13.5903811 -15.6 27.1807621 31.2">
  <title>Kirigami cut pattern</title>
  <desc>Topology-based cut paths with optional engrave paths.</desc>
  <g id="cut" fill="none" stroke="#FF0000" stroke-width="0.05" stroke-linecap="round" stroke-linejoin="round">
    <path d="M -12.9903811 -7.5 L 0 -15 L 12.9903811 -7.5 L 12.9903811 7.5 L 0 15 L -12.9903811 7.5 Z" />
    <path d="M 2.92194 -4.61379 L 2.32911 -10.25415 L 2.18265 -11.64774 L 1.94856 -13.875 L 0.64953 -14.625 L 1.7883 -3.79014 Z" />
    <path d="M -7.71579 -7.85586 L -8.99589 -7.28589 L -11.04183 -6.375 L -10.80774 -4.14774 L -10.66125 -2.75415 L -10.06842 2.88621 L -11.20206 3.70986 L -12.34086 -7.125 L -2.38821 -11.55621 L -2.53467 -10.16262 Z" />
    <path d="M -0.64953 -14.625 L -1.7883 -3.79014 L -2.92194 -4.61379 L -2.32911 -10.25415 L -2.18265 -11.64774 L -1.94856 -13.875 Z" />
    <path d="M 0 -0.75 L -8.81388 -7.15365 L -7.53375 -7.72359 L -2.94546 -4.39002 L -1.81182 -3.56637 L 0 -2.25 L 1.81182 -3.56637 L 2.94546 -4.39002 L 7.53375 -7.72359 L 8.81388 -7.15365 Z" />
    <path d="M 0.64953 0.375 L 1.7883 11.20986 L 2.92194 10.38621 L 2.32911 4.74585 L 2.18265 3.35226 L 1.94856 1.125 L 3.99447 0.21411 L 5.2746 -0.35586 L 10.45572 -2.66262 L 10.60218 -4.05621 Z" />
    <path d="M 0 14.25 L 8.81388 7.84635 L 7.53375 7.27641 L 2.94546 10.60998 L 1.81182 11.43363 L 0 12.75 L -1.81182 11.43363 L -2.94546 10.60998 L -7.53375 7.27641 L -8.81388 7.84635 Z" />
    <path d="M 12.34086 7.875 L 2.38821 3.44379 L 2.53467 4.83738 L 7.71579 7.14414 L 8.99589 7.71411 L 11.04183 8.625 Z" />
    <path d="M 12.34086 -7.125 L 11.20206 3.70986 L 10.06842 2.88621 L 10.66125 -2.75415 L 10.80774 -4.14774 L 11.04183 -6.375 L 8.99589 -7.28589 L 7.71579 -7.85586 L 2.53467 -10.16262 L 2.38821 -11.55621 Z" />
    <path d="M 12.99039 6.75 L 4.17651 0.34635 L 5.45661 -0.22359 L 10.0449 3.10998 L 11.17854 3.93363 L 12.99039 5.25 Z" />
    <path d="M -0.64953 0.375 L -10.60218 -4.05621 L -10.45572 -2.66262 L -5.2746 -0.35586 L -3.99447 0.21411 L -1.94856 1.125 L -2.18265 3.35226 L -2.32911 4.74585 L -2.92194 10.38621 L -1.7883 11.20986 Z" />
    <path d="M -12.99039 6.75 L -4.17651 0.34635 L -5.45661 -0.22359 L -10.0449 3.10998 L -11.17854 3.93363 L -12.99039 5.25 Z" />
    <path d="M -12.34086 7.875 L -2.38821 3.44379 L -2.53467 4.83738 L -7.71579 7.14414 L -8.99589 7.71411 L -11.04183 8.625 Z" />
  </g>
</svg>
