<?xml version="1.0" encoding="UTF-8"?>
<svg xmlns="http://www.w3.org/2000/svg" version="1.1" viewBox="-1.03923048 -1.03923048 39.578461 54.0399852">
  <title>Kirigami cut pattern</title>
  <desc>Topology-based cut paths with optional engrave paths.</desc>
  <g id="cut" fill="none" stroke="#FF0000" stroke-width="0.05" stroke-linecap="round" stroke-linejoin="round">
    <path d="M 30 25.9807621 L 37.5 38.9711432 L 30 51.9615242 L 15 51.9615242 L 0 51.9615242 L 7.5 38.9711432 L 0 25.9807621 L 7.5 12.9903811 L 0 0 L 15 0 L 30 0 L 37.5 12.9903811 Z" />
    <path d="M 18.8317758 14.9389382 L 10.8749754 14.9389382 L 9.37500212 14.9389382 L 8.7981931 14.9389382 A 0.3 0.3 0 0 0 8.53838658 15.0889363 L 8.24998541 15.5884534 A 0.3 0.3 0 0 0 8.24998091 15.5884612 L 7.5000242 16.8874924 A 0.3 0.3 0 0 1 7.50002077 16.8874984 L 3.52162303 23.778282 A 0.3 0.3 0 0 1 3.26181544 23.9282819 L 2.45460964 23.9282819 A 0.3 0.3 0 0 1 2.19480182 23.4782823 L 7.78837437 13.7899005 A 0.3 0.3 0 0 1 8.04818219 13.6399001 L 19.2353725 13.6399001 A 0.3 0.3 0 0 1 19.495179 14.089902 L 19.0915824 14.7889401 A 0.3 0.3 0 0 1 18.8317758 14.9389382 Z" />
    <path d="M 15.5502121 22.8287678 L 15.146613 22.1297254 A 0.3 0.3 0 0 1 15.1466119 21.8297235 L 19.1250106 14.9389382 L 19.8750187 13.6399079 A 0.3 0.3 0 0 0 19.8750277 13.6398923 L 20.1633935 13.1403674 A 0.3 0.3 0 0 0 20.1633935 12.8403947 L 19.8750277 12.3408698 A 0.3 0.3 0 0 0 19.8750187 12.3408542 L 19.1250106 11.0418239 L 15.1466119 4.15103865 A 0.3 0.3 0 0 1 15.146613 3.8510367 L 15.5502121 3.15199427 A 0.3 0.3 0 0 1 16.0698264 3.15199651 L 21.6634008 12.8403814 A 0.3 0.3 0 0 1 21.6634008 13.1403807 L 16.0698264 22.8287656 A 0.3 0.3 0 0 1 15.5502121 22.8287678 Z" />
    <path d="M 22.7884191 13.7898995 L 17.1947977 23.4782813 A 0.3 0.3 0 0 0 17.4546049 23.9282819 L 18.2618085 23.9282819 A 0.3 0.3 0 0 0 18.521616 23.778282 L 22.5000138 16.8874984 A 0.3 0.3 0 0 0 22.5000172 16.8874924 L 23.2499739 15.5884612 A 0.3 0.3 0 0 1 23.2499784 15.5884534 L 23.5383796 15.0889363 A 0.3 0.3 0 0 1 23.7981861 14.9389382 L 24.3749951 14.9389382 L 25.8750204 14.9389382 L 33.8318148 14.9389382 A 0.3 0.3 0 0 0 34.0916258 14.7889323 L 34.4951945 14.0898942 A 0.3 0.3 0 0 0 34.2353835 13.6399001 L 23.0482264 13.6399001 A 0.3 0.3 0 0 0 22.7884191 13.7898995 Z" />
    <path d="M 3.37500492 1.94855716 L 1.87497964 1.94855716 L 1.12501896 1.94855716 L 0.37500632 0.649519053 L 11.7354019 0.649519053 A 0.3 0.3 0 0 1 11.9952085 1.09952095 L 11.5916118 1.79855905 A 0.3 0.3 0 0 1 11.3318053 1.94855716 L 3.37500492 1.94855716 Z" />
    <path d="M 26.9952015 24.8812412 L 26.5916048 24.1822031 A 0.3 0.3 0 0 0 26.3317983 24.032205 L 18.3749979 24.032205 L 16.8750246 24.032205 L 16.2982156 24.032205 A 0.3 0.3 0 0 1 16.0384091 23.8822069 L 15.7500056 23.3826859 L 14.999993 22.0836478 L 11.0215936 15.1928612 A 0.3 0.3 0 0 0 10.761786 15.0428613 L 9.95463212 15.0428613 A 0.3 0.3 0 0 0 9.6948243 15.4928609 L 15.2883969 25.1812427 A 0.3 0.3 0 0 0 15.5482047 25.3312431 L 26.735395 25.3312431 A 0.3 0.3 0 0 0 26.9952015 24.8812412 Z" />
    <path d="M 29.1634219 25.8307615 L 23.5697975 16.1423746 A 0.3 0.3 0 0 0 23.0501837 16.1423734 L 22.6465835 16.8414178 A 0.3 0.3 0 0 0 22.6465824 17.1414197 L 26.6249811 24.032205 L 27.3749937 25.3312431 L 27.663395 25.8307602 A 0.3 0.3 0 0 1 27.663395 26.130764 L 27.3749937 26.6302812 L 26.6249811 27.9293193 L 22.6465824 34.8201045 A 0.3 0.3 0 0 0 22.6465835 35.1201065 L 23.0501837 35.8191509 A 0.3 0.3 0 0 0 23.5697975 35.8191496 L 29.1634219 26.1307627 A 0.3 0.3 0 0 0 29.1634219 25.8307615 Z" />
    <path d="M 30.3749923 25.3312431 L 24.6948173 15.4928609 A 0.3 0.3 0 0 1 24.9546251 15.0428613 L 25.761779 15.0428613 A 0.3 0.3 0 0 1 26.0215866 15.1928612 L 29.999986 22.0836478 L 30.7499987 23.3826859 L 31.125005 24.032205 L 30.3749923 25.3312431 Z" />
    <path d="M 30.5502051 22.8287678 L 30.146606 22.1297254 A 0.3 0.3 0 0 1 30.1466049 21.8297235 L 34.1250036 14.9389382 L 34.8750162 13.6399001 L 35.1634174 13.140383 A 0.3 0.3 0 0 0 35.1634174 12.8403792 L 34.8750162 12.340862 L 34.1250036 11.0418239 L 30.1466049 4.15103865 A 0.3 0.3 0 0 1 30.146606 3.8510367 L 30.5502051 3.15199427 A 0.3 0.3 0 0 1 31.0698194 3.15199651 L 36.6633938 12.8403814 A 0.3 0.3 0 0 1 36.6633938 13.1403807 L 31.0698194 22.8287656 A 0.3 0.3 0 0 1 30.5502051 22.8287678 Z" />
    <path d="M 7.78837437 38.1716238 L 2.19480182 28.483242 A 0.3 0.3 0 0 1 2.45460964 28.0332423 L 3.26181544 28.0332423 A 0.3 0.3 0 0 1 3.52162303 28.1832423 L 7.50002077 35.0740259 A 0.3 0.3 0 0 1 7.5000242 35.0740318 L 8.24998091 36.3730631 A 0.3 0.3 0 0 0 8.24998541 36.3730709 L 8.53838658 36.8725879 A 0.3 0.3 0 0 0 8.7981931 37.022586 L 9.37500212 37.022586 L 10.8749754 37.022586 L 18.8317758 37.022586 A 0.3 0.3 0 0 1 19.0915824 37.1725841 L 19.495179 37.8716222 A 0.3 0.3 0 0 1 19.2353725 38.3216241 L 8.04818219 38.3216241 A 0.3 0.3 0 0 1 7.78837437 38.1716238 Z" />
    <path d="M 14.2499804 0 L 8.56980395 9.83838455 A 0.3 0.3 0 0 1 8.05018961 9.83838679 L 7.64659047 9.13934436 A 0.3 0.3 0 0 1 7.64658941 8.83934241 L 11.6249881 1.94855716 L 12.3750007 0.649519053 L 12.750007 0 L 14.2499804 0 Z" />
    <path d="M 0.37500632 26.6302812 L 11.7354019 26.6302812 A 0.3 0.3 0 0 1 11.9952085 27.0802831 L 11.5916118 27.7793212 A 0.3 0.3 0 0 1 11.3318053 27.9293193 L 3.37500492 27.9293193 L 1.87497964 27.9293193 L 1.12501896 27.9293193 L 0.37500632 26.6302812 Z" />
    <path d="M 8.05018961 35.8191489 L 7.64659047 35.1201065 A 0.3 0.3 0 0 1 7.64658941 34.8201045 L 11.6249881 27.9293193 L 12.3750007 26.6302812 L 12.663402 26.130764 A 0.3 0.3 0 0 0 12.663402 25.8307602 L 12.3750007 25.3312431 L 11.6249881 24.032205 L 7.64658941 17.1414197 A 0.3 0.3 0 0 1 7.64659047 16.8414178 L 8.05018961 16.1423753 A 0.3 0.3 0 0 1 8.56980395 16.1423776 L 14.1633783 25.8307625 A 0.3 0.3 0 0 1 14.1633783 26.1307618 L 8.56980395 35.8191467 A 0.3 0.3 0 0 1 8.05018961 35.8191489 Z" />
    <path d="M 15.2883969 26.7802815 L 9.6948243 36.4686633 A 0.3 0.3 0 0 0 9.95463212 36.918663 L 10.761786 36.918663 A 0.3 0.3 0 0 0 11.0215936 36.768663 L 14.999993 29.8778764 L 15.7500056 28.5788383 L 16.0384091 28.0793174 A 0.3 0.3 0 0 1 16.2982156 27.9293193 L 16.8750246 27.9293193 L 18.3749979 27.9293193 L 26.3317983 27.9293193 A 0.3 0.3 0 0 0 26.5916048 27.7793212 L 26.9952015 27.0802831 A 0.3 0.3 0 0 0 26.735395 26.6302812 L 15.5482047 26.6302812 A 0.3 0.3 0 0 0 15.2883969 26.7802815 Z" />
    <path d="M 21.6634008 38.8211435 L 16.0698264 29.1327586 A 0.3 0.3 0 0 0 15.5502121 29.1327564 L 15.146613 29.8317988 A 0.3 0.3 0 0 0 15.1466119 30.1318008 L 19.1250106 37.022586 L 19.8750187 38.3216163 A 0.3 0.3 0 0 1 19.8750277 38.3216319 L 20.1633935 38.8211569 A 0.3 0.3 0 0 1 20.1633935 39.1211295 L 19.8750277 39.6206544 A 0.3 0.3 0 0 1 19.8750187 39.62067 L 19.1250106 40.9197003 L 15.1466119 47.8104856 A 0.3 0.3 0 0 0 15.146613 48.1104875 L 15.5502121 48.80953 A 0.3 0.3 0 0 0 16.0698264 48.8095277 L 21.6634008 39.1211428 A 0.3 0.3 0 0 0 21.6634008 38.8211435 Z" />
    <path d="M 22.7884191 38.1716248 L 17.1947977 28.483243 A 0.3 0.3 0 0 1 17.4546049 28.0332423 L 18.2618085 28.0332423 A 0.3 0.3 0 0 1 18.521616 28.1832423 L 22.5000138 35.0740259 A 0.3 0.3 0 0 1 22.5000172 35.0740318 L 23.2499739 36.3730631 A 0.3 0.3 0 0 0 23.2499784 36.3730709 L 23.5383796 36.8725879 A 0.3 0.3 0 0 0 23.7981861 37.022586 L 24.3749951 37.022586 L 25.8750204 37.022586 L 33.8318148 37.022586 A 0.3 0.3 0 0 1 34.0916258 37.1725919 L 34.4951945 37.87163 A 0.3 0.3 0 0 1 34.2353835 38.3216241 L 23.0482264 38.3216241 A 0.3 0.3 0 0 1 22.7884191 38.1716248 Z" />
    <path d="M 30.3749923 26.6302812 L 24.6948173 36.4686633 A 0.3 0.3 0 0 0 24.9546251 36.918663 L 25.761779 36.918663 A 0.3 0.3 0 0 0 26.0215866 36.768663 L 29.999986 29.8778764 L 30.7499987 28.5788383 L 31.125005 27.9293193 L 30.3749923 26.6302812 Z" />
    <path d="M 36.6633938 38.8211435 L 31.0698194 29.1327586 A 0.3 0.3 0 0 0 30.5502051 29.1327564 L 30.146606 29.8317988 A 0.3 0.3 0 0 0 30.1466049 30.1318008 L 34.1250036 37.022586 L 34.8750162 38.3216241 L 35.1634174 38.8211413 A 0.3 0.3 0 0 1 35.1634174 39.1211451 L 34.8750162 39.6206622 L 34.1250036 40.9197003 L 30.1466049 47.8104856 A 0.3 0.3 0 0 0 30.146606 48.1104875 L 30.5502051 48.80953 A 0.3 0.3 0 0 0 31.0698194 48.8095277 L 36.6633938 39.1211428 A 0.3 0.3 0 0 0 36.6633938 38.8211435 Z" />
    <path d="M 7.78837437 12.1908617 L 2.19480182 2.50247986 A 0.3 0.3 0 0 1 2.45460964 2.05248021 L 3.26181544 2.05248021 A 0.3 0.3 0 0 1 3.52162303 2.20248015 L 7.50002077 9.09326376 A 0.3 0.3 0 0 1 7.5000242 9.09326972 L 8.24998091 10.3923009 A 0.3 0.3 0 0 0 8.24998541 10.3923087 L 8.53838658 10.8918258 A 0.3 0.3 0 0 0 8.7981931 11.0418239 L 9.37500212 11.0418239 L 10.8749754 11.0418239 L 18.8317758 11.0418239 A 0.3 0.3 0 0 1 19.0915824 11.191822 L 19.495179 11.8908601 A 0.3 0.3 0 0 1 19.2353725 12.340862 L 8.04818219 12.340862 A 0.3 0.3 0 0 1 7.78837437 12.1908617 Z" />
    <path d="M 7.78837437 39.7706626 L 2.19480182 49.4590444 A 0.3 0.3 0 0 0 2.45460964 49.909044 L 3.26181544 49.909044 A 0.3 0.3 0 0 0 3.52162303 49.7590441 L 7.50002077 42.8682605 A 0.3 0.3 0 0 0 7.5000242 42.8682545 L 8.24998091 41.5692233 A 0.3 0.3 0 0 1 8.24998541 41.5692155 L 8.53838658 41.0696984 A 0.3 0.3 0 0 1 8.7981931 40.9197003 L 9.37500212 40.9197003 L 10.8749754 40.9197003 L 18.8317758 40.9197003 A 0.3 0.3 0 0 0 19.0915824 40.7697022 L 19.495179 40.0706641 A 0.3 0.3 0 0 0 19.2353725 39.6206622 L 8.04818219 39.6206622 A 0.3 0.3 0 0 0 7.78837437 39.7706626 Z" />
    <path d="M 0.37500632 51.3120052 L 11.7354019 51.3120052 A 0.3 0.3 0 0 0 11.9952085 50.8620033 L 11.5916118 50.1629652 A 0.3 0.3 0 0 0 11.3318053 50.0129671 L 3.37500492 50.0129671 L 1.87497964 50.0129671 L 1.12501896 50.0129671 L 0.37500632 51.3120052 Z" />
    <path d="M 14.2499804 51.9615242 L 8.56980395 42.1231397 A 0.3 0.3 0 0 0 8.05018961 42.1231374 L 7.64659047 42.8221799 A 0.3 0.3 0 0 0 7.64658941 43.1221818 L 11.6249881 50.0129671 L 12.3750007 51.3120052 L 12.750007 51.9615242 L 14.2499804 51.9615242 Z" />
    <path d="M 15.2883969 51.1620048 L 9.6948243 41.473623 A 0.3 0.3 0 0 1 9.95463212 41.0236234 L 10.761786 41.0236234 A 0.3 0.3 0 0 1 11.0215936 41.1736233 L 14.999993 48.0644099 L 15.7500056 49.363448 L 16.0384091 49.862969 A 0.3 0.3 0 0 0 16.2982156 50.0129671 L 16.8750246 50.0129671 L 18.3749979 50.0129671 L 26.3317983 50.0129671 A 0.3 0.3 0 0 1 26.5916048 50.1629652 L 26.9952015 50.8620033 A 0.3 0.3 0 0 1 26.735395 51.3120052 L 15.5482047 51.3120052 A 0.3 0.3 0 0 1 15.2883969 51.1620048 Z" />
    <path d="M 15.2883969 0.799519401 L 9.6948243 10.4879012 A 0.3 0.3 0 0 0 9.95463212 10.9379008 L 10.761786 10.9379008 A 0.3 0.3 0 0 0 11.0215936 10.7879009 L 14.999993 3.89711432 L 15.7500056 2.59807621 L 16.0384091 2.09855526 A 0.3 0.3 0 0 1 16.2982156 1.94855716 L 16.8750246 1.94855716 L 18.3749979 1.94855716 L 26.3317983 1.94855716 A 0.3 0.3 0 0 0 26.5916048 1.79855905 L 26.9952015 1.09952095 A 0.3 0.3 0 0 0 26.735395 0.649519053 L 15.5482047 0.649519053 A 0.3 0.3 0 0 0 15.2883969 0.799519401 Z" />
    <path d="M 22.7884191 39.7706616 L 17.1947977 49.4590434 A 0.3 0.3 0 0 0 17.4546049 49.909044 L 18.2618085 49.909044 A 0.3 0.3 0 0 0 18.521616 49.7590441 L 22.5000138 42.8682605 A 0.3 0.3 0 0 0 22.5000172 42.8682545 L 23.2499739 41.5692233 A 0.3 0.3 0 0 1 23.2499784 41.5692155 L 23.5383796 41.0696984 A 0.3 0.3 0 0 1 23.7981861 40.9197003 L 24.3749951 40.9197003 L 25.8750204 40.9197003 L 33.8318148 40.9197003 A 0.3 0.3 0 0 0 34.0916258 40.7696944 L 34.4951945 40.0706563 A 0.3 0.3 0 0 0 34.2353835 39.6206622 L 23.0482264 39.6206622 A 0.3 0.3 0 0 0 22.7884191 39.7706616 Z" />
    <path d="M 29.2500253 51.9615242 L 23.5697975 42.1231367 A 0.3 0.3 0 0 0 23.0501837 42.1231355 L 22.6465835 42.8221799 A 0.3 0.3 0 0 0 22.6465824 43.1221818 L 26.6249811 50.0129671 L 27.3749937 51.3120052 L 27.7500001 51.9615242 L 29.2500253 51.9615242 Z" />
    <path d="M 30.3749923 51.3120052 L 24.6948173 41.473623 A 0.3 0.3 0 0 1 24.9546251 41.0236234 L 25.761779 41.0236234 A 0.3 0.3 0 0 1 26.0215866 41.1736233 L 29.999986 48.0644099 L 30.7499987 49.363448 L 31.125005 50.0129671 L 30.3749923 51.3120052 Z" />
    <path d="M 22.7884191 12.1908626 L 17.1947977 2.50248084 A 0.3 0.3 0 0 1 17.4546049 2.05248021 L 18.2618085 2.05248021 A 0.3 0.3 0 0 1 18.521616 2.20248015 L 22.5000138 9.09326376 A 0.3 0.3 0 0 1 22.5000172 9.09326972 L 23.2499739 10.3923009 A 0.3 0.3 0 0 0 23.2499784 10.3923087 L 23.5383796 10.8918258 A 0.3 0.3 0 0 0 23.7981861 11.0418239 L 24.3749951 11.0418239 L 25.8750204 11.0418239 L 33.8318148 11.0418239 A 0.3 0.3 0 0 1 34.0916258 11.1918298 L 34.4951945 11.8908679 A 0.3 0.3 0 0 1 34.2353835 12.340862 L 23.0482264 12.340862 A 0.3 0.3 0 0 1 22.7884191 12.1908626 Z" />
    <path d="M 29.2500253 0 L 23.5697975 9.8383875 A 0.3 0.3 0 0 1 23.0501837 9.83838876 L 22.6465835 9.13934436 A 0.3 0.3 0 0 1 22.6465824 8.83934241 L 26.6249811 1.94855716 L 27.3749937 0.649519053 L 27.7500001 0 L 29.2500253 0 Z" />
    <path d="M 30.3749923 0.649519053 L 24.6948173 10.4879012 A 0.3 0.3 0 0 0 24.9546251 10.9379008 L 25.761779 10.9379008 A 0.3 0.3 0 0 0 26.0215866 10.7879009 L 29.999986 3.89711432 L 30.7499987 2.59807621 L 31.125005 1.94855716 L 30.3749923 0.649519053 Z" />
    <path d="M 0.37500632 25.3312431 L 11.7354019 25.3312431 A 0.3 0.3 0 0 0 11.9952085 24.8812412 L 11.5916118 24.1822031 A 0.3 0.3 0 0 0 11.3318053 24.032205 L 3.37500492 24.032205 L 1.87497964 24.032205 L 1.12501896 24.032205 L 0.37500632 25.3312431 Z" />
  </g>
</svg>
