<?xml version="1.0" encoding="UTF-8"?>
<svg xmlns="http://www.w3.org/2000/svg" version="1.1" viewBox="-0.45 -0.45 23.4 13.8903811">
  <title>Kirigami cut pattern</title>
  <desc>Topology-based cut paths with optional engrave paths.</desc>
  <g id="cut" fill="none" stroke="#FF0000" stroke-width="0.05" stroke-linecap="round" stroke-linejoin="round">
    <path d="M 7.5 12.9903811 L 0 0 L 15 0 L 22.5 12.9903811 Z" />
    <path d="M 1.5000075 2.598075 L 0.3750075 0.64953 L 10.8585888 0.64953 A 0.2 0.2 0 0 1 11.0317936 0.949530468 L 10.1377351 2.49807547 A 0.2 0.2 0 0 1 9.96453031 2.598075 L 1.5000075 2.598075 Z" />
    <path d="M 14.2499925 0 L 9.00821291 9.07905602 A 0.2 0.2 0 0 1 8.66180239 9.07905585 L 7.76774218 7.53048994 A 0.2 0.2 0 0 1 7.76774247 7.33049023 L 10.5000075 2.598075 L 11.6250061 0.649532366 A 0.2 0.2 0 0 0 11.6250089 0.649527634 L 11.9999925 0 L 14.2499925 0 Z" />
    <path d="M 7.81726496 12.2408676 L 2.63319783 3.26181008 A 0.2 0.2 0 0 1 2.80640286 2.96181 L 4.59452253 2.96181 A 0.2 0.2 0 0 1 4.76772755 3.0618099 L 7.4999925 7.794225 L 8.62499157 9.74279088 A 0.2 0.2 0 0 0 8.62499343 9.74279412 L 8.94226443 10.2923028 A 0.2 0.2 0 0 0 9.11546787 10.3923 L 17.4645221 10.3923 A 0.2 0.2 0 0 1 17.6377275 10.4923004 L 18.5317886 12.0408679 A 0.2 0.2 0 0 1 18.3585833 12.3408675 L 7.99046999 12.3408675 A 0.2 0.2 0 0 1 7.81726496 12.2408676 Z" />
    <path d="M 15.3749925 0.64953 L 10.1332124 9.72856505 A 0.2 0.2 0 0 0 10.3064176 10.028565 L 12.0945375 10.028565 A 0.2 0.2 0 0 0 12.2677425 9.9285651 L 15.0000075 5.19615 L 16.1250061 3.24760737 A 0.2 0.2 0 0 0 16.1250089 3.24760263 L 16.4999925 2.598075 L 15.3749925 0.64953 Z" />
    <path d="M 21.7500075 12.990375 L 16.5082056 3.91131804 A 0.2 0.2 0 0 0 16.1617952 3.91131852 L 15.2677347 5.45988506 A 0.2 0.2 0 0 0 15.267735 5.65988477 L 18 10.3923 L 19.1249991 12.3408659 A 0.2 0.2 0 0 0 19.1250009 12.3408691 L 19.5000075 12.990375 L 21.7500075 12.990375 Z" />
  </g>
</svg>
