####
#
# OBJ File Generated by Meshlab
#
####
# Object hypar.obj
#
# Vertices: 403
# Faces: 724
#
####
mtllib ./hypar.obj.mtl

vn -0.7703446 0.6336446 -0.0711606
vt 0.0981797 0.0000000
v -3.9159908 -5.3124256 -74.8877258
vn -0.7352274 0.6777868 -0.0067688
vt 0.5000000 0.0869831
v -0.4343520 -0.4882158 -64.4799500
vn -0.6671677 0.7446928 -0.0178888
vt 0.5000000 0.1730344
v -1.1648650 -1.1683562 -55.7998199
vn -0.5809604 0.8131211 -0.0363198
vt 0.5000000 0.3043492
v -2.0031228 -1.7213377 -47.7639046
vn -0.4757698 0.8784155 -0.0450476
vt 0.5000000 0.4347842
v -2.3424263 -1.6649663 -40.0238533
vn -0.1026734 0.9808716 -0.1653755
vt 0.5000000 0.5217407
v -8.7921124 -3.5760646 -36.0439796
vn 0.0786685 0.9825046 -0.1688078
vt 0.5000000 0.6521752
v -9.4671993 -1.9721993 -26.8464050
vn 0.0627671 0.9925836 -0.1041058
vt 0.5000000 0.7826095
v -7.0944057 -0.7931997 -18.0158405
vn 0.0113711 0.9998487 -0.0131682
vt 0.5000000 0.8695658
v -5.5208569 -0.0856742 -10.3935347
vn -0.7153807 0.6944820 -0.0769755
vt 0.2068909 0.0434789
v -4.5530467 -5.4634066 -69.3357162
vn -0.6118076 0.7721375 -0.1717417
vt 0.2068909 0.0000000
v -8.1925373 -9.8452244 -74.5413284
vn -0.6061665 0.7893690 -0.0972554
vt 0.2068909 0.1730344
v -5.7143207 -5.7243648 -61.0814056
vn -0.4488135 0.8842964 -0.1287885
vt 0.2068909 0.2173925
v -7.1577725 -5.6412601 -52.8106575
vn -0.4855440 0.7881978 -0.3781419
vt 0.3420801 0.0000000
v -13.4234543 -13.5036793 -73.7849884
vn -0.2750688 0.9051949 -0.3239742
vt 0.3420801 0.0869831
v -15.6509809 -13.0150642 -69.9063187
vn -0.2471502 0.9546448 -0.1660427
vt 0.3420801 0.4347842
v -8.4511166 -4.9786663 -44.4353638
vn -0.0800134 0.8392659 -0.5378016
vt 0.5000000 0.0000000
v -19.4114265 -15.0000000 -72.4444351
vn -0.2351901 0.9424096 -0.2378023
vt 0.5000000 0.2173925
v -12.7784510 -8.9210606 -58.0415421
vn 0.2102488 0.8771070 -0.4318319
vt 0.6550000 0.0000000
v -25.1603642 -13.5585003 -70.6497650
vn 0.0017076 0.9398979 -0.3414514
vt 0.6550000 0.1304354
v -18.6994820 -11.3451443 -63.4737473
vn 0.2514496 0.8981769 -0.3606265
vt 0.6550000 0.2173925
v -20.9364891 -8.1127214 -56.0401344
vn 0.0243859 0.9603261 -0.2778115
vt 0.6550000 0.3470881
v -14.9237976 -7.0054412 -49.9194908
vn 0.2744868 0.9179947 -0.2862564
vt 0.6550000 0.3913059
v -16.8482475 -3.8872511 -41.0088234
vn 0.6331452 0.6643913 -0.3971291
vt 0.7901400 0.1304354
v -32.2556992 -3.0920413 -60.8569450
vn 0.4440388 0.8210366 -0.3587876
vt 0.7901400 0.3043492
v -22.7873783 -4.0947123 -48.7494202
vn 0.3049815 0.9177734 -0.2543196
vt 0.7901400 0.6086971
v -14.9972029 -2.0660980 -32.9947624
vn 0.5686159 0.7129947 -0.4102618
vt 0.9017153 0.0000000
v -32.0588799 -7.6333084 -67.7562180
vn 0.5962096 0.7281011 -0.3382349
vt 0.9017153 0.2173925
v -29.1908264 0.7955302 -48.9736862
vn 0.6756204 0.6257688 -0.3898084
vt 0.5000000 0.0000000
v -37.5000000 0.0000000 -64.9519043
vn 0.6721310 0.6483132 -0.3576732
vt 0.5000000 0.1730344
v -36.5973091 2.5469151 -59.2798729
vn 0.5218105 0.8021512 -0.2902882
vt 0.5000000 0.3913059
v -25.0800915 0.5674956 -42.1632004
vn 0.1848239 0.9824056 -0.0268207
vt 0.5000000 0.6976802
v -14.6669827 1.1071727 -19.6144562
vn 0.6306724 0.6328676 0.4491447
vt 0.0981797 0.0000000
v 34.0525169 5.3124256 -66.8126678
vn 0.6331593 0.6771587 0.3749205
vt 0.5000000 0.0869831
v 31.8077888 0.6199751 -56.1958542
vn 0.5656124 0.7457272 0.3520990
vt 0.5000000 0.1730344
v 26.7289658 1.4702235 -49.2275887
vn 0.4731369 0.8190457 0.3245086
vt 0.5000000 0.3043492
v 21.6439075 2.3344746 -42.9402008
vn 0.2761551 0.9203191 0.2770398
vt 0.5000000 0.4347842
v 16.0261459 3.2332137 -38.0489159
vn 0.0196635 0.9817455 0.1891805
vt 0.5000000 0.5217407
v 10.2365961 3.1693957 -33.6292877
vn -0.2125685 0.9725599 0.0945613
vt 0.5000000 0.6521752
v 4.6125550 1.8615690 -28.6159000
vn 0.0003088 0.9932289 0.1161732
vt 0.5000000 0.7391315
v 6.2308564 1.1962649 -20.6249828
vn -0.0036161 0.9999935 0.0001647
vt 0.5000000 0.8695658
v 1.9658693 0.1690571 -7.6004019
vn -0.0001559 0.9998908 -0.0147798
vt 0.5000000 0.9130439
v -4.3537507 -0.0099636 -2.3668599
vn 0.5803195 0.6947232 0.4249576
vt 0.2068909 0.0434789
v 30.7139473 5.5420709 -62.4483528
vn 0.4442066 0.7716726 0.4551943
vt 0.2068909 0.0000000
v 30.1757164 9.8452244 -68.6509476
vn 0.4689744 0.7929863 0.3888906
vt 0.2068909 0.1730344
v 25.5483131 5.9618492 -56.1346321
vn 0.2991562 0.8950521 0.3307376
vt 0.2068909 0.2173925
v 20.0739021 6.0005941 -50.1504440
vn 0.2277646 0.7822765 0.5797989
vt 0.3420801 0.0000000
v 25.2674427 13.5036793 -70.6114044
vn 0.0761726 0.9040645 0.4205533
vt 0.3420801 0.0869831
v 21.4541035 13.0852108 -68.5487900
vn 0.1479609 0.9493492 0.2772070
vt 0.3420801 0.4347842
v 15.6368418 5.4897203 -44.8418770
vn -0.2041061 0.8319511 0.5159438
vt 0.5000000 0.0000000
v 19.4114265 15.0000000 -72.4444351
vn 0.0637729 0.9425413 0.3279466
vt 0.5000000 0.2173925
v 17.8853512 9.2331486 -57.5453835
vn -0.4014687 0.8747537 0.2713464
vt 0.6550000 0.0000000
v 13.5353661 13.5585003 -73.7646713
vn -0.1631513 0.9394609 0.3013217
vt 0.6550000 0.1304354
v 15.8387060 11.6556320 -65.1053619
vn -0.4241942 0.8848880 0.1924383
vt 0.6550000 0.2173925
v 10.1176167 8.6727400 -61.2472305
vn -0.5333318 0.8451614 0.0354895
vt 0.6550000 0.3913059
v 2.0500362 1.5983309 -43.3655968
vn -0.6217310 0.7793247 0.0781263
vt 0.7901400 0.3043492
v 4.2436686 4.2100472 -58.3740692
vn -0.2152494 0.9617026 0.1696937
vt 0.7901400 0.5217407
v 8.7300596 4.6633840 -42.4234314
vn -0.6977278 0.7121440 0.0776331
vt 0.9017153 0.0000000
v 6.1143060 7.6333084 -74.7080383
vn -0.6954724 0.7153180 0.0681052
vt 0.9017153 0.0869831
v 4.6380110 5.3114781 -67.0210724
vn -0.3457125 0.9371272 -0.0477027
vt 0.9017153 0.6086971
v -1.9823625 -1.1043336 -31.9151726
vn -0.2131519 0.9767987 -0.0207507
vt 0.9017153 0.6976802
v -1.0254310 -0.4267901 -23.5355301
vn -0.0739627 0.9972602 0.0013057
vt 0.9017153 0.7826095
v 0.3648659 0.0966485 -15.4534655
vn -0.7763004 0.6303275 -0.0067130
vt 0.5000000 0.0000000
v 0.0000000 0.0000000 -75.0000000
vn -0.4520436 0.6319484 0.6295218
vt 0.0981797 0.0000000
v -66.8126678 -5.3124256 -34.0525169
vn -0.3870535 0.6604443 0.6434307
vt 0.5000000 0.0869831
v -57.8153839 -1.0449501 -32.3583794
vn -0.3610627 0.7258393 0.5854836
vt 0.5000000 0.1730344
v -51.1527519 -1.3736033 -28.0176468
vn -0.2661813 0.8947164 0.3586505
vt 0.5000000 0.4347842
v -35.9284859 -1.7352364 -17.8973637
vn -0.1912501 0.9771727 0.0925035
vt 0.5000000 0.6086971
v -30.0064735 -2.4727900 -10.2317553
vn -0.0721920 0.9795813 -0.1876402
vt 0.5000000 0.6976802
v -25.7744274 -1.2524596 -3.1181099
vn -0.0457844 0.9949978 -0.0887871
vt 0.5000000 0.7826095
v -18.4052849 -0.6539716 -2.3004267
vn -0.0011059 0.9999622 0.0086329
vt 0.5000000 0.9130439
v -2.4280376 0.0958143 6.2242794
vn -0.4286954 0.6913958 0.5815430
vt 0.2068909 0.0434789
v -62.8539124 -5.6095119 -30.9116039
vn -0.4575232 0.7704460 0.4439432
vt 0.2068909 0.0000000
v -68.6509476 -9.8452244 -30.1757164
vn -0.3941588 0.7836497 0.4801376
vt 0.2068909 0.1730344
v -56.8945389 -5.9903789 -26.0727062
vn -0.3486615 0.8771441 0.3302324
vt 0.2068909 0.2173925
v -50.6464233 -5.9327989 -20.7623310
vn -0.5752853 0.7850887 0.2295268
vt 0.3420801 0.0000000
v -70.6113968 -13.5036793 -25.2674408
vn -0.4211580 0.9038509 0.0753631
vt 0.3420801 0.0869831
v -68.4697952 -13.0540676 -21.4376183
vn -0.2768661 0.9532972 0.1207046
vt 0.3420801 0.4347842
v -44.1769905 -5.3601265 -14.9315777
vn -0.5118970 0.8348754 -0.2023479
vt 0.5000000 0.0000000
v -72.4444351 -15.0000000 -19.4114304
vn -0.3298454 0.9401433 0.0856303
vt 0.5000000 0.2173925
v -57.4118385 -9.1580381 -18.2014084
vn -0.2703260 0.8765815 -0.3981567
vt 0.6550000 0.0000000
v -73.7646713 -13.5585003 -13.5353661
vn -0.2972267 0.9390490 -0.1727524
vt 0.6550000 0.1304354
v -64.6185303 -11.4505329 -15.6233950
vn -0.1872998 0.8960228 -0.4025692
vt 0.6550000 0.2173925
v -59.5651398 -8.2534676 -9.9478521
vn -0.2331150 0.9585160 -0.1640262
vt 0.6550000 0.3470881
v -51.8683929 -7.3116307 -12.2264719
vn -0.1234026 0.9091001 -0.3978806
vt 0.6550000 0.3913059
v -46.2179222 -4.3433409 -6.3022456
vn -0.1622063 0.9773024 -0.1362692
vt 0.6550000 0.5217407
v -38.0262680 -3.8778059 -8.6270790
vn -0.0331766 0.6675251 -0.7438478
vt 0.7901400 0.1304354
v -69.2018051 -3.7320769 -3.0006583
vn -0.0878768 0.8165923 -0.5704863
vt 0.7901400 0.3043492
v -54.4842110 -4.2399082 -4.7074060
vn -0.0576166 0.9421525 -0.3301955
vt 0.7901400 0.6086971
v -32.9576302 -1.9044679 -3.5988379
vn -0.0689455 0.7138053 -0.6969423
vt 0.9017153 0.0000000
v -74.7080383 -7.6333084 -6.1143050
vn 0.0163166 0.7285829 -0.6847633
vt 0.9017153 0.2173925
v -57.6223984 1.0760746 1.0668893
vn 0.0056946 0.6271442 -0.7788824
vt 0.5000000 0.0000000
v -75.0000000 0.0000000 0.0000005
vn 0.0273068 0.6727626 -0.7393543
vt 0.5000000 0.1730344
v -66.5218658 2.3233821 1.9666620
vn 0.0075298 0.7985750 -0.6018482
vt 0.5000000 0.3913059
v -49.3079300 0.3590634 0.4039235
vn 0.5520761 0.8078013 -0.2065650
vt 0.0981797 0.1730344
v -35.0082893 5.8029675 -48.6460228
vn 0.5221829 0.8305283 -0.1937725
vt 0.0981797 0.3043492
v -31.0926189 4.5416942 -43.3103256
vn 0.3650277 0.9300107 -0.0428358
vt 0.0981797 0.3470881
v -29.9709606 5.0299969 -36.3715935
vn 0.4463944 0.8648868 -0.2295711
vt 0.0981797 0.5217407
v -21.4210014 0.8316939 -34.7772331
vn 0.3311937 0.9303687 -0.1572414
vt 0.0981797 0.6521752
v -17.8680038 1.0569657 -27.3348751
vn 0.0642325 0.9971967 0.0383776
vt 0.0981797 0.7826095
v -11.8475046 0.7859696 -13.0548954
vn 0.6028113 0.7640588 -0.2298539
vt 0.2068909 0.0434789
v -38.8677711 6.9145112 -54.6585846
vn 0.6358843 0.7223661 -0.2717322
vt 0.2068909 0.0000000
v -42.6004105 7.5788255 -61.6775436
vn 0.4808453 0.8767859 0.0058529
vt 0.3420801 0.0434789
v -45.4937134 11.8407726 -53.2244682
vn 0.5114078 0.8588200 -0.0298411
vt 0.3420801 0.0000000
v -48.5175476 13.5036793 -57.1879501
vn 0.3690957 0.9264516 0.0738643
vt 0.3420801 0.1730344
v -41.8949013 9.8547668 -47.0260468
vn 0.0670749 0.9693215 0.2364674
vt 0.3420801 0.4347842
v -32.4195595 4.9335341 -29.8425121
vn 0.2512501 0.9673444 0.0334416
vt 0.3420801 0.5652189
v -25.4947319 3.6592004 -28.7184715
vn 0.0692834 0.9823437 0.1737832
vt 0.3420801 0.6086971
v -22.7193699 2.4317751 -20.9504910
vn 0.1144708 0.9237398 0.3655151
vt 0.5000000 0.0434789
v -49.9957924 11.7338810 -46.0462723
vn 0.2398479 0.9277542 0.2859109
vt 0.5000000 0.0000000
v -53.0330124 15.0000000 -53.0330048
vn 0.3028506 0.9506795 0.0670086
vt 0.5000000 0.2627358
v -37.1124954 7.6945267 -41.1908531
vn -0.0198673 0.9085240 0.4173602
vt 0.6550000 0.1730344
v -46.0105515 8.3334913 -38.3952827
vn 0.0322637 0.9461744 0.3220451
vt 0.6550000 0.3043492
v -38.3467979 6.4159665 -33.6493645
vn -0.1136685 0.8398865 0.5307261
vt 0.7901400 0.0000000
v -58.7519073 11.7538137 -46.5319710
vn -0.2037197 0.7841573 0.5861704
vt 0.7901400 0.1304354
v -55.0155945 7.8765583 -40.0864754
vn -0.3246978 0.6672924 0.6702926
vt 0.9017153 0.0000000
v -62.8943977 5.3174911 -40.8387032
vn -0.3480723 0.6542947 0.6713749
vt 0.9017153 0.1304354
v -58.6892548 3.2787209 -36.9382133
vn -0.2919013 0.7268515 0.6216756
vt 0.9017153 0.1730344
v -52.4865379 3.7779579 -34.1652985
vn -0.2454631 0.7952833 0.5543216
vt 0.9017153 0.3043492
v -45.2424202 3.4781303 -30.4396915
vn -0.2026699 0.8545703 0.4781574
vt 0.9017153 0.3913059
v -37.9699364 2.8714828 -26.2288303
vn -0.0950961 0.9289941 0.3576683
vt 0.9017153 0.4782624
v -30.4715672 2.8091431 -23.1869774
vn -0.1944429 0.9165634 0.3494332
vt 0.9017153 0.6086971
v -27.9489841 0.2667709 -16.6626720
vn -0.0938689 0.9842650 0.1497033
vt 0.9017153 0.7826095
v -20.3986721 -0.1041993 -11.4855680
vn -0.4011961 0.6143202 0.6794501
vt 0.5000000 0.0000000
v -64.9519043 0.0000000 -37.5000000
vn -0.3299157 0.6362691 -0.6973645
vt 0.0981797 0.0000000
v 62.8966789 -5.3124256 -40.8352127
vn -0.3620611 0.6736351 -0.6443039
vt 0.5000000 0.0869831
v 55.7626724 -0.2798884 -32.4821281
vn -0.2436156 0.8238460 -0.5117902
vt 0.5000000 0.3043492
v 40.8000832 -2.6659830 -27.1704979
vn -0.1918230 0.8857698 -0.4226297
vt 0.5000000 0.4347842
v 33.7517738 -1.7619233 -22.3528080
vn 0.2708348 0.9609617 0.0565783
vt 0.5000000 0.6521752
v 19.4946346 -2.0271926 -25.0050449
vn 0.1801794 0.9825940 0.0452146
vt 0.5000000 0.7391315
v 13.4415426 -0.8842998 -18.4554253
vn 0.0630373 0.9978223 0.0194174
vt 0.5000000 0.8260877
v 7.8155766 -0.0843741 -12.8540945
vn -0.2946853 0.6933693 -0.6575710
vt 0.2068909 0.0434789
v 57.5066223 -5.1697721 -38.1550789
vn -0.1580555 0.7731058 -0.6142686
vt 0.2068909 0.0000000
v 60.4584122 -9.8452244 -44.3656082
vn -0.2109541 0.7930058 -0.5715245
vt 0.2068909 0.1730344
v 50.0154877 -5.8644781 -35.6486588
vn -0.0804533 0.8991436 -0.4301954
vt 0.2068909 0.2173925
v 42.1782570 -6.1145301 -33.5438423
vn 0.0916916 0.7829873 -0.6152426
vt 0.3420801 0.0000000
v 57.1879425 -13.5036793 -48.5175438
vn 0.1445918 0.9040458 -0.4022368
vt 0.3420801 0.0869831
v 52.8292198 -13.0763474 -48.6232948
vn 0.0232033 0.9562134 -0.2917492
vt 0.3420801 0.4347842
v 34.7186356 -5.2969527 -30.6404343
vn 0.4330422 0.8333480 -0.3435194
vt 0.5000000 0.0000000
v 53.0330124 -15.0000000 -53.0330048
vn 0.1142586 0.9437714 -0.3102268
vt 0.5000000 0.2173925
v 44.1128654 -9.2387381 -40.9490013
vn 0.4832892 0.8747883 -0.0343060
vt 0.6550000 0.0000000
v 48.6043091 -13.5585003 -57.1143951
vn 0.2942930 0.9390112 -0.1779036
vt 0.6550000 0.1304354
v 46.2153435 -11.6356697 -48.4776268
vn 0.4665510 0.8829577 0.0521155
vt 0.6550000 0.2173925
v 39.3056679 -8.6096478 -48.0862694
vn 0.3114642 0.9489527 -0.0497881
vt 0.6550000 0.3470881
v 35.3820267 -7.0370297 -39.6658325
vn 0.5186860 0.8182912 0.2477182
vt 0.6550000 0.3913059
v 27.7405205 -2.7496829 -41.7565002
vn 0.1613045 0.9786011 -0.1277530
vt 0.6550000 0.5217407
v 27.3782444 -4.0366716 -27.9064465
vn 0.5806522 0.7745194 0.2509240
vt 0.7901400 0.3043492
v 32.7397156 -4.0613890 -48.5979919
vn 0.4493523 0.8696868 0.2042730
vt 0.7901400 0.5217407
v 22.2686996 -1.4657857 -34.6202888
vn 0.6425810 0.7123870 0.2821248
vt 0.9017153 0.0000000
v 42.6491661 -7.6333075 -61.6419144
vn 0.6368065 0.7141975 0.2905157
vt 0.9017153 0.0869831
v 37.4853897 -5.2544050 -55.7785606
vn 0.6683710 0.6304424 0.3947437
vt 0.5000000 0.0000000
v 37.5000000 0.0000000 -64.9519043
vn -0.0724901 0.6332437 0.7705503
vt 0.0981797 0.0000000
v 74.8877258 5.3124256 -3.9159906
vn -0.0080200 0.6742201 0.7384869
vt 0.5000000 0.0869831
v 64.9113464 0.5358754 -0.4692846
vn -0.0205864 0.7315899 0.6814342
vt 0.5000000 0.1730344
v 56.9124985 1.1877662 -1.1842169
vn -0.0216122 0.7938405 0.6077420
vt 0.5000000 0.3043492
v 49.4676132 1.3356431 -1.5025101
vn -0.0252412 0.8572581 0.5142679
vt 0.5000000 0.4347842
v 41.8142662 1.0712671 -1.4255666
vn -0.1607950 0.9862444 0.0383006
vt 0.5000000 0.6521752
v 30.7495823 2.7080326 -8.2706661
vn -0.1572411 0.9799874 -0.1220652
vt 0.5000000 0.6976802
v 23.0348949 1.2727742 -9.1673841
vn -0.0334579 0.9916409 -0.1246151
vt 0.5000000 0.8260877
v 15.4809370 -0.4277338 -10.5131397
vn -0.0068144 0.9999663 -0.0045804
vt 0.5000000 0.8695658
v 9.8226109 0.0922937 -5.1259627
vn -0.0770882 0.6930287 0.7167766
vt 0.2068909 0.0434789
v 69.5521774 5.4979215 -4.5703783
vn -0.1723591 0.7714443 0.6125079
vt 0.2068909 0.0000000
v 74.5413284 9.8452244 -8.1925373
vn -0.0949026 0.7838992 0.6135924
vt 0.2068909 0.1730344
v 61.7054253 5.7930322 -5.7091556
vn -0.1162754 0.8628849 0.4918432
vt 0.2068909 0.2173925
v 53.9628983 5.6193228 -6.8064089
vn -0.3859217 0.7836335 0.4868091
vt 0.3420801 0.0000000
v 73.7849884 13.5036793 -13.4234543
vn -0.3251440 0.9037942 0.2782760
vt 0.3420801 0.0869831
v 70.0875244 13.0742979 -15.6634579
vn -0.1415733 0.9224347 0.3592650
vt 0.3420801 0.4347842
v 46.2616844 4.7986293 -7.3233614
vn -0.5498934 0.8312683 0.0813041
vt 0.5000000 0.0000000
v 72.4444351 15.0000000 -19.4114304
vn -0.2282926 0.9414076 0.2482626
vt 0.5000000 0.2173925
v 58.9031029 9.1150227 -12.6902208
vn -0.4355856 0.8748861 -0.2117534
vt 0.6550000 0.0000000
v 70.6497650 13.5585003 -25.1603642
vn -0.3403594 0.9401634 0.0157607
vt 0.6550000 0.1304354
v 64.1857681 11.6245537 -18.6886959
vn -0.3614295 0.8951733 -0.2608325
vt 0.6550000 0.2173925
v 57.1926498 8.4570141 -21.3792725
vn -0.3108494 0.8283784 -0.4660064
vt 0.6550000 0.3913059
v 41.9492226 2.0804143 -21.3952732
vn -0.1500099 0.9675705 0.2032348
vt 0.6550000 0.5217407
v 38.4859695 3.8105667 -7.7907734
vn -0.3866633 0.7521656 -0.5336089
vt 0.7901400 0.3043492
v 53.5502663 3.8867142 -26.6164913
vn -0.2645108 0.9276396 -0.2636643
vt 0.7901400 0.5217407
v 35.9298210 2.8983235 -15.0717888
vn -0.4156604 0.7126850 -0.5650721
vt 0.9017153 0.0000000
v 67.7562180 7.6333084 -32.0588799
vn -0.4070514 0.7129561 -0.5709665
vt 0.9017153 0.0869831
v 60.6490135 5.2557735 -29.7674389
vn -0.2088878 0.9192805 -0.3336006
vt 0.9017153 0.6086971
v 28.3128376 0.5041770 -15.3356314
vn -0.3835936 0.6281595 -0.6769576
vt 0.5000000 0.0000000
v 64.9519043 0.0000000 -37.5000000
vn 0.3193353 0.6320177 0.7061009
vt 0.0981797 0.0000000
v -62.8966789 -5.3124256 40.8352127
vn 0.3641249 0.6610730 0.6560456
vt 0.5000000 0.0869831
v -56.9288292 -1.0080657 33.8531723
vn 0.3273211 0.7274481 0.6030590
vt 0.5000000 0.1730344
v -49.8267212 -1.2912810 30.1968250
vn 0.1817036 0.8912603 0.4154985
vt 0.5000000 0.4347842
v -33.6538315 -1.7537279 22.2911034
vn 0.0029558 0.9731973 0.2299529
vt 0.5000000 0.6086971
v -24.5445538 -2.5270035 20.9846649
vn -0.1585636 0.9873475 -0.0015717
vt 0.5000000 0.6976802
v -15.6885490 -1.3719060 19.1686535
vn -0.0587750 0.9982688 -0.0022411
vt 0.5000000 0.8695658
v -8.6891479 -0.3031481 12.6712694
vn 0.2894360 0.6913369 0.6620274
vt 0.2068909 0.0434789
v -58.1987038 -5.6029711 38.9706078
vn 0.1557121 0.7704570 0.6181826
vt 0.2068909 0.0000000
v -60.4584122 -9.8452244 44.3656082
vn 0.2193522 0.7831624 0.5818431
vt 0.2068909 0.1730344
v -51.0323792 -5.9720321 36.2154884
vn 0.1135597 0.8762473 0.4682894
vt 0.2068909 0.2173925
v -43.3280563 -5.9151244 33.4533157
vn -0.0888434 0.7851058 0.6129567
vt 0.3420801 0.0000000
v -57.1879425 -13.5036793 48.5175438
vn -0.1452828 0.9038275 0.4024784
vt 0.3420801 0.0869831
v -52.8010864 -13.0539808 48.5773888
vn -0.0306879 0.9526066 0.3026532
vt 0.3420801 0.4347842
v -35.1088181 -5.3659825 30.7899685
vn -0.4312324 0.8348386 0.3421744
vt 0.5000000 0.0000000
v -53.0330124 -15.0000000 53.0330048
vn -0.0900604 0.9399890 0.3291044
vt 0.5000000 0.2173925
v -44.4812622 -9.1571894 40.6136169
vn -0.4799895 0.8765742 0.0350409
vt 0.6550000 0.0000000
v -48.6043091 -13.5585003 57.1143951
vn -0.2980686 0.9390689 0.1711868
vt 0.6550000 0.1304354
v -45.8422432 -11.4514370 48.1484070
vn -0.4420176 0.8961712 -0.0387001
vt 0.6550000 0.2173925
v -38.4073105 -8.2596378 46.6090851
vn -0.2574660 0.9586570 0.1211947
vt 0.6550000 0.3470881
v -36.5560608 -7.3212237 38.7991371
vn -0.4046604 0.9100770 -0.0894983
vt 0.6550000 0.3913059
v -28.6243668 -4.3722429 36.8436813
vn -0.1936596 0.9780120 0.0773861
vt 0.6550000 0.5217407
v -26.6905689 -3.9211862 28.5635529
vn -0.6607895 0.6675461 -0.3431317
vt 0.7901400 0.1304354
v -37.2007523 -3.7336137 58.4299507
vn -0.5377521 0.8169517 -0.2083570
vt 0.7901400 0.3043492
v -31.3354931 -4.2545943 44.8228378
vn -0.3040085 0.9474165 -0.0999041
vt 0.7901400 0.6086971
v -19.7993355 -2.0308421 26.2648258
vn -0.6380457 0.7138144 -0.2887331
vt 0.9017153 0.0000000
v -42.6491661 -7.6333075 61.6419144
vn -0.5848562 0.7286345 -0.3564197
vt 0.9017153 0.2173925
v -27.8925037 1.0685335 50.4309807
vn -0.6716874 0.6271401 -0.3943748
vt 0.5000000 0.0000000
v -37.5000000 0.0000000 64.9519043
vn -0.6266624 0.6727596 -0.3933050
vt 0.5000000 0.1730344
v -31.5594635 2.3212926 58.5923843
vn -0.5169234 0.7991287 -0.3068935
vt 0.5000000 0.3913059
v -24.3127270 0.3395113 42.8747330
vn 0.1083483 0.8112441 -0.5745814
vt 0.0981797 0.1730344
v -60.1276131 6.3446031 6.5410895
vn 0.1303554 0.8676991 -0.4796934
vt 0.0981797 0.3043492
v -52.6302719 5.2393303 6.4131389
vn 0.1178249 0.9202071 -0.3732777
vt 0.0981797 0.3470881
v -44.6915474 4.2527480 6.5578170
vn 0.0004208 0.8807284 -0.4736215
vt 0.0981797 0.5217407
v -39.9144669 -0.1175074 -0.1652617
vn 0.0460435 0.9414067 -0.3341160
vt 0.0981797 0.6521752
v -31.1326561 1.2806212 2.4737127
vn 0.0925948 0.9933734 -0.0680848
vt 0.0981797 0.7826095
v -22.1084595 1.3077826 4.9760880
vn 0.0127234 0.9999003 -0.0061164
vt 0.0981797 0.8260877
v -11.9722338 0.4111546 3.4215381
vn 0.1192513 0.7954082 -0.5942263
vt 0.2068909 0.0434789
v -66.3660660 8.1339760 7.7972488
vn 0.0814414 0.7234573 -0.6855485
vt 0.2068909 0.0000000
v -74.7145233 7.5788250 6.0542641
vn 0.2466897 0.8841347 -0.3967998
vt 0.3420801 0.0434789
v -68.7929993 11.9072990 13.0605631
vn 0.2391627 0.8532323 -0.4634608
vt 0.3420801 0.0000000
v -73.7849884 13.5036793 13.4234543
vn 0.2557417 0.9301639 -0.2634226
vt 0.3420801 0.1730344
v -61.9088173 9.9999571 13.0814505
vn 0.2728417 0.9617220 0.0254594
vt 0.3420801 0.3470881
v -48.4810867 6.6007371 14.5299301
vn 0.2323237 0.9715230 0.0465703
vt 0.3420801 0.4347842
v -41.2383270 4.7535872 12.7559729
vn 0.1483471 0.9693900 -0.1956427
vt 0.3420801 0.5652189
v -36.8082733 3.5311708 7.7213979
vn 0.1946039 0.9768027 0.0893634
vt 0.3420801 0.6086971
v -29.3429184 2.3583510 10.2529936
vn 0.3697794 0.9252353 0.0848695
vt 0.5000000 0.0434789
v -64.9388733 11.7609825 20.2583942
vn 0.3667098 0.9281190 -0.0641800
vt 0.5000000 0.0000000
v -72.4444351 15.0000000 19.4114304
vn 0.2305776 0.9440255 -0.2359024
vt 0.5000000 0.2627358
v -55.7943649 8.1656580 11.9640570
vn 0.3542806 0.9102042 0.2145077
vt 0.6550000 0.1730344
v -56.4400597 8.5491114 20.3403435
vn 0.4018360 0.8402994 0.3639022
vt 0.7901400 0.0000000
v -69.6738281 11.7538137 27.6146622
vn 0.4058990 0.7854571 0.4672292
vt 0.7901400 0.1304354
v -62.2457047 7.9494376 27.5249805
vn 0.4180659 0.6672372 0.6164541
vt 0.9017153 0.0000000
v -66.8145523 5.3174911 34.0487976
vn 0.4083064 0.6548697 0.6359494
vt 0.9017153 0.1304354
v -61.3334694 3.3191113 32.3193169
vn 0.3935835 0.7293867 0.5595418
vt 0.9017153 0.1730344
v -55.8351097 3.8867579 28.2245979
vn 0.3585303 0.8101888 0.4637350
vt 0.9017153 0.3043492
v -48.9116592 3.7005816 23.5468712
vn 0.2985799 0.8658872 0.4013595
vt 0.9017153 0.3913059
v -41.4819679 2.9525230 19.4540615
vn 0.2627114 0.9241666 0.2773063
vt 0.9017153 0.4782624
v -35.1442680 2.6905231 15.0930672
vn 0.2162771 0.9025609 0.3723010
vt 0.9017153 0.6086971
v -29.0921993 0.1168602 16.5687943
vn 0.0425486 0.9899745 0.1346857
vt 0.9017153 0.7826095
v -16.2307262 -0.4009307 10.7290659
vn 0.3879223 0.6143245 0.6871111
vt 0.5000000 0.0000000
v -64.9519043 0.0000000 37.5000000
vn 0.7711564 0.6320425 0.0764207
vt 0.0981797 0.0000000
v 3.9159908 -5.3124256 74.8877258
vn 0.7503171 0.6609590 0.0125508
vt 0.5000000 0.0869831
v 0.8484556 -1.0023510 66.2414322
vn 0.6868826 0.7265487 0.0178692
vt 0.5000000 0.1730344
v 1.2224361 -1.2785126 58.3172264
vn 0.4789106 0.8765129 0.0486810
vt 0.5000000 0.4347842
v 2.4891076 -1.8329757 41.7700233
vn -0.0265432 0.9863322 0.1626167
vt 0.5000000 0.6976802
v 8.2323866 -1.8958513 26.0713768
vn -0.0843165 0.9935102 0.0763430
vt 0.5000000 0.7826095
v 9.5986481 -0.2590677 18.0805569
vn 0.0032656 0.9999742 -0.0064128
vt 0.5000000 0.8695658
v 6.4442859 0.2160328 8.6325617
vn 0.7181467 0.6912395 0.0803324
vt 0.2068909 0.0434789
v 4.6470957 -5.6003165 69.8912125
vn 0.6132305 0.7704475 0.1742385
vt 0.2068909 0.0000000
v 8.1925373 -9.8452244 74.5413284
vn 0.6143274 0.7826437 0.1003526
vt 0.2068909 0.1730344
v 5.8343315 -5.9623103 62.3269043
vn 0.4669696 0.8742012 0.1330852
vt 0.2068909 0.2173925
v 7.2518063 -5.9027457 54.3551331
vn 0.4863943 0.7851812 0.3832897
vt 0.3420801 0.0000000
v 13.4234543 -13.5036793 73.7849884
vn 0.2760676 0.9038140 0.3269663
vt 0.3420801 0.0869831
v 15.6666107 -13.0534191 70.0160522
vn 0.2637883 0.9494447 0.1702071
vt 0.3420801 0.4347842
v 8.8931208 -5.3942480 46.1577568
vn 0.0807260 0.8347652 0.5446563
vt 0.5000000 0.0000000
v 19.4114265 -15.0000000 72.4444351
vn 0.2421973 0.9397132 0.2414115
vt 0.5000000 0.2173925
v 12.9009752 -9.1547260 58.8498230
vn -0.2096663 0.8765718 0.4331997
vt 0.6550000 0.0000000
v 25.1603642 -13.5585003 70.6497650
vn -0.0001616 0.9391976 0.3433772
vt 0.6550000 0.1304354
v 18.7658863 -11.4518042 63.7728844
vn -0.2526974 0.8968873 0.3629563
vt 0.6550000 0.2173925
v 21.1218185 -8.2753954 56.5644112
vn -0.0172358 0.9594130 0.2814776
vt 0.6550000 0.3470881
v 15.2103462 -7.3481636 51.1169930
vn -0.2636610 0.9159476 0.3025277
vt 0.6550000 0.3913059
v 17.2448902 -4.5014267 43.2645721
vn 0.0280053 0.9788958 0.2024322
vt 0.6550000 0.5217407
v 10.5141363 -4.0873442 37.8960228
vn -0.6273073 0.6676975 0.4008313
vt 0.7901400 0.1304354
v 31.9932137 -3.7375312 61.4245872
vn -0.4452070 0.8190815 0.3617958
vt 0.7901400 0.3043492
v 23.0402203 -4.3064671 49.5136261
vn -0.1430261 0.9692513 0.2002386
vt 0.7901400 0.6086971
v 11.4820089 -2.5303111 31.0835934
vn -0.5689731 0.7138560 0.4082637
vt 0.9017153 0.0000000
v 32.0588799 -7.6333084 67.7562180
vn -0.5999600 0.7301382 0.3270265
vt 0.9017153 0.2173925
v 29.6671829 1.0488416 49.2936516
vn -0.6773599 0.6271429 0.3845457
vt 0.5000000 0.0000000
v 37.5000000 0.0000000 64.9519043
vn -0.6537263 0.6730621 0.3458748
vt 0.5000000 0.1730344
v 34.9487953 2.3187249 56.6076469
vn -0.5185263 0.8042017 0.2905000
vt 0.5000000 0.3913059
v 24.7313232 0.2432860 42.2885437
vn -0.4435068 0.8111853 -0.3811563
vt 0.0981797 0.1730344
v -24.4014282 6.3430519 55.3428230
vn -0.3498636 0.8678494 -0.3527505
vt 0.0981797 0.3043492
v -20.7601929 5.2384291 48.7822876
vn -0.2609073 0.9210043 -0.2892724
vt 0.0981797 0.3470881
v -16.6204338 4.2544909 41.9452400
vn -0.4059590 0.8837003 -0.2329618
vt 0.0981797 0.5217407
v -20.1024361 -0.1719647 34.3347359
vn -0.2503446 0.9490249 -0.1915187
vt 0.0981797 0.6521752
v -13.2791910 1.2107731 27.7051163
vn -0.0114132 0.9926561 -0.1204316
vt 0.0981797 0.7826095
v -6.7576733 1.2663367 21.3176537
vn -0.4550179 0.7953804 -0.4004107
vt 0.2068909 0.0434789
v -26.4316826 8.1335764 61.3737297
vn -0.5529925 0.7234532 -0.4132976
vt 0.2068909 0.0000000
v -32.1141167 7.5788269 67.7318115
vn -0.2203118 0.8841282 -0.4120440
vt 0.3420801 0.0434789
v -23.0863972 11.9075012 66.1074600
vn -0.2817870 0.8532383 -0.4388399
vt 0.3420801 0.0000000
v -25.2674427 13.5036793 70.6114044
vn -0.1002498 0.9301435 -0.3532465
vt 0.3420801 0.1730344
v -19.6273384 10.0008860 60.1583977
vn 0.1609043 0.9613010 -0.2236300
vt 0.3420801 0.3470881
v -11.6271572 6.6037073 49.2941742
vn 0.1719095 0.9687343 -0.1788882
vt 0.3420801 0.4347842
v -9.3757267 4.7246203 42.1263008
vn -0.0724269 0.9718771 -0.2240743
vt 0.3420801 0.5652189
v -11.4319086 3.5100803 35.5661850
vn 0.2088575 0.9726446 -0.1016909
vt 0.3420801 0.6086971
v -4.8023033 2.0249975 29.9076729
vn 0.2583640 0.9252235 -0.2778663
vt 0.5000000 0.0434789
v -14.9262781 11.7621078 66.3706360
vn 0.1277734 0.9281121 -0.3496884
vt 0.5000000 0.0000000
v -19.4114265 15.0000000 72.4444351
vn -0.0886392 0.9439116 -0.3180787
vt 0.5000000 0.2627358
v -17.5361023 8.1681643 54.3091164
vn 0.0130687 0.9999124 0.0021269
vt 0.5000000 0.9130439
v 3.9142990 -0.0224100 0.3361312
vn 0.3631571 0.9100773 -0.1996904
vt 0.6550000 0.1730344
v -10.6051912 8.5524750 59.0651817
vn 0.5160592 0.8403032 -0.1660526
vt 0.7901400 0.0000000
v -10.9219122 11.7538128 74.1466293
vn 0.6075925 0.7854424 -0.1179482
vt 0.7901400 0.1304354
v -7.2871037 7.9516096 67.6736679
vn 0.7429124 0.6672196 -0.0538449
vt 0.9017153 0.0000000
v -3.9201536 5.3174911 74.8874969
vn 0.7549177 0.6548488 -0.0356708
vt 0.9017153 0.1304354
v -2.6792605 3.3214355 69.2806244
vn 0.6815217 0.7292307 -0.0612441
vt 0.9017153 0.1730344
v -3.4787588 3.8922429 62.4881897
vn 0.5817766 0.8095368 -0.0786526
vt 0.9017153 0.3043492
v -4.0564442 3.7008946 54.2204399
vn 0.5030640 0.8623300 -0.0575646
vt 0.9017153 0.3913059
v -3.7747397 2.8983171 45.9571228
vn 0.3963935 0.9151028 -0.0738864
vt 0.9017153 0.4782624
v -3.6699483 2.2742832 38.0486603
vn 0.3125044 0.9481844 0.0573363
vt 0.9017153 0.6086971
v 3.2630608 -1.7354623 32.6543159
vn 0.1969887 0.9792103 0.0484029
vt 0.9017153 0.7826095
v 1.4473066 -0.6094717 23.8537960
vn 0.7890262 0.6143129 0.0075730
vt 0.5000000 0.0000000
v 0.0000000 0.0000000 75.0000000
vn 0.4524591 0.6318229 -0.6293494
vt 0.0981797 0.0000000
v 66.8126678 -5.3124256 34.0525169
vn 0.3859879 0.6600171 -0.6445082
vt 0.5000000 0.0869831
v 57.9308281 -0.9856731 32.4829712
vn 0.3602799 0.7213537 -0.5914789
vt 0.5000000 0.1730344
v 51.4495010 -1.2072502 28.3944702
vn 0.2798278 0.8670557 -0.4122025
vt 0.5000000 0.4347842
v 37.8114586 -1.3040898 19.8751163
vn 0.0722583 0.9927171 0.0963921
vt 0.5000000 0.6976802
v 20.7386723 -1.0856087 3.8746662
vn -0.0644462 0.9947662 0.0792902
vt 0.5000000 0.7826095
v 17.8029575 0.7670273 -3.1137488
vn 0.0188035 0.9997029 0.0155114
vt 0.5000000 0.8695658
v 12.3005953 -0.3916776 2.4553854
vn 0.4293981 0.6905557 -0.5820224
vt 0.2068909 0.0434789
v 62.9461784 -5.6142564 30.9697590
vn 0.4581900 0.7699798 -0.4440643
vt 0.2068909 0.0000000
v 68.6509476 -9.8452244 30.1757164
vn 0.3936598 0.7820864 -0.4830869
vt 0.2068909 0.1730344
v 57.1280060 -5.9780655 26.2520027
vn 0.3505018 0.8755401 -0.3325328
vt 0.2068909 0.2173925
v 50.9510422 -5.8466144 21.3162785
vn 0.5827214 0.7804450 -0.2265863
vt 0.3420801 0.0000000
v 70.6113968 -13.5036793 25.2674408
vn 0.4236335 0.9025865 -0.0766311
vt 0.3420801 0.0869831
v 68.6159668 -13.1079617 21.4987049
vn 0.2211370 0.9749630 0.0233575
vt 0.3420801 0.4347842
v 41.4314423 -4.8761892 11.5744867
vn 0.5216970 0.8277434 0.2065748
vt 0.5000000 0.0000000
v 72.4444351 -15.0000000 19.4114304
vn 0.3379178 0.9382506 -0.0741445
vt 0.5000000 0.2173925
v 57.8315201 -9.3032103 18.1891747
vn 0.2721667 0.8745631 0.4013288
vt 0.6550000 0.0000000
v 73.7646713 -13.5585003 13.5353661
vn 0.3044281 0.9386897 0.1618183
vt 0.6550000 0.1304354
v 65.2361984 -11.7138748 15.9072838
vn 0.1924998 0.8841152 0.4257748
vt 0.6550000 0.2173925
v 61.3900337 -8.6730518 10.0730801
vn 0.0485157 0.8040892 0.5925258
vt 0.6550000 0.3913059
v 52.4639473 -2.7613459 2.9405189
vn 0.2134936 0.9671773 -0.1377988
vt 0.6550000 0.5217407
v 32.9255981 -2.9079115 11.9023657
vn 0.0754307 0.7728161 0.6301314
vt 0.7901400 0.3043492
v 59.0325279 -4.1281796 4.0700927
vn 0.0890738 0.9319594 0.3514508
vt 0.7901400 0.5217407
v 37.4144745 -2.6500747 4.5445862
vn 0.0879897 0.9716206 0.2195705
vt 0.7901400 0.6086971
v 29.1500835 -1.8668025 4.4670863
vn 0.0774815 0.7123211 0.6975639
vt 0.9017153 0.0000000
v 74.7080383 -7.6333084 6.1143050
vn 0.0671801 0.7134598 0.6974683
vt 0.9017153 0.0869831
v 67.2264099 -5.2902017 4.5976534
vn -0.0069341 0.6300579 0.7765172
vt 0.5000000 0.0000000
v 75.0000000 0.0000000 0.0000005
vn -0.5508547 0.8124020 0.1912126
vt 0.0981797 0.1730344
v 35.7174149 6.3560147 48.7410812
vn -0.4735420 0.8728821 0.1176215
vt 0.0981797 0.3043492
v 31.8288994 5.2527342 42.1244583
vn -0.3534791 0.9340935 0.0502192
vt 0.0981797 0.3470881
v 27.7229099 4.2100596 34.5134239
vn -0.3844837 0.8929759 0.2340221
vt 0.0981797 0.5217407
v 18.8571854 -0.6122873 34.3839607
vn -0.2915318 0.9429943 0.1605337
vt 0.0981797 0.6521752
v 15.2134361 0.1839554 25.6612091
vn -0.0635829 0.9891948 -0.1321023
vt 0.0981797 0.6976802
v 19.5319366 1.8101745 18.1026230
vn 0.0332401 0.9943635 -0.1006798
vt 0.0981797 0.8260877
v 15.5337324 0.3607977 10.2337360
vn -0.5737118 0.7959127 0.1933333
vt 0.2068909 0.0434789
v 39.9379959 8.1381502 53.5604477
vn -0.6344002 0.7235574 0.2720314
vt 0.2068909 0.0000000
v 42.6004105 7.5788255 61.6775436
vn -0.4668106 0.8842146 -0.0158893
vt 0.3420801 0.0434789
v 45.7181549 11.9112263 53.0422974
vn -0.5213420 0.8529994 0.0243820
vt 0.3420801 0.0000000
v 48.5175476 13.5036793 57.1879501
vn -0.3539170 0.9306715 -0.0927004
vt 0.3420801 0.1730344
v 42.3228035 10.0121088 47.0512886
vn -0.0975048 0.9570706 -0.2729626
vt 0.3420801 0.3470881
v 37.2987747 6.5129695 34.2815666
vn 0.0366475 0.9422285 -0.3329602
vt 0.3420801 0.4347842
v 32.6480789 3.8276811 26.3518963
vn -0.2079388 0.9772978 -0.0406269
vt 0.3420801 0.5652189
v 23.6363392 3.1219740 26.2242756
vn -0.1111955 0.9245957 -0.3643602
vt 0.5000000 0.0434789
v 50.0548782 11.7669659 46.1132812
vn -0.2392898 0.9279869 -0.2856234
vt 0.5000000 0.0000000
v 53.0330124 15.0000000 53.0330048
vn -0.3151310 0.9444790 -0.0930152
vt 0.5000000 0.2627358
v 38.3524437 8.1855307 42.2148170
vn 0.0134642 0.9086627 -0.4173139
vt 0.6550000 0.1730344
v 46.0208702 8.5302000 38.7185936
vn 0.1141900 0.8401935 -0.5301279
vt 0.7901400 0.0000000
v 58.7519073 11.7538137 46.5319710
vn 0.2021254 0.7847221 -0.5859665
vt 0.7901400 0.1304354
v 55.0289955 7.9538970 40.1770554
vn 0.3247669 0.6671050 -0.6704458
vt 0.9017153 0.0000000
v 62.8943977 5.3174911 40.8387032
vn 0.3467926 0.6542949 -0.6720365
vt 0.9017153 0.1304354
v 58.7246780 3.3293724 37.0025215
vn 0.2890910 0.7272230 -0.6225538
vt 0.9017153 0.1730344
v 52.5727310 3.9121919 34.3736153
vn 0.2293225 0.8022047 -0.5512521
vt 0.9017153 0.3043492
v 45.4863052 3.7121761 30.8687935
vn 0.2164455 0.8394995 -0.4983893
vt 0.9017153 0.3913059
v 39.7580452 2.7822952 26.9112377
vn 0.1549369 0.9264193 -0.3431354
vt 0.9017153 0.6086971
v 28.7289124 1.0897783 18.6219006
vn 0.1630154 0.9682874 -0.1893291
vt 0.9017153 0.6976802
v 24.3495350 -1.0401462 11.3365774
vn 0.4010780 0.6143159 -0.6795237
vt 0.5000000 0.0000000
v 64.9519043 0.0000000 37.5000000
vn -0.4604766 0.8678223 -0.1866703
vt 0.2744855 0.0652177
v -10.4840498 -9.7806902 -65.9629898
vn 0.3037249 0.8680955 0.3926340
vt 0.2744855 0.0652177
v 23.9424267 9.9448853 -62.7250328
vn -0.3950728 0.8658195 0.3070411
vt 0.2744855 0.0652177
v -62.7936096 -9.9174156 -24.0742054
vn -0.0272603 0.9990962 0.0326144
vt 0.7008576 0.8260877
v -12.0448427 -0.1885483 -6.0482221
vn -0.0661251 0.8675256 -0.4929776
vt 0.2744855 0.0652177
v 51.9548721 -9.8573780 -42.1895828
vn -0.1847277 0.8652855 0.4660007
vt 0.2744855 0.0652177
v 66.3611298 9.8806715 -10.5105247
vn 0.0685386 0.8656845 0.4958759
vt 0.2744855 0.0652177
v -52.2491112 -9.9147558 42.3406334
vn 0.4641707 0.8654757 0.1884077
vt 0.2744855 0.0652177
v 10.5367661 -9.9112978 66.4244614
vn 0.0301535 0.9995440 0.0016425
vt 0.7008576 0.8260877
v -0.0083830 0.0019905 15.0614700
vn 0.3976767 0.8639125 -0.3090445
vt 0.2744855 0.0652177
v 63.0364952 -9.9990902 24.1645699
vn 0.2976809 0.9182556 -0.2611373
vt 0.7008576 0.3043492
v 45.0347557 -4.9012942 17.8549156
vn 0.3426442 0.9391750 0.0233535
vt 0.5661101 0.4782624
v 29.2182827 -4.8420372 -34.9107704
vn -0.2702251 0.9582547 -0.0934149
vt 0.5661101 0.4782624
v 43.5764313 5.2591715 -14.1813240
vn 0.4312335 0.8036464 -0.4101098
vt 0.7225700 0.1304354
v -26.4061394 -8.5446568 -62.2089729
vn -0.5465534 0.8205003 0.1675072
vt 0.7783576 0.1087093
v 9.7688704 9.7793341 -68.3165665
vn -0.3256653 0.8044981 0.4967140
vt 0.8012865 0.3043492
v -44.1045570 -1.6564801 -23.3120766
vn -0.1411061 0.8048703 -0.5764312
vt 0.7225700 0.1304354
v -67.3107758 -8.6207075 -8.2948217
vn 0.5578554 0.8197999 0.1293278
vt 0.7783576 0.1087093
v 42.5909538 -9.7559967 -54.3097763
vn 0.2130126 0.9575546 0.1942028
vt 0.7008576 0.6749277
v 11.9078541 1.2621788 -26.0393238
vn -0.4196979 0.8195408 -0.3901367
vt 0.7783576 0.1087093
v 63.9668350 9.7382078 -25.7022476
vn -0.0336885 0.9622231 -0.2701700
vt 0.7008576 0.6304361
v 26.0423126 -2.4288981 -20.9946175
vn -0.0413415 0.9767823 -0.2102080
vt 0.7008576 0.6749277
v 20.9822845 -1.3922849 -16.1972237
vn 0.2684097 0.8050958 0.5289395
vt 0.8012865 0.3043492
v -42.2388229 -1.5872325 26.4483509
vn -0.5697262 0.8049032 -0.1659607
vt 0.7225700 0.1304354
v -40.8413506 -8.6223135 54.1449432
vn 0.1295320 0.9629121 0.2366892
vt 0.7008576 0.6749277
v -22.8261356 -0.2442709 13.7729836
vn 0.5985319 0.8005386 0.0299603
vt 0.8012865 0.3043492
v 1.7632413 -1.5674174 50.1295547
vn -0.4282804 0.8051071 0.4103396
vt 0.7225700 0.1304354
v 26.4583416 -8.6259212 62.4381371
vn 0.3310188 0.7810565 -0.5295066
vt 0.8012865 0.3043492
v 44.9949570 -1.2975003 24.3303490
vn 0.1674512 0.8197700 0.5476652
vt 0.7783576 0.1087093
v 68.4040909 -9.7901230 9.7618237
vn -0.0420109 0.9659835 0.2551686
vt 0.7008576 0.6749277
v 25.8710785 0.8689104 -1.9923000
vn 0.5541284 0.7364808 -0.3879921
vt 0.8459277 0.1739139
v -27.7420464 -3.9726222 -55.3369827
vn -0.0575547 0.7291006 -0.6819822
vt 0.8459277 0.1739139
v -62.4500351 -3.9308732 -3.5258865
vn -0.6193557 0.7291769 -0.2910317
vt 0.8459277 0.1739139
v -34.2837029 -3.9356956 52.3185616
vn -0.5610543 0.7297426 0.3907604
vt 0.8459277 0.1739139
v 28.1347752 -3.9493978 55.8302078
vn -0.2262001 0.9525431 0.2037037
vt 0.7225700 0.3257186
v 11.2125540 7.0782185 -51.8290176
vn -0.0271917 0.9159246 0.4004283
vt 0.6450700 0.5217407
v 33.8986778 0.9163281 -1.5094907
vn -0.3993496 0.9142604 0.0681761
vt 0.6450700 0.5869579
v 3.3453715 2.0081263 -36.6305313
vn -0.5534676 0.8307678 0.0591489
vt 0.7225700 0.3478276
v 3.4997075 2.9898906 -49.9312859
vn 0.3654245 0.9013420 0.2324812
vt 0.7454988 0.5983342
v 16.1595802 1.0526079 -31.3007317
vn 0.2051284 0.9534815 0.2208968
vt 0.4309455 0.2822403
v 51.4117851 -6.9203515 10.9231501
vn 0.0773589 0.8719740 0.4834015
vt 0.5767577 0.3693818
v 45.6199760 -3.0826468 4.0979910
vn -0.3460577 0.8730407 -0.3435756
vt 0.5775000 0.2822403
v 49.1139603 5.6081886 -20.1067142
vn 0.6446837 0.6790330 -0.3511368
vt 0.6729639 0.1734742
v -33.0638733 1.3262786 -54.9083977
vn -0.2479399 0.9654244 0.0805080
vt 0.5387500 0.2498164
v 51.3512421 7.4815440 -13.5170116
vn -0.3233978 0.7562922 -0.5687143
vt 0.3534455 0.1952134
v 47.5611267 -0.6365675 -28.1944103
# 403 vertices, 0 vertices normals


usemtl material_0
f 10/10/10 2/2/2 63/63/63
f 13/13/13 4/4/4 3/3/3
f 359/359/359 12/12/12 10/10/10
f 21/21/21 18/18/18 20/20/20
f 23/23/23 16/16/16 22/22/22
f 26/26/26 7/7/7 6/6/6
f 23/23/23 22/22/22 25/25/25
f 26/26/26 23/23/23 98/98/98
f 32/32/32 7/7/7 99/99/99
f 30/30/30 24/24/24 29/29/29
f 43/43/43 34/34/34 151/151/151
f 46/46/46 36/36/36 35/35/35
f 360/360/360 45/45/45 43/43/43
f 54/54/54 51/51/51 53/53/53
f 56/56/56 54/54/54 59/59/59
f 61/61/61 39/39/39 60/60/60
f 61/61/61 40/40/40 39/39/39
f 62/62/62 40/40/40 61/61/61
f 2/2/2 59/59/59 63/63/63
f 7/7/7 60/60/60 6/6/6
f 8/8/8 61/61/61 7/7/7
f 72/72/72 65/65/65 124/124/124
f 361/361/361 74/74/74 72/72/72
f 83/83/83 80/80/80 82/82/82
f 85/85/85 78/78/78 84/84/84
f 89/89/89 68/68/68 86/86/86
f 85/85/85 84/84/84 88/88/88
f 214/214/214 86/86/86 85/85/85
f 89/89/89 86/86/86 214/214/214
f 93/93/93 87/87/87 92/92/92
f 95/95/95 28/28/28 401/401/401
f 100/100/100 8/8/8 32/32/32
f 100/100/100 9/9/9 8/8/8
f 103/103/103 101/101/101 102/102/102
f 105/105/105 95/95/95 101/101/101
f 110/110/110 103/103/103 104/104/104
f 112/112/112 105/105/105 109/109/109
f 113/113/113 111/111/111 112/112/112
f 115/115/115 109/109/109 114/114/114
f 118/118/118 112/112/112 115/115/115
f 121/121/121 106/106/106 120/120/120
f 117/117/117 115/115/115 116/116/116
f 123/123/123 32/32/32 108/108/108
f 65/65/65 117/117/117 124/124/124
f 66/66/66 118/118/118 65/65/65
f 67/67/67 121/121/121 120/120/120
f 68/68/68 122/122/122 67/67/67
f 69/69/69 123/123/123 68/68/68
f 70/70/70 123/123/123 69/69/69
f 71/71/71 42/42/42 217/217/217
f 132/132/132 126/126/126 180/180/180
f 135/135/135 127/127/127 403/403/403
f 363/363/363 134/134/134 132/132/132
f 143/143/143 140/140/140 142/142/142
f 145/145/145 370/370/370 144/144/144
f 145/145/145 144/144/144 147/147/147
f 147/147/147 143/143/143 150/150/150
f 34/34/34 150/150/150 151/151/151
f 38/38/38 397/397/397 37/37/37
f 62/62/62 131/131/131 40/40/40
f 42/42/42 290/290/290 41/41/41
f 161/161/161 153/153/153 329/329/329
f 164/164/164 155/155/155 154/154/154
f 364/364/364 163/163/163 161/161/161
f 172/172/172 169/169/169 171/171/171
f 128/128/128 176/176/176 173/173/173
f 179/179/179 157/157/157 176/176/176
f 380/380/380 158/158/158 179/179/179
f 131/131/131 159/159/159 130/130/130
f 41/41/41 160/160/160 131/131/131
f 188/188/188 182/182/182 241/241/241
f 365/365/365 190/190/190 188/188/188
f 199/199/199 196/196/196 198/198/198
f 201/201/201 194/194/194 200/200/200
f 205/205/205 185/185/185 202/202/202
f 201/201/201 200/200/200 204/204/204
f 275/275/275 202/202/202 201/201/201
f 205/205/205 202/202/202 275/275/275
f 209/209/209 203/203/203 208/208/208
f 211/211/211 91/91/91 93/93/93
f 213/213/213 214/214/214 94/94/94
f 216/216/216 70/70/70 69/69/69
f 218/218/218 93/93/93 219/219/219
f 220/220/220 218/218/218 219/219/219
f 222/222/222 211/211/211 218/218/218
f 228/228/228 220/220/220 221/221/221
f 230/230/230 222/222/222 227/227/227
f 223/223/223 229/229/229 230/230/230
f 232/232/232 227/227/227 231/231/231
f 235/235/235 230/230/230 232/232/232
f 238/238/238 224/224/224 237/237/237
f 234/234/234 232/232/232 233/233/233
f 383/383/383 216/216/216 226/226/226
f 240/240/240 216/216/216 383/383/383
f 182/182/182 234/234/234 241/241/241
f 183/183/183 235/235/235 182/182/182
f 184/184/184 238/238/238 237/237/237
f 185/185/185 239/239/239 184/184/184
f 186/186/186 383/383/383 185/185/185
f 187/187/187 240/240/240 186/186/186
f 249/249/249 243/243/243 302/302/302
f 366/366/366 251/251/251 249/249/249
f 260/260/260 257/257/257 259/259/259
f 262/262/262 255/255/255 261/261/261
f 266/266/266 300/300/300 263/263/263
f 262/262/262 261/261/261 265/265/265
f 333/333/333 263/263/263 262/262/262
f 266/266/266 263/263/263 333/333/333
f 247/247/247 246/246/246 334/334/334
f 270/270/270 264/264/264 269/269/269
f 272/272/272 207/207/207 209/209/209
f 274/274/274 275/275/275 210/210/210
f 277/277/277 187/187/187 186/186/186
f 278/278/278 209/209/209 279/279/279
f 280/280/280 278/278/278 279/279/279
f 282/282/282 272/272/272 278/278/278
f 288/288/288 280/280/280 281/281/281
f 291/291/291 282/282/282 287/287/287
f 283/283/283 289/289/289 291/291/291
f 293/293/293 287/287/287 292/292/292
f 296/296/296 291/291/291 293/293/293
f 299/299/299 284/284/284 298/298/298
f 295/295/295 293/293/293 294/294/294
f 301/301/301 277/277/277 286/286/286
f 243/243/243 295/295/295 302/302/302
f 244/244/244 296/296/296 243/243/243
f 245/245/245 299/299/299 298/298/298
f 246/246/246 301/301/301 300/300/300
f 247/247/247 301/301/301 246/246/246
f 310/310/310 304/304/304 358/358/358
f 368/368/368 312/312/312 310/310/310
f 321/321/321 318/318/318 320/320/320
f 324/324/324 321/321/321 328/328/328
f 153/153/153 328/328/328 329/329/329
f 159/159/159 308/308/308 158/158/158
f 330/330/330 268/268/268 270/270/270
f 332/332/332 333/333/333 271/271/271
f 337/337/337 270/270/270 338/338/338
f 339/339/339 337/337/337 338/338/338
f 341/341/341 330/330/330 337/337/337
f 346/346/346 339/339/339 340/340/340
f 348/348/348 341/341/341 345/345/345
f 342/342/342 347/347/347 348/348/348
f 350/350/350 345/345/345 349/349/349
f 353/353/353 348/348/348 350/350/350
f 352/352/352 350/350/350 351/351/351
f 357/357/357 335/335/335 356/356/356
f 304/304/304 352/352/352 358/358/358
f 305/305/305 353/353/353 304/304/304
f 306/306/306 343/343/343 355/355/355
f 323/323/323 356/356/356 306/306/306
f 326/326/326 357/357/357 323/323/323
f 307/307/307 357/357/357 326/326/326
f 309/309/309 336/336/336 307/307/307
f 10/10/10 63/63/63 1/1/1
f 12/12/12 2/2/2 10/10/10
f 10/10/10 1/1/1 11/11/11
f 16/16/16 4/4/4 13/13/13
f 5/5/5 4/4/4 16/16/16
f 15/15/15 11/11/11 14/14/14
f 18/18/18 12/12/12 359/359/359
f 13/13/13 12/12/12 18/18/18
f 6/6/6 5/5/5 16/16/16
f 15/15/15 14/14/14 17/17/17
f 22/22/22 13/13/13 18/18/18
f 16/16/16 13/13/13 22/22/22
f 6/6/6 16/16/16 23/23/23
f 15/15/15 17/17/17 19/19/19
f 359/359/359 15/15/15 20/20/20
f 18/18/18 359/359/359 20/20/20
f 22/22/22 18/18/18 21/21/21
f 20/20/20 19/19/19 372/372/372
f 21/21/21 20/20/20 372/372/372
f 22/22/22 21/21/21 25/25/25
f 26/26/26 6/6/6 23/23/23
f 25/25/25 21/21/21 389/389/389
f 23/23/23 25/25/25 31/31/31
f 7/7/7 26/26/26 99/99/99
f 8/8/8 7/7/7 32/32/32
f 24/24/24 27/27/27 29/29/29
f 31/31/31 25/25/25 28/28/28
f 98/98/98 23/23/23 31/31/31
f 43/43/43 151/151/151 33/33/33
f 45/45/45 34/34/34 43/43/43
f 43/43/43 33/33/33 44/44/44
f 49/49/49 36/36/36 46/46/46
f 37/37/37 36/36/36 49/49/49
f 48/48/48 44/44/44 47/47/47
f 51/51/51 45/45/45 360/360/360
f 46/46/46 45/45/45 51/51/51
f 57/57/57 37/37/37 49/49/49
f 48/48/48 47/47/47 50/50/50
f 49/49/49 46/46/46 393/393/393
f 48/48/48 50/50/50 52/52/52
f 360/360/360 48/48/48 53/53/53
f 51/51/51 360/360/360 53/53/53
f 57/57/57 395/395/395 38/38/38
f 53/53/53 52/52/52 373/373/373
f 54/54/54 53/53/53 373/373/373
f 4/4/4 396/396/396 3/3/3
f 395/395/395 57/57/57 55/55/55
f 59/59/59 58/58/58 63/63/63
f 56/56/56 59/59/59 2/2/2
f 55/55/55 396/396/396 4/4/4
f 60/60/60 5/5/5 6/6/6
f 61/61/61 60/60/60 7/7/7
f 62/62/62 61/61/61 8/8/8
f 9/9/9 62/62/62 8/8/8
f 41/41/41 62/62/62 9/9/9
f 42/42/42 41/41/41 9/9/9
f 72/72/72 124/124/124 64/64/64
f 74/74/74 65/65/65 72/72/72
f 66/66/66 65/65/65 74/74/74
f 72/72/72 64/64/64 73/73/73
f 75/75/75 66/66/66 74/74/74
f 77/77/77 73/73/73 76/76/76
f 80/80/80 74/74/74 361/361/361
f 75/75/75 74/74/74 80/80/80
f 86/86/86 67/67/67 78/78/78
f 68/68/68 67/67/67 86/86/86
f 77/77/77 76/76/76 79/79/79
f 84/84/84 75/75/75 80/80/80
f 77/77/77 79/79/79 81/81/81
f 361/361/361 77/77/77 82/82/82
f 80/80/80 361/361/361 82/82/82
f 84/84/84 80/80/80 83/83/83
f 86/86/86 78/78/78 85/85/85
f 82/82/82 81/81/81 375/375/375
f 83/83/83 82/82/82 375/375/375
f 84/84/84 83/83/83 88/88/88
f 69/69/69 68/68/68 89/89/89
f 88/88/88 83/83/83 390/390/390
f 85/85/85 88/88/88 94/94/94
f 69/69/69 89/89/89 215/215/215
f 87/87/87 90/90/90 92/92/92
f 91/91/91 390/390/390 93/93/93
f 94/94/94 88/88/88 91/91/91
f 214/214/214 85/85/85 94/94/94
f 95/95/95 401/401/401 101/101/101
f 96/96/96 28/28/28 95/95/95
f 97/97/97 31/31/31 96/96/96
f 362/362/362 9/9/9 100/100/100
f 42/42/42 9/9/9 362/362/362
f 107/107/107 98/98/98 97/97/97
f 99/99/99 26/26/26 98/98/98
f 103/103/103 102/102/102 104/104/104
f 105/105/105 101/101/101 103/103/103
f 111/111/111 95/95/95 105/105/105
f 96/96/96 95/95/95 111/111/111
f 107/107/107 97/97/97 106/106/106
f 108/108/108 99/99/99 107/107/107
f 32/32/32 99/99/99 108/108/108
f 109/109/109 103/103/103 110/110/110
f 105/105/105 103/103/103 109/109/109
f 97/97/97 96/96/96 111/111/111
f 109/109/109 110/110/110 114/114/114
f 111/111/111 105/105/105 112/112/112
f 97/97/97 111/111/111 113/113/113
f 106/106/106 97/97/97 113/113/113
f 108/108/108 107/107/107 121/121/121
f 112/112/112 109/109/109 115/115/115
f 106/106/106 113/113/113 120/120/120
f 107/107/107 106/106/106 121/121/121
f 115/115/115 114/114/114 116/116/116
f 118/118/118 115/115/115 117/117/117
f 120/120/120 113/113/113 119/119/119
f 108/108/108 121/121/121 122/122/122
f 123/123/123 108/108/108 122/122/122
f 100/100/100 32/32/32 123/123/123
f 362/362/362 100/100/100 123/123/123
f 117/117/117 116/116/116 124/124/124
f 118/118/118 117/117/117 65/65/65
f 119/119/119 118/118/118 66/66/66
f 67/67/67 120/120/120 374/374/374
f 122/122/122 121/121/121 67/67/67
f 123/123/123 122/122/122 68/68/68
f 217/217/217 362/362/362 70/70/70
f 42/42/42 362/362/362 217/217/217
f 290/290/290 42/42/42 71/71/71
f 132/132/132 180/180/180 125/125/125
f 132/132/132 125/125/125 133/133/133
f 138/138/138 127/127/127 135/135/135
f 128/128/128 127/127/127 138/138/138
f 137/137/137 133/133/133 136/136/136
f 140/140/140 134/134/134 363/363/363
f 135/135/135 134/134/134 140/140/140
f 146/146/146 128/128/128 138/138/138
f 379/379/379 128/128/128 146/146/146
f 137/137/137 136/136/136 139/139/139
f 144/144/144 135/135/135 140/140/140
f 138/138/138 135/135/135 144/144/144
f 146/146/146 138/138/138 370/370/370
f 137/137/137 139/139/139 141/141/141
f 363/363/363 137/137/137 142/142/142
f 140/140/140 363/363/363 142/142/142
f 144/144/144 140/140/140 143/143/143
f 129/129/129 379/379/379 146/146/146
f 142/142/142 141/141/141 376/376/376
f 143/143/143 142/142/142 376/376/376
f 144/144/144 143/143/143 147/147/147
f 129/129/129 146/146/146 148/148/148
f 145/145/145 147/147/147 35/35/35
f 130/130/130 129/129/129 377/377/377
f 150/150/150 149/149/149 151/151/151
f 147/147/147 150/150/150 34/34/34
f 145/145/145 35/35/35 36/36/36
f 37/37/37 148/148/148 36/36/36
f 39/39/39 377/377/377 38/38/38
f 130/130/130 377/377/377 40/40/40
f 131/131/131 130/130/130 40/40/40
f 41/41/41 131/131/131 62/62/62
f 161/161/161 329/329/329 152/152/152
f 163/163/163 153/153/153 161/161/161
f 161/161/161 152/152/152 162/162/162
f 167/167/167 155/155/155 164/164/164
f 156/156/156 155/155/155 167/167/167
f 166/166/166 162/162/162 165/165/165
f 169/169/169 163/163/163 364/364/364
f 164/164/164 163/163/163 169/169/169
f 174/174/174 156/156/156 167/167/167
f 394/394/394 156/156/156 174/174/174
f 166/166/166 165/165/165 168/168/168
f 174/174/174 167/167/167 371/371/371
f 166/166/166 168/168/168 170/170/170
f 364/364/364 166/166/166 171/171/171
f 169/169/169 364/364/364 171/171/171
f 157/157/157 394/394/394 174/174/174
f 171/171/171 170/170/170 378/378/378
f 172/172/172 171/171/171 378/378/378
f 400/400/400 172/172/172 175/175/175
f 157/157/157 174/174/174 176/176/176
f 179/179/179 176/176/176 128/128/128
f 158/158/158 157/157/157 179/179/179
f 173/173/173 403/403/403 127/127/127
f 179/179/179 128/128/128 379/379/379
f 129/129/129 380/380/380 379/379/379
f 159/159/159 158/158/158 380/380/380
f 160/160/160 159/159/159 131/131/131
f 290/290/290 160/160/160 41/41/41
f 188/188/188 241/241/241 181/181/181
f 190/190/190 182/182/182 188/188/188
f 183/183/183 182/182/182 190/190/190
f 188/188/188 181/181/181 189/189/189
f 191/191/191 183/183/183 190/190/190
f 193/193/193 189/189/189 192/192/192
f 196/196/196 190/190/190 365/365/365
f 191/191/191 190/190/190 196/196/196
f 202/202/202 184/184/184 194/194/194
f 185/185/185 184/184/184 202/202/202
f 193/193/193 192/192/192 195/195/195
f 200/200/200 191/191/191 196/196/196
f 193/193/193 195/195/195 197/197/197
f 365/365/365 193/193/193 198/198/198
f 196/196/196 365/365/365 198/198/198
f 200/200/200 196/196/196 199/199/199
f 202/202/202 194/194/194 201/201/201
f 198/198/198 197/197/197 382/382/382
f 199/199/199 198/198/198 382/382/382
f 200/200/200 199/199/199 204/204/204
f 186/186/186 185/185/185 205/205/205
f 204/204/204 199/199/199 391/391/391
f 201/201/201 204/204/204 210/210/210
f 186/186/186 205/205/205 276/276/276
f 203/203/203 206/206/206 208/208/208
f 207/207/207 391/391/391 209/209/209
f 210/210/210 204/204/204 207/207/207
f 275/275/275 201/201/201 210/210/210
f 93/93/93 92/92/92 219/219/219
f 211/211/211 93/93/93 218/218/218
f 212/212/212 91/91/91 211/211/211
f 213/213/213 94/94/94 212/212/212
f 215/215/215 89/89/89 214/214/214
f 216/216/216 69/69/69 215/215/215
f 217/217/217 70/70/70 216/216/216
f 213/213/213 212/212/212 223/223/223
f 225/225/225 214/214/214 213/213/213
f 215/215/215 214/214/214 225/225/225
f 220/220/220 219/219/219 221/221/221
f 222/222/222 218/218/218 220/220/220
f 229/229/229 211/211/211 222/222/222
f 212/212/212 211/211/211 229/229/229
f 224/224/224 213/213/213 223/223/223
f 225/225/225 213/213/213 224/224/224
f 226/226/226 215/215/215 225/225/225
f 216/216/216 215/215/215 226/226/226
f 227/227/227 220/220/220 228/228/228
f 222/222/222 220/220/220 227/227/227
f 223/223/223 212/212/212 229/229/229
f 227/227/227 228/228/228 231/231/231
f 229/229/229 222/222/222 230/230/230
f 226/226/226 225/225/225 238/238/238
f 230/230/230 227/227/227 232/232/232
f 224/224/224 223/223/223 237/237/237
f 225/225/225 224/224/224 238/238/238
f 232/232/232 231/231/231 233/233/233
f 235/235/235 232/232/232 234/234/234
f 237/237/237 223/223/223 236/236/236
f 226/226/226 238/238/238 239/239/239
f 383/383/383 226/226/226 239/239/239
f 217/217/217 216/216/216 240/240/240
f 234/234/234 233/233/233 241/241/241
f 235/235/235 234/234/234 182/182/182
f 236/236/236 235/235/235 183/183/183
f 184/184/184 237/237/237 381/381/381
f 239/239/239 238/238/238 184/184/184
f 383/383/383 239/239/239 185/185/185
f 217/217/217 240/240/240 187/187/187
f 71/71/71 217/217/217 187/187/187
f 249/249/249 302/302/302 242/242/242
f 251/251/251 243/243/243 249/249/249
f 244/244/244 243/243/243 251/251/251
f 249/249/249 242/242/242 250/250/250
f 252/252/252 244/244/244 251/251/251
f 254/254/254 250/250/250 253/253/253
f 257/257/257 251/251/251 366/366/366
f 252/252/252 251/251/251 257/257/257
f 263/263/263 245/245/245 255/255/255
f 300/300/300 245/245/245 263/263/263
f 254/254/254 253/253/253 256/256/256
f 261/261/261 252/252/252 257/257/257
f 254/254/254 256/256/256 258/258/258
f 366/366/366 254/254/254 259/259/259
f 257/257/257 366/366/366 259/259/259
f 261/261/261 257/257/257 260/260/260
f 263/263/263 255/255/255 262/262/262
f 259/259/259 258/258/258 385/385/385
f 260/260/260 259/259/259 385/385/385
f 261/261/261 260/260/260 265/265/265
f 246/246/246 300/300/300 266/266/266
f 265/265/265 260/260/260 392/392/392
f 262/262/262 265/265/265 271/271/271
f 246/246/246 266/266/266 334/334/334
f 264/264/264 267/267/267 269/269/269
f 268/268/268 392/392/392 270/270/270
f 271/271/271 265/265/265 268/268/268
f 333/333/333 262/262/262 271/271/271
f 209/209/209 208/208/208 279/279/279
f 272/272/272 209/209/209 278/278/278
f 273/273/273 207/207/207 272/272/272
f 274/274/274 210/210/210 273/273/273
f 276/276/276 205/205/205 275/275/275
f 277/277/277 186/186/186 276/276/276
f 367/367/367 187/187/187 277/277/277
f 71/71/71 187/187/187 367/367/367
f 274/274/274 273/273/273 283/283/283
f 285/285/285 275/275/275 274/274/274
f 276/276/276 275/275/275 285/285/285
f 280/280/280 279/279/279 281/281/281
f 282/282/282 278/278/278 280/280/280
f 289/289/289 272/272/272 282/282/282
f 273/273/273 272/272/272 289/289/289
f 284/284/284 274/274/274 283/283/283
f 285/285/285 274/274/274 284/284/284
f 286/286/286 276/276/276 285/285/285
f 277/277/277 276/276/276 286/286/286
f 287/287/287 280/280/280 288/288/288
f 282/282/282 280/280/280 287/287/287
f 283/283/283 273/273/273 289/289/289
f 287/287/287 288/288/288 292/292/292
f 289/289/289 282/282/282 291/291/291
f 286/286/286 285/285/285 299/299/299
f 291/291/291 287/287/287 293/293/293
f 284/284/284 283/283/283 298/298/298
f 285/285/285 284/284/284 299/299/299
f 293/293/293 292/292/292 294/294/294
f 296/296/296 293/293/293 295/295/295
f 298/298/298 283/283/283 297/297/297
f 286/286/286 299/299/299 300/300/300
f 301/301/301 286/286/286 300/300/300
f 367/367/367 277/277/277 301/301/301
f 295/295/295 294/294/294 302/302/302
f 296/296/296 295/295/295 243/243/243
f 297/297/297 296/296/296 244/244/244
f 245/245/245 298/298/298 384/384/384
f 300/300/300 299/299/299 245/245/245
f 248/248/248 367/367/367 247/247/247
f 71/71/71 367/367/367 248/248/248
f 290/290/290 71/71/71 248/248/248
f 310/310/310 358/358/358 303/303/303
f 312/312/312 304/304/304 310/310/310
f 305/305/305 304/304/304 312/312/312
f 310/310/310 303/303/303 311/311/311
f 313/313/313 305/305/305 312/312/312
f 306/306/306 369/369/369 316/316/316
f 315/315/315 311/311/311 314/314/314
f 318/318/318 312/312/312 368/368/368
f 313/313/313 312/312/312 318/318/318
f 323/323/323 306/306/306 316/316/316
f 315/315/315 314/314/314 317/317/317
f 323/323/323 316/316/316 325/325/325
f 315/315/315 317/317/317 319/319/319
f 368/368/368 315/315/315 320/320/320
f 318/318/318 368/368/368 320/320/320
f 398/398/398 318/318/318 321/321/321
f 325/325/325 316/316/316 399/399/399
f 320/320/320 319/319/319 387/387/387
f 321/321/321 320/320/320 387/387/387
f 326/326/326 323/323/323 325/325/325
f 322/322/322 324/324/324 154/154/154
f 307/307/307 326/326/326 388/388/388
f 308/308/308 307/307/307 388/388/388
f 328/328/328 327/327/327 329/329/329
f 324/324/324 328/328/328 153/153/153
f 322/322/322 154/154/154 155/155/155
f 326/326/326 325/325/325 394/394/394
f 157/157/157 388/388/388 394/394/394
f 308/308/308 388/388/388 158/158/158
f 290/290/290 309/309/309 160/160/160
f 270/270/270 269/269/269 338/338/338
f 330/330/330 270/270/270 337/337/337
f 331/331/331 268/268/268 330/330/330
f 332/332/332 271/271/271 331/331/331
f 334/334/334 266/266/266 333/333/333
f 335/335/335 247/247/247 334/334/334
f 332/332/332 331/331/331 342/342/342
f 344/344/344 333/333/333 332/332/332
f 334/334/334 333/333/333 344/344/344
f 339/339/339 338/338/338 340/340/340
f 341/341/341 337/337/337 339/339/339
f 347/347/347 330/330/330 341/341/341
f 331/331/331 330/330/330 347/347/347
f 343/343/343 332/332/332 342/342/342
f 344/344/344 332/332/332 343/343/343
f 335/335/335 334/334/334 344/344/344
f 345/345/345 339/339/339 346/346/346
f 341/341/341 339/339/339 345/345/345
f 342/342/342 331/331/331 347/347/347
f 335/335/335 344/344/344 356/356/356
f 345/345/345 346/346/346 349/349/349
f 347/347/347 341/341/341 348/348/348
f 348/348/348 345/345/345 350/350/350
f 343/343/343 342/342/342 355/355/355
f 356/356/356 344/344/344 343/343/343
f 350/350/350 349/349/349 351/351/351
f 353/353/353 350/350/350 352/352/352
f 355/355/355 342/342/342 354/354/354
f 336/336/336 335/335/335 357/357/357
f 352/352/352 351/351/351 358/358/358
f 353/353/353 352/352/352 304/304/304
f 354/354/354 353/353/353 305/305/305
f 306/306/306 355/355/355 386/386/386
f 356/356/356 343/343/343 306/306/306
f 357/357/357 356/356/356 323/323/323
f 336/336/336 357/357/357 307/307/307
f 248/248/248 336/336/336 309/309/309
f 290/290/290 248/248/248 309/309/309
f 15/15/15 359/359/359 11/11/11
f 48/48/48 360/360/360 44/44/44
f 3/3/3 56/56/56 2/2/2
f 77/77/77 361/361/361 73/73/73
f 75/75/75 374/374/374 66/66/66
f 137/137/137 363/363/363 133/133/133
f 370/370/370 138/138/138 144/144/144
f 35/35/35 147/147/147 34/34/34
f 166/166/166 364/364/364 162/162/162
f 371/371/371 167/167/167 402/402/402
f 193/193/193 365/365/365 189/189/189
f 191/191/191 381/381/381 183/183/183
f 254/254/254 366/366/366 250/250/250
f 252/252/252 384/384/384 244/244/244
f 315/315/315 368/368/368 311/311/311
f 154/154/154 324/324/324 153/153/153
f 313/313/313 386/386/386 305/305/305
f 12/12/12 3/3/3 2/2/2
f 13/13/13 3/3/3 12/12/12
f 359/359/359 10/10/10 11/11/11
f 20/20/20 15/15/15 19/19/19
f 31/31/31 28/28/28 96/96/96
f 45/45/45 35/35/35 34/34/34
f 46/46/46 35/35/35 45/45/45
f 360/360/360 43/43/43 44/44/44
f 53/53/53 48/48/48 52/52/52
f 5/5/5 55/55/55 4/4/4
f 361/361/361 72/72/72 73/73/73
f 78/78/78 75/75/75 84/84/84
f 82/82/82 77/77/77 81/81/81
f 94/94/94 91/91/91 212/212/212
f 362/362/362 123/123/123 70/70/70
f 363/363/363 132/132/132 133/133/133
f 146/146/146 370/370/370 148/148/148
f 142/142/142 137/137/137 141/141/141
f 148/148/148 370/370/370 145/145/145
f 148/148/148 145/145/145 36/36/36
f 163/163/163 154/154/154 153/153/153
f 164/164/164 154/154/154 163/163/163
f 364/364/364 161/161/161 162/162/162
f 174/174/174 371/371/371 176/176/176
f 171/171/171 166/166/166 170/170/170
f 176/176/176 371/371/371 173/173/173
f 128/128/128 173/173/173 127/127/127
f 159/159/159 380/380/380 130/130/130
f 365/365/365 188/188/188 189/189/189
f 194/194/194 191/191/191 200/200/200
f 198/198/198 193/193/193 197/197/197
f 210/210/210 207/207/207 273/273/273
f 366/366/366 249/249/249 250/250/250
f 255/255/255 252/252/252 261/261/261
f 259/259/259 254/254/254 258/258/258
f 271/271/271 268/268/268 331/331/331
f 367/367/367 301/301/301 247/247/247
f 368/368/368 310/310/310 311/311/311
f 320/320/320 315/315/315 319/319/319
f 156/156/156 399/399/399 155/155/155
f 24/24/24 372/372/372 27/27/27
f 59/59/59 373/373/373 58/58/58
f 75/75/75 78/78/78 374/374/374
f 87/87/87 375/375/375 90/90/90
f 150/150/150 376/376/376 149/149/149
f 40/40/40 377/377/377 39/39/39
f 178/178/178 378/378/378 177/177/177
f 130/130/130 380/380/380 129/129/129
f 191/191/191 194/194/194 381/381/381
f 203/203/203 382/382/382 206/206/206
f 252/252/252 255/255/255 384/384/384
f 264/264/264 385/385/385 267/267/267
f 313/313/313 369/369/369 386/386/386
f 328/328/328 387/387/387 327/327/327
f 158/158/158 388/388/388 157/157/157
f 372/372/372 19/19/19 27/27/27
f 389/389/389 372/372/372 24/24/24
f 389/389/389 21/21/21 372/372/372
f 25/25/25 389/389/389 28/28/28
f 389/389/389 24/24/24 401/401/401
f 373/373/373 52/52/52 58/58/58
f 54/54/54 373/373/373 59/59/59
f 375/375/375 81/81/81 90/90/90
f 390/390/390 375/375/375 87/87/87
f 390/390/390 83/83/83 375/375/375
f 88/88/88 390/390/390 91/91/91
f 390/390/390 87/87/87 93/93/93
f 120/120/120 119/119/119 374/374/374
f 67/67/67 374/374/374 78/78/78
f 376/376/376 141/141/141 149/149/149
f 143/143/143 376/376/376 150/150/150
f 148/148/148 397/397/397 129/129/129
f 378/378/378 170/170/170 177/177/177
f 172/172/172 378/378/378 178/178/178
f 379/379/379 380/380/380 179/179/179
f 382/382/382 197/197/197 206/206/206
f 391/391/391 382/382/382 203/203/203
f 391/391/391 199/199/199 382/382/382
f 204/204/204 391/391/391 207/207/207
f 391/391/391 203/203/203 209/209/209
f 237/237/237 236/236/236 381/381/381
f 184/184/184 381/381/381 194/194/194
f 240/240/240 383/383/383 186/186/186
f 385/385/385 258/258/258 267/267/267
f 392/392/392 385/385/385 264/264/264
f 392/392/392 260/260/260 385/385/385
f 265/265/265 392/392/392 268/268/268
f 392/392/392 264/264/264 270/270/270
f 298/298/298 297/297/297 384/384/384
f 245/245/245 384/384/384 255/255/255
f 387/387/387 319/319/319 327/327/327
f 321/321/321 387/387/387 328/328/328
f 394/394/394 388/388/388 326/326/326
f 355/355/355 354/354/354 386/386/386
f 306/306/306 386/386/386 369/369/369
f 374/374/374 119/119/119 66/66/66
f 381/381/381 236/236/236 183/183/183
f 384/384/384 297/297/297 244/244/244
f 386/386/386 354/354/354 305/305/305
f 51/51/51 393/393/393 46/46/46
f 54/54/54 393/393/393 51/51/51
f 56/56/56 393/393/393 54/54/54
f 394/394/394 325/325/325 156/156/156
f 60/60/60 39/39/39 395/395/395
f 38/38/38 37/37/37 57/57/57
f 39/39/39 38/38/38 395/395/395
f 60/60/60 395/395/395 5/5/5
f 55/55/55 5/5/5 395/395/395
f 99/99/99 98/98/98 107/107/107
f 322/322/322 398/398/398 324/324/324
f 57/57/57 49/49/49 393/393/393
f 57/57/57 393/393/393 396/396/396
f 397/397/397 148/148/148 37/37/37
f 156/156/156 325/325/325 399/399/399
f 98/98/98 31/31/31 97/97/97
f 396/396/396 56/56/56 3/3/3
f 377/377/377 397/397/397 38/38/38
f 399/399/399 322/322/322 155/155/155
f 397/397/397 377/377/377 129/129/129
f 56/56/56 396/396/396 393/393/393
f 398/398/398 321/321/321 324/324/324
f 57/57/57 396/396/396 55/55/55
f 398/398/398 313/313/313 318/318/318
f 369/369/369 313/313/313 398/398/398
f 398/398/398 316/316/316 369/369/369
f 322/322/322 399/399/399 398/398/398
f 399/399/399 316/316/316 398/398/398
f 119/119/119 113/113/113 112/112/112
f 236/236/236 223/223/223 230/230/230
f 297/297/297 283/283/283 291/291/291
f 119/119/119 112/112/112 118/118/118
f 236/236/236 230/230/230 235/235/235
f 297/297/297 291/291/291 296/296/296
f 354/354/354 342/342/342 348/348/348
f 354/354/354 348/348/348 353/353/353
f 336/336/336 248/248/248 247/247/247
f 336/336/336 247/247/247 335/335/335
f 309/309/309 307/307/307 308/308/308
f 160/160/160 309/309/309 308/308/308
f 160/160/160 308/308/308 159/159/159
f 173/173/173 371/371/371 400/400/400
f 400/400/400 402/402/402 172/172/172
f 101/101/101 30/30/30 102/102/102
f 126/126/126 178/178/178 180/180/180
f 403/403/403 175/175/175 126/126/126
f 134/134/134 126/126/126 132/132/132
f 126/126/126 134/134/134 403/403/403
f 173/173/173 400/400/400 403/403/403
f 30/30/30 29/29/29 102/102/102
f 178/178/178 177/177/177 180/180/180
f 101/101/101 401/401/401 30/30/30
f 175/175/175 172/172/172 178/178/178
f 28/28/28 389/389/389 401/401/401
f 402/402/402 167/167/167 164/164/164
f 175/175/175 178/178/178 126/126/126
f 371/371/371 402/402/402 400/400/400
f 401/401/401 24/24/24 30/30/30
f 169/169/169 402/402/402 164/164/164
f 402/402/402 169/169/169 172/172/172
f 403/403/403 400/400/400 175/175/175
f 135/135/135 403/403/403 134/134/134
# 724 faces, 0 coords texture

# End of File
