# Rhino

mtllib hemisphere.mtl
usemtl Custom
v 101.188500593041 9.6187286376953125 -15.690201916942414
v 90.124076078270491 9.5437498092651367 -19.692811169872101
v 78.297556112145003 9.4566402435302734 -21.92107502485257
v 65.412488172386702 9.4154453277587891 -21.75042072797757
v 112.00959319863182 9.4203500747680664 -9.6616603520010074
v 94.034447858665999 18.251605987548828 -12.313500561961945
v 83.533847997520979 18.245664596557617 -16.314477124461945
v 77.173310945366438 26.669921875 -11.171403088817414
v 55.055335233543929 21.287849426269531 -10.745453992137726
v 52.987242887352522 10.841275215148926 -18.126420178661164
v 42.005732724999007 8.1634254455566406 -15.277512707958039
v 130.19011230263573 6.3719611167907715 -1.1326228764150699
v 113.02767104897362 17.507572174072266 1.0944813105966489
v 103.69979400429588 18.061454772949219 -6.4742671635244449
v 83.571508596275862 32.881752014160156 -3.6724940922353824
v 71.400703380440291 33.450641632080078 -3.9710551884267886
v 59.919434736107405 29.783025741577148 -3.0969249394033511
v 32.772074888084944 10.667476654052734 -8.1848231937978824
v 139.13676757607328 6.5932130813598633 5.8983677241708676
v 131.26219100746971 12.244873046875 7.9653690669443051
v 122.7596618631826 17.794757843017578 9.6164997432138364
v 95.138449857567366 27.158903121948242 -2.9099666264150699
v 89.541175077293929 34.639785766601562 6.1061237666513364
v 49.048928449486311 25.032854080200195 -2.0331584599111636
v 38.232718656395491 20.61421012878418 -0.62658802534085112
v 27.828967283104475 17.941802978515625 1.5412510249521176
v 18.515837858055647 16.161886215209961 4.7736881587411801
v 147.03404540810453 5.7371792793273926 12.370680651416961
v 115.11473006996971 28.776529312133789 22.86758693193454
v 96.111304471825179 34.340625762939453 16.796339831104461
v 84.771795461510237 36.546836853027344 16.813174090137665
v 73.199586818550642 35.775493621826172 16.777182421436493
v 50.410412977074202 32.099967956542969 16.874346575489227
v 38.748759458397444 32.049819946289062 17.221865496387665
v 26.119849393700179 32.601402282714844 18.753382525196258
v 4.8189269999013504 22.218412399291992 20.995783648243133
v -2.6720474263681524 15.921408653259277 24.365252337207977
v 146.48727721962797 14.805566787719727 26.99814113115329
v 135.94074935707908 21.874639511108398 27.435686907520477
v 125.88674468788963 28.037017822265625 29.501154741993133
v 91.871127317284163 34.582740783691406 27.145872912159149
v 68.864772985313948 32.467987060546875 26.878584704151336
v 57.271994779442366 32.925617218017578 27.030844530811493
v 46.312737653587874 34.869831085205078 26.758803210010711
v 16.459201047752913 36.646575927734375 27.240919909229461
v 6.5261795023427567 31.534490585327148 28.692370257129852
v 163.31145019326078 8.1378068923950195 42.305199465503875
v 154.35032958779203 15.066326141357422 38.94086345170993
v 145.15680999550688 21.273500442504883 36.728712877979461
v 126.36383743080955 33.395961761474609 39.635268053760711
v 107.91546554360252 36.637630462646484 39.31970866655368
v 98.128020475243147 34.589187622070312 35.50342448686618
v 88.052576253746565 32.202999114990234 39.230551562061493
v 75.886042247150954 29.275117874145508 37.285502276172821
v 52.492238233421858 33.947311401367188 38.252959093799774
v 42.021311948631819 38.196193695068359 35.75039943193454
v 31.46153182778221 41.407634735107422 35.692255816211883
v 20.189303586815413 43.397670745849609 37.356631121387665
v 8.8955413797841629 39.300102233886719 36.727171740284149
v -1.4560516377939337 25.003326416015625 31.613169512500946
v -8.1098373433603399 17.507110595703125 34.573313555469696
v -14.272785951758777 9.3204889297485352 38.525904497852508
v 151.37197418007719 21.839389801025391 47.723152956714813
v 134.76662368569237 32.461555480957031 45.346012911548797
v 100.72338218483787 39.394905090332031 57.260842165699188
v 91.254466245506819 33.10028076171875 52.587511858692352
v 81.08250350746971 28.339166641235352 48.976918062915985
v 69.77304191384178 27.291397094726562 46.998085818042938
v 45.385894010399397 38.814098358154297 46.724072298755829
v 11.803134153221663 44.743598937988281 44.321835360279266
v 2.4400207499013788 40.993869781494141 47.58199008440036
v -0.39390258994237115 33.461456298828125 39.96676906084079
v -7.3583877583994024 26.072052001953125 42.586531481495086
v -17.599354555274402 11.182793617248535 49.606898150196258
v 159.54013366494047 15.093923568725586 50.085982165088836
v 156.68053741249906 21.633577346801758 59.278745493641082
v 148.40528411660063 28.396642684936523 56.910439333667938
v 139.23577804360258 34.151996612548828 54.524605593433563
v 121.54516143593651 43.121379852294922 57.281178316822235
v 110.45050735268455 44.301921844482422 61.863285860767547
v 93.297160337303694 36.418537139892578 64.694676241626922
v 73.300339172218855 27.010334014892578 58.600166163196747
v 28.899169156883772 48.889156341552734 56.03818019365329
v 18.43662948403221 50.729972839355469 59.642963251819793
v 8.6284591654286942 49.212375640869141 64.855121454944793
v -0.3880966207040899 43.255691528320312 58.903396448841278
v -12.851712038184559 22.99077033996582 52.246746859302704
v -20.916348268653309 8.2582321166992188 58.584660372486297
v 162.33303375038969 18.831794738769531 70.874521097889129
v 153.44597930703031 28.057100296020508 68.123652777424041
v 138.96197814736234 41.910171508789062 73.16021593545932
v 101.84796256813866 42.967147827148438 69.023617586841766
v 57.560801694725569 37.110591888427734 74.087267658462707
v 47.657557676170882 41.838397979736328 69.998197874775116
v 27.189913938377913 50.245269775390625 65.340629420032684
v 0.49336547646387885 44.174560546875 70.546851715793792
v -12.82974701132909 27.459112167358398 63.103049120655243
v 169.37106628212797 9.7459468841552734 77.108327469577972
v 163.82525939736234 17.991218566894531 83.575585207691375
v 152.06951446328031 33.921993255615234 87.431481203785125
v 142.64847106728422 42.395298004150391 85.887856325855438
v 121.53087157997948 49.402309417724609 77.341164908161346
v 112.78664703163963 50.362598419189453 84.727434954395477
v 102.83233947548729 45.800525665283203 81.224178633442108
v 67.897076795433577 33.809566497802734 77.764037689914886
v 50.048293302391585 42.835353851318359 81.33010848497409
v 39.915801236961897 46.782161712646484 77.824446043720428
v 29.735984037254866 49.816215515136719 74.906426331749145
v 3.3650924662099442 43.138961791992188 80.361817202320282
v -4.2674758931650274 37.190708160400391 78.268070063343231
v -16.689984132911121 19.670867919921875 72.152849755039398
v -20.27566986289159 10.649026870727539 78.916530451526825
v 163.99541015419828 15.999860763549805 95.962828478565399
v 153.71358032021391 31.212245941162109 99.21144565080661
v 141.99976653847563 44.831569671630859 99.103703341236297
v 114.76737518105369 52.627223968505859 95.817728838672821
v 106.67022437844139 51.662036895751953 103.82439120744723
v 94.000252912376936 42.811981201171875 89.657417139759247
v 82.490679452751692 38.422077178955078 90.724133333912079
v 63.863231847618636 41.588657379150391 95.324431261768524
v 52.911191175316389 43.8343505859375 92.030300936451141
v 31.138827512596663 47.770511627197266 86.535366854419891
v 21.559439847801741 44.945140838623047 92.549738726368133
v 11.452094266747054 38.918621063232422 95.360670885791961
v 2.4369613626943476 30.641923904418945 97.860802492847625
v -6.0104263326181524 29.968528747558594 87.088930926075165
v -18.858029176856434 9.7064113616943359 89.262648424854461
v 152.6513473490225 28.992036819458008 110.85557445024509
v 147.99776000771391 37.946292877197266 106.10557254289645
v 126.22233886513573 53.109237670898438 109.83928569292087
v 116.93977660927635 54.036567687988281 107.32044108842868
v 96.408280561302718 47.515789031982422 101.07070430254001
v 56.352824399803694 44.496070861816406 102.2972954127695
v 44.883460233543929 44.246406555175781 99.95863803361911
v 32.725077817772444 43.442825317382812 98.704785189380829
v 21.538066099022444 39.085441589355469 101.88121112321872
v 12.361518094872054 33.685981750488281 102.95435985063571
v -6.9417694112314337 23.262523651123047 95.538513979664032
v -13.326123048926746 15.925548553466797 94.289345583667938
v 163.46622772011625 11.075231552124023 108.12141688798923
v 156.69848937783109 19.234540939331055 114.95644267534274
v 145.91042632851469 35.816303253173828 117.69443400835056
v 132.45306701454979 49.627399444580078 116.8130367610361
v 120.7607604959951 52.711139678955078 119.15074809526462
v 109.31756133828026 53.529407501220703 115.20643504594821
v 81.290225694511946 49.048873901367188 121.04354365800876
v 58.859305570457991 44.239162445068359 112.9798076960947
v 49.390353391502913 39.037227630615234 118.39884456132907
v 40.097830961082991 40.483139038085938 109.17086680864352
v 29.858126829002913 36.80462646484375 109.55204280351657
v 19.657378385399397 31.817573547363281 110.35798915361423
v 9.2112762430654129 27.073932647705078 108.71899302934665
v -0.16166382041112115 22.169862747192383 105.89002116655368
v -2.6452606221689337 14.314752578735352 113.45972331499118
v 159.73604888710844 9.5505657196044922 119.36167796587009
v 149.58638305458891 26.228343963623047 122.05440791582126
v 137.76990814003813 41.627059936523438 123.26843150590915
v 128.39580840859276 46.516178131103516 126.92922481035251
v 119.52357406411033 49.719264984130859 129.42267497514743
v 102.0230781534658 52.086582183837891 133.85420115922946
v 71.669953058098372 46.159130096435547 128.20102961992282
v 54.596661756371077 37.064655303955078 127.9983509395029
v 45.797282407616194 32.050979614257812 127.51352961992282
v 35.482047269676741 26.659774780273438 127.19805415605563
v 24.736361692284163 21.571290969848633 127.06736644243259
v 16.975135038231429 24.271747589111328 118.11162837480563
v 132.10806579384666 37.247142791748047 133.33206065629977
v 122.59945602211815 42.852626800537109 136.27854045366306
v 92.725379178856429 50.471931457519531 140.64756663774509
v 65.062621305321272 36.251766204833984 143.74111064409274
v 54.319884488915022 31.775615692138672 137.29601176713962
v 43.388631055687483 24.91224479675293 136.36815532182712
v 21.375823209618147 14.029204368591309 135.86368068193454
v 13.972083280418929 16.560495376586914 126.51352199052829
v 132.64507598671776 16.259181976318359 145.92188151811618
v 104.22142333779198 46.947013854980469 144.06923564409274
v 74.783178279732283 38.752388000488281 150.57676585649509
v 66.909574697350081 30.544706344604492 154.09468730424899
v 58.660172651146468 29.540363311767578 147.17204173540134
v 40.179591367577132 17.293991088867188 145.62065013383884
v 133.43913955483299 7.5671939849853516 150.43157084917087
v 125.06334991249901 11.499275207519531 154.57901652788181
v 107.4714652994619 28.189666748046875 157.65604289506931
v 88.016523549889143 29.141252517700195 162.31753428911227
v 76.790621230934676 30.763978958129883 159.66554149126071
v 57.889561841820296 23.39927864074707 155.34722026323337
v 47.585232923363264 16.513067245483398 154.74268229936618
v 29.67293090615135 12.055997848510742 145.01877482866306
v 107.43118591103416 17.620834350585938 162.59517558549899
v 90.280485341881331 19.501754760742188 166.49220927690524
v 80.136860082481917 21.138994216918945 166.16905101274509
v 68.233159253929671 21.224946975708008 163.1386097285654
v 46.456383893822249 8.7472686767578125 162.92555125688571
v 86.216589162682112 10.854557991027832 170.37388499712009
v 64.763384054039534 10.337983131408691 168.88886912797946
v 55.210307309959944 7.6972203254699707 167.95456584428806
v 175.52454681191313 0.11740971356630325 71.269001564731781
v 175.11061401162016 0.058687001466751099 82.907375178089325
v 173.34323425087797 0.0082359500229358673 94.40991862749118
v 170.19803161415922 -0.033676952123641968 105.80629046892184
v 166.36500854287016 -0.0066462433896958828 115.69410975908298
v 161.47882385048734 0.14063504338264465 125.65997966264743
v 155.16549224648344 0.23444671928882599 135.30079921220798
v 148.18471069130766 0.087423212826251984 143.02721293901462
v 139.95800323281156 -0.14562499523162842 150.2058704707529
v 131.1217109659658 -0.15502256155014038 156.86523326372165
v 122.83243865761619 0.022290118038654327 162.30093272661227
v 113.39374084267479 0.18488675355911255 167.22009166215915
v 102.75299758705955 0.23110513389110565 171.08962138628024
v 92.357840726707991 0.20341779291629791 173.38500865434665
v 81.263161847923811 0.20745785534381866 174.61312755083102
v 70.433626363609847 0.31667137145996094 174.78764232133884
v 59.659406850670393 0.54593092203140259 173.86797221635837
v 48.20401115212303 0.72624194622039795 171.3473499629404
v 37.633883664940413 0.51766353845596313 167.34125407670993
v 27.718825528954085 0.11926516145467758 162.23184855913181
v 17.063941190575179 -0.045840751379728317 155.40422709917087
v 7.3871261576161942 0.11232952773571014 147.65035136674899
v -0.8505447408212774 0.21616718173027039 139.19062694047946
v -8.5833175679697149 0.22850549221038818 128.89251216386813
v -14.851460268165027 0.33706200122833252 118.12142451738376
v -19.710339357520496 0.47921666502952576 107.07379420732516
v -23.011410524512684 0.44284683465957642 95.69466098283786
v -24.687603761817371 0.30367404222488403 84.618533930530731
v -25.15231781211034 0.22366538643836975 74.043219274630729
v -24.606945802832996 0.21914102137088776 63.367826304187957
v -22.85959320273534 0.24471645057201385 52.420220217457
v -20.031132509375965 0.24324347078800201 42.409592470874969
v -15.84433441367284 0.22589807212352753 32.09638102983493
v -10.51169281211034 0.25771021842956543 22.032645067920868
v -3.9610870381845587 0.31369855999946594 12.42969401811618
v 3.3962738016591629 0.28691229224205017 4.1176441523935239
v 12.897795865868147 0.13657470047473907 -4.1277782108877261
v 23.590308378075179 0.013807467184960842 -11.348084607372101
v 34.295321653221663 0.15513437986373901 -17.215500989208039
v 46.324094007347639 0.41807839274406433 -22.244164624461945
v 58.375851819847639 0.45555257797241211 -25.26549641157132
v 71.582036683891829 0.35324767231941223 -26.46782795454007
v 84.715201566551741 0.30501976609230042 -25.938195386180695
v 96.980895231102522 0.25153288245201111 -23.827920117626007
v 108.36502380165916 0.090811803936958313 -20.31060139204007
v 118.53253478798729 -0.054353144019842148 -15.93456379438382
v 129.04611511025291 -0.039492376148700714 -10.125710644969757
v 138.73512954506742 0.21033045649528503 -3.4050761845205386
v 147.43571014199125 0.42795708775520325 4.3091114375497739
v 155.36989898476469 0.43054956197738647 13.530638537159149
v 161.93918151650297 0.40831181406974792 23.336489519825165
v 167.51638335976469 0.40527194738388062 34.229800066700165
v 171.82226867470609 0.34247595071792603 46.248980364551727
v 174.50593108925688 0.21381635963916779 58.944572291126434
v 169.19713897499906 9.0739412307739258 88.506063303699676
v 168.03452605996 7.6927881240844727 98.952353319873993
v 152.79712219033109 16.471096038818359 125.80444224809665
v 148.40693969521391 10.722332000732422 135.71950419878024
v 134.37723083290916 26.410696029663086 138.70091136430759
v 155.52092284951078 7.8809714317321777 128.63436778520602
v 144.83275909218656 22.053434371948242 132.16319926713962
v 140.76925201210844 8.7267227172851562 143.91976817583102
v 140.30865020546781 17.224512100219727 139.3087757441904
v 116.63784332070213 20.431270599365234 156.00656016801852
v 116.0119811991201 10.155232429504395 161.42848094438571
v 107.36103744301658 8.4633750915527344 166.39756663774509
v 97.806105802391585 11.800701141357422 168.23313029741306
v 36.781291196678694 9.0315303802490234 155.79575999712009
v 26.367018888329085 5.8332562446594238 152.60783275102634
v 18.340705106590804 6.9043750762939453 144.93856700395602
v 9.6123382547841629 8.2166309356689453 135.71994670366306
v 0.1084091166005976 5.8847460746765137 129.88258632158298
v 3.9948074320302567 12.167135238647461 123.98267253374118
v -5.7437103292001837 7.1010894775390625 120.49341853593845
v -11.468289186622059 7.9295969009399414 110.42037471269626
v -16.216145326758777 8.4408779144287109 100.09072383379001
v -21.103642275000965 9.910466194152832 68.312955221882049
v -9.5320861836923712 8.8384542465209961 28.667929491748993
v -4.5388610860361212 7.7342920303344727 19.799143633594696
v 2.8467742899404413 11.152425765991211 13.47754558061618
v 11.497157285545882 19.064393997192383 11.999926409473602
v 11.209696958397444 9.3789091110229492 4.3764713618661801
v 21.317374418114241 9.0655956268310547 -2.8296367313955386
v 121.57925720009666 5.8131213188171387 -7.5548793461416324
v 152.14859313759672 7.2753744125366211 21.357287249317352
v 157.94509429726469 8.0069818496704102 31.393565020313446
v 167.32922668251859 7.9793586730957031 53.821348986377899
v 169.01114196572172 8.9217567443847656 65.833449206104461
v 37.730834195946272 44.267631530761719 53.064570269336883
v 53.469933698509749 34.776756286621094 51.367369494190399
v 95.128150174950179 44.485740661621094 151.11174663042087
v 61.804227063988264 33.403968811035156 16.639029345264618
v 118.79595870766502 46.905673980712891 67.231967291584198
v 84.131146619652327 30.078287124633789 61.184339365711395
v 9.2254058817372879 47.765895843505859 53.846993288746063
v 114.73337859902244 40.450950622558594 144.20654185747165
v 10.328578183983382 48.020259857177734 75.942056379070465
v 35.140376279686507 36.399776458740234 26.461851916065399
v 158.74926299843656 22.015674591064453 103.66528209184665
v 144.1591598490225 35.247779846191406 65.160634836902801
v 32.487883756493147 26.639509201049805 8.7953403804208676
v 128.90149230751854 37.839015960693359 50.636887392749969
v 124.63584823403221 33.474987030029297 142.19156535600681
v 106.31101341042381 38.399589538574219 151.86491282915134
v 6.8644897440419754 19.531150817871094 116.22432597612399
v 14.208190152977522 28.600460052490234 19.059538683643524
v -13.843891908790027 20.307806015014648 84.458439669361297
v 65.210318754051741 31.317939758300781 66.849745115986053
v 72.211919734810408 18.440162658691406 -17.335007825145539
v 91.123367498253401 52.219158172607422 128.97744639848727
v 112.49560088906151 48.434730529785156 136.64255794023532
v 69.926586339806136 46.007152557373047 116.82908519243259
v 11.488093564842757 44.485244750976562 86.439077219715301
v 75.985919664238509 30.008676528930664 69.905455431690399
v 133.78645629677635 40.492904663085938 61.440259775867645
v 88.358664701317366 48.274517059326172 110.15511592363376
v 59.976552198265608 30.240781784057617 45.611588320484344
v 134.45496673378807 50.140621185302734 104.8084152552988
v 66.11651057991844 35.200531005859375 6.2107075068857114
v 74.905481497381743 41.393623352050781 98.485586962452118
v 38.03330917153221 34.057952880859375 118.38341029619235
v 148.45776672158109 35.3677978515625 76.469895920505706
v 134.24785156044823 49.351119995117188 92.561627230396454
v 98.759583661888655 31.035930633544922 7.1357487056161801
v 62.655097196434554 30.081050872802734 55.869685015430633
v 100.77822036537987 53.075130462646484 122.70883067583102
v 77.994898746346053 36.980228424072266 6.0252064082528989
v 20.508025358055647 49.092227935791016 81.793813547840301
v 80.517425248955306 33.308761596679688 27.466662249317352
v 87.075666616295393 25.235530853271484 -9.7204219486806949
v 54.843693921898421 31.611398696899414 6.6450336787607114
v 104.30724639687401 48.6695556640625 92.62868197893161
v 81.809141347740706 49.070816040039062 134.25642283891696
v 67.162842939232405 44.286884307861328 105.83358081316013
v 55.307027051781233 35.709461212158203 63.009738764515106
v 141.83869476113188 11.288968086242676 15.879664263477508
v 37.341395566795882 41.955387115478516 43.26736720537204
v 2.4058563211904413 37.529582977294922 88.363252482166473
v 97.198725889061507 34.802131652832031 158.11936076616306
v 98.954184720848616 51.295124053955078 111.68466456865329
v 94.738682935570296 39.895797729492188 76.723923048725311
v 46.214045713280257 40.584651947021484 58.546731791248504
v 43.695891568993147 28.43553352355957 7.4379108760263364
v 110.9558402994619 47.615283966064453 73.533246359577362
v 50.145508954857405 23.835121154785156 145.82697185014743
v 87.729140470360335 37.346187591552734 82.471606096973602
v 99.062014768456038 36.118080139160156 45.878344378223602
v 135.46844787392479 27.358119964599609 36.528620562305633
v 65.962524602745589 25.517248153686523 -10.992493787059601
v 110.89400787148338 52.879688262939453 126.29798396562595
v 61.283012578819807 42.368446350097656 122.95712932085056
v 86.154793928001936 33.727081298828125 72.444321832409088
v 78.502516935204085 33.875324249267578 80.650673708667938
v 78.001065919731673 45.757072448730469 108.92583354448337
v 124.70328063759666 22.910821914672852 19.686930498829071
v 61.694057653282698 17.3648681640625 -16.487733044872101
v 118.49694747719627 38.144199371337891 45.149882158985321
v 73.067903468941267 43.656272888183594 139.75467570756931
v -8.6589630147470587 15.690627098083496 103.5858753535654
v -12.495625307227527 17.638116836547852 43.605471453418915
v 71.207631776665266 37.049942016601562 88.430504641285125
v 104.67697639260155 33.664093017578125 26.86068995927829
v -6.7275741597665899 33.95953369140625 52.763884386768524
v 25.64390487465721 38.797164916992188 28.358267626514618
v 63.886672208641585 29.937202453613281 36.495207628956024
v 121.34529800209862 11.78010368347168 -0.14773670698147612
v 85.717058370445784 38.489547729492188 155.63276561235446
v 83.408952901695784 45.899795532226562 146.23625834917087
v 27.510340879295882 29.194408416748047 118.51259501909274
v 41.73933715615135 46.113666534423828 89.644003710498993
v -17.474118044043934 17.251623153686523 60.572606882801239
v 157.05570525917875 26.848697662353516 79.373904070606415
v 21.636740873192366 24.535226821899414 10.509001574268524
v 56.810233304832991 15.506466865539551 162.34915812944431
v 19.708728025291975 48.042316436767578 48.940169176807586
v 163.25377959999906 14.739072799682617 60.361732325306122
v 44.546069333885725 16.456888198852539 -9.7041103031728824
v -7.2589233418954962 36.715431213378906 66.1823690745737
v 158.81217498574125 25.055055618286133 91.436911425342743
v 98.462170789574202 23.95146369934082 163.26191600297946
v 124.9923278788076 23.188571929931641 147.98544963335056
v 18.850291440819319 51.178031921386719 70.747391066303436
v 86.013058851097639 43.640373229980469 99.914599261036102
v 32.711463163231429 19.211099624633789 136.01216395830173
v 114.39526290688377 23.583003997802734 12.011545977344696
v -11.101887514258777 28.960783004760742 75.492326102009002
v 132.44563598427635 47.736488342285156 80.875324091663543
v 37.400443265770491 46.533390045166016 65.237686953296844
v 60.401810834740218 38.982765197753906 84.92422755693454
v 142.83809966835844 27.671234130859375 46.061365923633758
v 116.1836006144033 33.353031158447266 33.53415187334079
v 63.359254072044905 39.803451538085938 133.57572444414157
v 141.08716888222563 44.3243408203125 111.7328365657236
v 134.35671157631737 17.021282196044922 17.99017985795993
v 106.07209129128319 29.805644989013672 15.103232226123993
v 125.31751556191307 53.001201629638672 99.342863878956024
v 49.564204404686507 43.104717254638672 108.97325786088962
v 75.09258092436653 11.42995548248291 170.09593089555759
v 148.18580932412016 38.812419891357422 95.179652056446258
v 105.41926498207908 24.761318206787109 3.7137592646982114
v 91.64231796059471 51.195915222167969 118.99301036333102
v 109.88272781166893 40.192634582519531 50.990469774952118
v 128.51877136025291 45.877517700195312 69.053361735096161
v 29.146601865624007 45.994083404541016 45.26795085405368
v 123.79956359658104 51.588779449462891 88.223133883228485
v 116.10939712319237 30.841764450073242 150.30660136674899
v 141.51039428505766 32.169269561767578 128.86704524492282
vn -0.33628320693969727 -0.58970314264297485 0.73427772521972656
vn -0.22270624339580536 -0.51400488615036011 0.82837241888046265
vn -0.069721028208732605 -0.46363401412963867 0.88327938318252563
vn 0.10279787331819534 -0.46655899286270142 0.87849605083465576
vn -0.39642339944839478 -0.67318230867385864 0.62423878908157349
vn -0.35155174136161804 -0.5930861234664917 0.72433429956436157
vn -0.18844695389270782 -0.54483681917190552 0.81709277629852295
vn -0.063616789877414703 -0.65792626142501831 0.75039052963256836
vn 0.32896974682807922 -0.66757118701934814 0.66792786121368408
vn 0.27451410889625549 -0.53530240058898926 0.79880744218826294
vn 0.35875004529953003 -0.55862951278686523 0.74781781435012817
vn -0.38815134763717651 -0.73913222551345825 0.55047446489334106
vn -0.45529988408088684 -0.72071319818496704 0.52275657653808594
vn -0.44875556230545044 -0.65620326995849609 0.6066429615020752
vn -0.22353273630142212 -0.81889426708221436 0.52862584590911865
vn 0.12400563806295395 -0.85564905405044556 0.50248116254806519
vn 0.3317018449306488 -0.81516349315643311 0.47484982013702393
vn 0.39081576466560364 -0.61161744594573975 0.68788599967956543
vn -0.43428385257720947 -0.74846267700195312 0.50119978189468384
vn -0.41004350781440735 -0.75762230157852173 0.50781172513961792
vn -0.40538305044174194 -0.7687498927116394 0.4946596622467041
vn -0.4252469539642334 -0.72194927930831909 0.54585188627243042
vn -0.29724583029747009 -0.91931915283203125 0.25787046551704407
vn 0.36728945374488831 -0.7762482762336731 0.51238375902175903
vn 0.33325210213661194 -0.72486883401870728 0.602916419506073
vn 0.33256131410598755 -0.65553474426269531 0.67799496650695801
vn 0.42079249024391174 -0.58972066640853882 0.68932080268859863
vn -0.50084269046783447 -0.73993349075317383 0.44906023144721985
vn -0.34222045540809631 -0.85236728191375732 0.39541774988174438
vn -0.26561060547828674 -0.95697540044784546 0.11682947725057602
vn -0.058993037790060043 -0.99490904808044434 -0.081705778837203979
vn 0.12866301834583282 -0.97795814275741577 -0.16444976627826691
vn 0.06115114688873291 -0.98080480098724365 0.18515533208847046
vn 0.02082568034529686 -0.91585791110992432 0.40096202492713928
vn 0.1208503320813179 -0.81897079944610596 0.56096524000167847
vn 0.60685306787490845 -0.54868125915527344 0.57504624128341675
vn 0.71616536378860474 -0.47425082325935364 0.51204818487167358
vn -0.52721303701400757 -0.73662155866622925 0.42359775304794312
vn -0.44024354219436646 -0.77417266368865967 0.45479920506477356
vn -0.34920737147331238 -0.82189363241195679 0.45005008578300476
vn 0.0092363124713301659 -0.99555450677871704 -0.093733310699462891
vn 0.042356491088867188 -0.96865648031234741 -0.24476628005504608
vn -0.11200401932001114 -0.9932326078414917 -0.030725514516234398
vn -0.17132982611656189 -0.96061146259307861 0.2187960147857666
vn 0.28489631414413452 -0.78373390436172485 0.55190145969390869
vn 0.55235612392425537 -0.63575369119644165 0.53918451070785522
vn -0.68298578262329102 -0.67359471321105957 0.28248995542526245
vn -0.61659866571426392 -0.70513361692428589 0.35013234615325928
vn -0.53361821174621582 -0.74509716033935547 0.40010228753089905
vn -0.31865400075912476 -0.84361433982849121 0.43217408657073975
vn 0.037101250141859055 -0.96481311321258545 0.26030579209327698
vn 0.13372203707695007 -0.98825526237487793 0.073958836495876312
vn 0.26910704374313354 -0.95793408155441284 -0.099717795848846436
vn 0.10903342813253403 -0.96503031253814697 -0.23838672041893005
vn -0.38531434535980225 -0.92147558927536011 0.049148678779602051
vn -0.3229338526725769 -0.91492164134979248 0.24214071035385132
vn -0.20827938616275787 -0.90347713232040405 0.37463149428367615
vn 0.086152613162994385 -0.89498573541641235 0.43769648671150208
vn 0.44147011637687683 -0.76112693548202515 0.47517362236976624
vn 0.6993330717086792 -0.52282440662384033 0.48742982745170593
vn 0.78149008750915527 -0.44779181480407715 0.43446028232574463
vn 0.83521240949630737 -0.40701878070831299 0.36980527639389038
vn -0.6170189380645752 -0.71593970060348511 0.32667720317840576
vn -0.43789675831794739 -0.8035738468170166 0.40313208103179932
vn 0.40218004584312439 -0.88790625333786011 0.22332429885864258
vn 0.45312440395355225 -0.88852387666702271 0.07213602215051651
vn 0.26720196008682251 -0.96212095022201538 -0.054096072912216187
vn -0.11711328476667404 -0.99115496873855591 -0.062420248985290527
vn -0.45838469266891479 -0.87312251329421997 0.16595330834388733
vn 0.30986976623535156 -0.86246514320373535 0.40016818046569824
vn 0.57021450996398926 -0.73468643426895142 0.36754757165908813
vn 0.66367650032043457 -0.60686379671096802 0.43732115626335144
vn 0.77930116653442383 -0.4932367205619812 0.38653233647346497
vn 0.88240760564804077 -0.39174613356590271 0.260560542345047
vn -0.68706053495407104 -0.67465609312057495 0.26979053020477295
vn -0.69243365526199341 -0.67758595943450928 0.24781619012355804
vn -0.60911339521408081 -0.73056447505950928 0.3086363673210144
vn -0.50179225206375122 -0.78765124082565308 0.35750526189804077
vn -0.13074347376823425 -0.91882145404815674 0.37238863110542297
vn 0.20390169322490692 -0.9312514066696167 0.30198490619659424
vn 0.51979511976242065 -0.83699321746826172 0.17104198038578033
vn -0.038752950727939606 -0.99063825607299805 0.13089689612388611
vn -0.24923604726791382 -0.95152992010116577 0.18020057678222656
vn 0.039411570876836777 -0.98945671319961548 0.13936346769332886
vn 0.35887303948402405 -0.93337005376815796 0.0055165220983326435
vn 0.62414091825485229 -0.76549655199050903 0.15640690922737122
vn 0.85688996315002441 -0.44845995306968689 0.25421097874641418
vn 0.91697520017623901 -0.3716048002243042 0.14514262974262238
vn -0.77295196056365967 -0.62093675136566162 0.13031813502311707
vn -0.6897352933883667 -0.68982994556427002 0.21999979019165039
vn -0.52300947904586792 -0.8131679892539978 0.25537997484207153
vn 0.44557258486747742 -0.87272030115127563 0.19956047832965851
vn -0.435435950756073 -0.86963319778442383 0.23266635835170746
vn -0.47219988703727722 -0.86651611328125 0.16179341077804565
vn -0.20469123125076294 -0.97728472948074341 0.054918847978115082
vn 0.59114736318588257 -0.79585146903991699 -0.13101626932621002
vn 0.87130427360534668 -0.48541569709777832 0.072114452719688416
vn -0.83214449882507324 -0.55443340539932251 0.011796092614531517
vn -0.82573282718658447 -0.56399035453796387 -0.0089528057724237442
vn -0.74823760986328125 -0.66056382656097412 0.061610862612724304
vn -0.60761690139770508 -0.77963429689407349 0.15156540274620056
vn -0.062339875847101212 -0.97138619422912598 0.22917822003364563
vn 0.20435579121112823 -0.96153163909912109 0.18356357514858246
vn 0.42838793992996216 -0.88592338562011719 0.1778300553560257
vn -0.234386146068573 -0.92192500829696655 0.30841121077537537
vn -0.38530248403549194 -0.90901964902877808 0.15882456302642822
vn -0.32396671175956726 -0.9455605149269104 0.030998559668660164
vn -0.18816486001014709 -0.98017001152038574 -0.062134847044944763
vn 0.52408856153488159 -0.78079849481582642 -0.34012478590011597
vn 0.70723539590835571 -0.64800989627838135 -0.28266805410385132
vn 0.89204156398773193 -0.44686537981033325 -0.067625299096107483
vn 0.89220452308654785 -0.43949207663536072 -0.10400886088609695
vn -0.84768486022949219 -0.50837612152099609 -0.15160498023033142
vn -0.81558388471603394 -0.56966972351074219 -0.10148531198501587
vn -0.64040529727935791 -0.76795530319213867 0.011211629956960678
vn 0.14215990900993347 -0.97951900959014893 0.14259395003318787
vn 0.24767152965068817 -0.95596009492874146 0.15747731924057007
vn 0.41240155696868896 -0.87050634622573853 0.26859578490257263
vn 0.20092017948627472 -0.90413028001785278 0.37706694006919861
vn -0.1902090311050415 -0.93571358919143677 0.29708689451217651
vn -0.22281290590763092 -0.96671587228775024 0.12575703859329224
vn -0.064374737441539764 -0.97055625915527344 -0.23211297392845154
vn 0.20643995702266693 -0.875163733959198 -0.43757396936416626
vn 0.41969683766365051 -0.74926108121871948 -0.51231080293655396
vn 0.55189979076385498 -0.66783469915390015 -0.49940308928489685
vn 0.70945966243743896 -0.59683918952941895 -0.37476658821105957
vn 0.84192073345184326 -0.49845105409622192 -0.20667868852615356
vn -0.82390356063842773 -0.50450605154037476 -0.25817933678627014
vn -0.7733420729637146 -0.61669081449508667 -0.14708651602268219
vn -0.23906579613685608 -0.96850079298019409 -0.069668732583522797
vn 0.027109894901514053 -0.99929195642471313 0.026088589802384377
vn 0.31248149275779724 -0.91016656160354614 0.27194133400917053
vn -0.026252198964357376 -0.99874359369277954 0.042685810476541519
vn 0.05491265282034874 -0.98399430513381958 -0.16952815651893616
vn 0.12396880984306335 -0.91569393873214722 -0.38227778673171997
vn 0.29816892743110657 -0.79202264547348022 -0.53272455930709839
vn 0.42612886428833008 -0.71619623899459839 -0.55269986391067505
vn 0.6856810450553894 -0.60596358776092529 -0.40329849720001221
vn 0.76853221654891968 -0.55432063341140747 -0.31951037049293518
vn -0.84350115060806274 -0.45659181475639343 -0.28289520740509033
vn -0.82797229290008545 -0.44879850745201111 -0.33621692657470703
vn -0.75697416067123413 -0.55181992053985596 -0.34997832775115967
vn -0.46606120467185974 -0.84083366394042969 -0.27529197931289673
vn -0.20216706395149231 -0.9568866491317749 -0.20855799317359924
vn 0.072897374629974365 -0.99697953462600708 0.02679230272769928
vn 0.24647010862827301 -0.96388775110244751 0.10086064040660858
vn 0.18740564584732056 -0.97233408689498901 -0.13944722712039948
vn 0.34712398052215576 -0.84949225187301636 -0.39732593297958374
vn 0.25291943550109863 -0.87967276573181152 -0.40275004506111145
vn 0.29379984736442566 -0.8018571138381958 -0.52029496431350708
vn 0.36860790848731995 -0.73515456914901733 -0.56892526149749756
vn 0.46230342984199524 -0.69503289461135864 -0.55064034461975098
vn 0.56579160690307617 -0.65632504224777222 -0.49911653995513916
vn 0.57382261753082275 -0.67032313346862793 -0.4705258309841156
vn -0.81591212749481201 -0.42598474025726318 -0.39092761278152466
vn -0.77939635515213013 -0.45428693294525146 -0.43146806955337524
vn -0.62081843614578247 -0.63513642549514771 -0.45954999327659607
vn -0.46503978967666626 -0.74563199281692505 -0.4772534966468811
vn -0.33894369006156921 -0.84462422132492065 -0.414399653673172
vn -0.080810874700546265 -0.96294355392456055 -0.25731173157691956
vn 0.37933516502380371 -0.91399717330932617 -0.14392377436161041
vn 0.45446082949638367 -0.80233114957809448 -0.38694971799850464
vn 0.43580222129821777 -0.76999795436859131 -0.46602523326873779
vn 0.38684245944023132 -0.75859183073043823 -0.52430081367492676
vn 0.3702332079410553 -0.75861316919326782 -0.53612816333770752
vn 0.39995265007019043 -0.73007547855377197 -0.55410075187683105
vn -0.55758261680603027 -0.54315197467803955 -0.62776392698287964
vn -0.47196239233016968 -0.64181655645370483 -0.60441958904266357
vn 0.067869074642658234 -0.93664312362670898 -0.343647301197052
vn 0.5213390588760376 -0.74326479434967041 -0.4192410409450531
vn 0.51550585031509399 -0.74865633249282837 -0.41685420274734497
vn 0.46053031086921692 -0.75146204233169556 -0.47245809435844421
vn 0.37488552927970886 -0.77733534574508667 -0.50518375635147095
vn 0.41532072424888611 -0.7502138614654541 -0.51447826623916626
vn -0.56255412101745605 -0.41548293828964233 -0.71477746963500977
vn -0.27591270208358765 -0.79609555006027222 -0.53861308097839355
vn 0.40540951490402222 -0.72664123773574829 -0.55464911460876465
vn 0.45122799277305603 -0.67354172468185425 -0.58543562889099121
vn 0.52753347158432007 -0.71884012222290039 -0.45274418592453003
vn 0.45374110341072083 -0.75850903987884521 -0.46774253249168396
vn -0.55353349447250366 -0.43099310994148254 -0.71263289451599121
vn -0.53895735740661621 -0.40923932194709778 -0.73623919486999512
vn -0.41188180446624756 -0.43631473183631897 -0.79998928308486938
vn -0.01270717941224575 -0.49247658252716064 -0.87023293972015381
vn 0.25699812173843384 -0.59482133388519287 -0.76166892051696777
vn 0.46479043364524841 -0.67575347423553467 -0.57212507724761963
vn 0.46429377794265747 -0.70638662576675415 -0.53427451848983765
vn 0.38421592116355896 -0.7833748459815979 -0.48857137560844421
vn -0.38093674182891846 -0.37132376432418823 -0.84676200151443481
vn -0.10079225897789001 -0.38751712441444397 -0.91633588075637817
vn 0.081057965755462646 -0.44672277569770813 -0.89099287986755371
vn 0.29612097144126892 -0.5540124773979187 -0.77806335687637329
vn 0.36262896656990051 -0.67158651351928711 -0.64612054824829102
vn -0.069651007652282715 -0.36134237051010132 -0.92982816696166992
vn 0.1925521045923233 -0.51375418901443481 -0.83605039119720459
vn 0.26095113158226013 -0.59044480323791504 -0.76372736692428589
vn -0.83225256204605103 -0.5534292459487915 0.032736413180828094
vn -0.85565584897994995 -0.512684166431427 -0.070767253637313843
vn -0.86033385992050171 -0.47752842307090759 -0.17830388247966766
vn -0.84956556558609009 -0.45198178291320801 -0.27193906903266907
vn -0.82912278175354004 -0.43454113602638245 -0.3517518937587738
vn -0.79223674535751343 -0.41837087273597717 -0.44421476125717163
vn -0.72070062160491943 -0.41704648733139038 -0.55377143621444702
vn -0.62005674839019775 -0.42934849858283997 -0.65665024518966675
vn -0.56036996841430664 -0.43870788812637329 -0.70251041650772095
vn -0.53407979011535645 -0.42562249302864075 -0.73048222064971924
vn -0.48480233550071716 -0.39545831084251404 -0.78011500835418701
vn -0.38883498311042786 -0.35604676604270935 -0.84972822666168213
vn -0.27379736304283142 -0.32906359434127808 -0.9037434458732605
vn -0.15051306784152985 -0.32912290096282959 -0.93221455812454224
vn -0.03968951478600502 -0.36030817031860352 -0.93198859691619873
vn 0.065437808632850647 -0.43420377373695374 -0.89843475818634033
vn 0.15405604243278503 -0.52681010961532593 -0.83590537309646606
vn 0.25496363639831543 -0.63071519136428833 -0.73293375968933105
vn 0.33349668979644775 -0.71620577573776245 -0.61304914951324463
vn 0.35383781790733337 -0.76776266098022461 -0.53417164087295532
vn 0.35762518644332886 -0.79243725538253784 -0.49411273002624512
vn 0.39926406741142273 -0.78962403535842896 -0.46592071652412415
vn 0.4780755341053009 -0.76879996061325073 -0.42472395300865173
vn 0.55852919816970825 -0.72843915224075317 -0.39676389098167419
vn 0.64424240589141846 -0.67344051599502563 -0.36253219842910767
vn 0.73762881755828857 -0.60421407222747803 -0.30137872695922852
vn 0.82618522644042969 -0.52460765838623047 -0.20543788373470306
vn 0.8864092230796814 -0.45006301999092102 -0.10826786607503891
vn 0.91957008838653564 -0.39277952909469604 -0.01073075458407402
vn 0.92885470390319824 -0.35874846577644348 0.092349879443645477
vn 0.9097743034362793 -0.36176371574401855 0.20356264710426331
vn 0.86867392063140869 -0.38763600587844849 0.30845412611961365
vn 0.82103294134140015 -0.41368028521537781 0.39341267943382263
vn 0.76570314168930054 -0.43976211547851562 0.46936976909637451
vn 0.6973310112953186 -0.46643966436386108 0.54420900344848633
vn 0.60117334127426147 -0.4968433678150177 0.62588918209075928
vn 0.50165927410125732 -0.5309942364692688 0.68292248249053955
vn 0.42756369709968567 -0.55712103843688965 0.7119026780128479
vn 0.3822249174118042 -0.5477568507194519 0.74422210454940796
vn 0.29613834619522095 -0.50591623783111572 0.81015485525131226
vn 0.16290092468261719 -0.46052151918411255 0.87257277965545654
vn 0.018152529373764992 -0.43250957131385803 0.90144658088684082
vn -0.11555911600589752 -0.46896219253540039 0.87562578916549683
vn -0.22712115943431854 -0.53998905420303345 0.81044912338256836
vn -0.31572020053863525 -0.62006700038909912 0.71821844577789307
vn -0.34640941023826599 -0.68420696258544922 0.64176428318023682
vn -0.3648466169834137 -0.72346216440200806 0.58607971668243408
vn -0.40601518750190735 -0.73704856634140015 0.54028791189193726
vn -0.47806209325790405 -0.73508316278457642 0.48073837161064148
vn -0.54409700632095337 -0.72544896602630615 0.42152374982833862
vn -0.60264891386032104 -0.70774883031845093 0.36865413188934326
vn -0.6692231297492981 -0.67839616537094116 0.30318155884742737
vn -0.7355310320854187 -0.6417815089225769 0.21704979240894318
vn -0.79118949174880981 -0.59844702482223511 0.12601730227470398
vn -0.85312050580978394 -0.51136374473571777 -0.10340441763401031
vn -0.85386663675308228 -0.47638911008834839 -0.20967882871627808
vn -0.76930338144302368 -0.42031902074813843 -0.48114886879920959
vn -0.6701619029045105 -0.41777589917182922 -0.61347073316574097
vn -0.5770946741104126 -0.43026235699653625 -0.69414412975311279
vn -0.76084870100021362 -0.41862776875495911 -0.49584275484085083
vn -0.6737823486328125 -0.42153355479240417 -0.60689932107925415
vn -0.58129549026489258 -0.42723444104194641 -0.69250726699829102
vn -0.59463340044021606 -0.4138769805431366 -0.68928730487823486
vn -0.50905323028564453 -0.40201088786125183 -0.761086106300354
vn -0.45798397064208984 -0.37792620062828064 -0.80462568998336792
vn -0.34730395674705505 -0.3522065281867981 -0.86909753084182739
vn -0.22215408086776733 -0.34818723797798157 -0.91072124242782593
vn 0.40223002433776855 -0.75040596723556519 -0.52450156211853027
vn 0.36870062351226807 -0.78621417284011841 -0.49591037631034851
vn 0.37106665968894958 -0.79183405637741089 -0.48508590459823608
vn 0.42675650119781494 -0.77253419160842896 -0.47018060088157654
vn 0.50467592477798462 -0.74769353866577148 -0.43157458305358887
vn 0.49570709466934204 -0.72669482231140137 -0.4755934476852417
vn 0.57489591836929321 -0.70304816961288452 -0.41859042644500732
vn 0.66609674692153931 -0.63805156946182251 -0.38627108931541443
vn 0.76474177837371826 -0.56578713655471802 -0.30830982327461243
vn 0.92072165012359619 -0.3894176185131073 0.025011101737618446
vn 0.782012939453125 -0.43464130163192749 0.44670203328132629
vn 0.7261236310005188 -0.4584689736366272 0.51239699125289917
vn 0.63659244775772095 -0.49705156683921814 0.58965224027633667
vn 0.50619357824325562 -0.57117778062820435 0.64616096019744873
vn 0.52484941482543945 -0.53134423494338989 0.6649860143661499
vn 0.43210113048553467 -0.57457625865936279 0.69509047269821167
vn -0.37779542803764343 -0.71351367235183716 0.59005832672119141
vn -0.55033218860626221 -0.72771108150482178 0.40935441851615906
vn -0.61318320035934448 -0.70359647274017334 0.35910773277282715
vn -0.74522775411605835 -0.6367221474647522 0.19804167747497559
vn -0.79706072807312012 -0.59309393167495728 0.11372676491737366
vn -0.43059298396110535 -0.88200074434280396 0.19147944450378418
vn -0.506969153881073 -0.85260438919067383 0.12668101489543915
vn -0.079067528247833252 -0.74752604961395264 -0.65950971841812134
vn 0.15086400508880615 -0.98716354370117188 -0.052423175424337387
vn -0.0087034953758120537 -0.95690268278121948 0.29027834534645081
vn 0.37254375219345093 -0.91630500555038452 0.14695683121681213
vn 0.34225675463676453 -0.9020695686340332 0.26292732357978821
vn -0.45966330170631409 -0.60323011875152588 -0.65178453922271729
vn 0.34605404734611511 -0.90785539150238037 -0.23673857748508453
vn -0.13030783832073212 -0.90369099378585815 0.40787553787231445
vn -0.84113508462905884 -0.50147819519042969 -0.20251266658306122
vn -0.58224350214004517 -0.75928348302841187 0.29065629839897156
vn 0.20445364713668823 -0.78344434499740601 0.58686769008636475
vn -0.34231120347976685 -0.8520735502243042 0.39597180485725403
vn -0.53846269845962524 -0.48129045963287354 -0.69167721271514893
vn -0.39462804794311523 -0.57602620124816895 -0.71586489677429199
vn 0.48172685503959656 -0.70368397235870361 -0.52227205038070679
vn 0.41331714391708374 -0.66981953382492065 0.61685550212860107
vn 0.81924653053283691 -0.51743954420089722 -0.24716687202453613
vn -0.33756610751152039 -0.90977185964584351 0.24158695340156555
vn 0.027796439826488495 -0.54436469078063965 0.83838802576065063
vn 0.16979853808879852 -0.98482596874237061 -0.035864017903804779
vn -0.31623339653015137 -0.81493139266967773 -0.48567813634872437
vn 0.21169796586036682 -0.97694277763366699 0.02769039012491703
vn 0.37416717410087585 -0.82986080646514893 -0.41392019391059875
vn 0.049864593893289566 -0.95901733636856079 0.27892518043518066
vn -0.42502281069755554 -0.83513611555099487 0.34914645552635193
vn 0.2314503937959671 -0.93355429172515869 0.27369159460067749
vn -0.38967892527580261 -0.92085069417953491 0.013577867299318314
vn -0.46792536973953247 -0.88343393802642822 -0.024297146126627922
vn 0.23946452140808105 -0.96332669258117676 0.12107216566801071
vn 0.012951618060469627 -0.92380142211914062 0.38265290856361389
vn 0.34731575846672058 -0.78469407558441162 -0.51344621181488037
vn -0.66315001249313354 -0.72436511516571045 0.18848668038845062
vn -0.42531606554985046 -0.89551913738250732 0.13096445798873901
vn -0.4291495680809021 -0.83630061149597168 0.34122127294540405
vn -0.39745017886161804 -0.90834879875183105 0.13013778626918793
vn 0.086387254297733307 -0.99601101875305176 0.022346042096614838
vn -0.013988913036882877 -0.98930490016937256 0.14518997073173523
vn 0.1213710829615593 -0.95380431413650513 -0.2748207151889801
vn 0.11780063062906265 -0.95824354887008667 -0.26056158542633057
vn -0.29552569985389709 -0.63752239942550659 0.71149826049804688
vn 0.28434672951698303 -0.92981249094009399 0.23365722596645355
vn 0.36110153794288635 -0.91356289386749268 0.18710555136203766
vn 0.31455963850021362 -0.93425983190536499 -0.16796056926250458
vn 0.0015131812542676926 -0.98026502132415771 0.19768215715885162
vn -0.49522203207015991 -0.85023075342178345 0.17850160598754883
vn -0.47307884693145752 -0.75179362297058105 0.4593503475189209
vn -0.37634396553039551 -0.89199846982955933 0.25040748715400696
vn 0.5618245005607605 -0.69327437877655029 -0.45135781168937683
vn -0.18747580051422119 -0.52997952699661255 -0.82702755928039551
vn 0.20899119973182678 -0.95906895399093628 0.19107431173324585
vn 0.50906962156295776 -0.83837103843688965 0.19488988816738129
vn -0.49769741296768188 -0.85320776700973511 0.15599308907985687
vn 0.22784125804901123 -0.87552857398986816 0.42607292532920837
vn 0.23156681656837463 -0.94801419973373413 0.21827927231788635
vn 0.51727056503295898 -0.72995173931121826 -0.44676801562309265
vn 0.38464856147766113 -0.88086259365081787 0.27591043710708618
vn 0.29176062345504761 -0.94480854272842407 0.1490388810634613
vn -0.44015565514564514 -0.78710448741912842 0.43212217092514038
vn 0.1887747049331665 -0.67410439252853394 0.71410602331161499
vn -0.11791495233774185 -0.97155821323394775 -0.20535516738891602
vn 0.37496426701545715 -0.89230895042419434 -0.25136932730674744
vn 0.39511975646018982 -0.88832426071166992 0.23400948941707611
vn 0.11878691613674164 -0.93807810544967651 0.32542139291763306
vn 0.13773451745510101 -0.9512399435043335 0.27599227428436279
vn -0.38377580046653748 -0.79935199022293091 0.4623337984085083
vn 0.20156992971897125 -0.56358629465103149 0.80108678340911865
vn -0.13677969574928284 -0.91182273626327515 0.38713130354881287
vn 0.45579469203948975 -0.82638263702392578 -0.33067047595977783
vn 0.67314010858535767 -0.60794878005981445 -0.42104712128639221
vn 0.83594918251037598 -0.42472979426383972 0.34755367040634155
vn -0.1172465980052948 -0.92103606462478638 0.37141057848930359
vn -0.16791628301143646 -0.96331721544265747 0.20934198796749115
vn 0.77362900972366333 -0.57338941097259521 0.26967149972915649
vn -0.016411613672971725 -0.87176418304443359 0.48965081572532654
vn -0.18208032846450806 -0.96767723560333252 -0.17449209094047546
vn -0.40089941024780273 -0.73424112796783447 0.54787737131118774
vn 0.14034828543663025 -0.65731245279312134 -0.74043416976928711
vn 0.28084996342658997 -0.83572095632553101 -0.471904456615448
vn 0.35244825482368469 -0.75234198570251465 -0.55656242370605469
vn -0.14921589195728302 -0.98459655046463013 -0.091127708554267883
vn 0.90385895967483521 -0.40984582901000977 0.12274103611707687
vn -0.76670730113983154 -0.63454002141952515 0.097565039992332458
vn 0.33068743348121643 -0.679146409034729 0.65529072284698486
vn 0.35913032293319702 -0.61514472961425781 -0.7018706202507019
vn 0.039811495691537857 -0.95052647590637207 0.30808183550834656
vn -0.74245911836624146 -0.63971072435379028 0.19880804419517517
vn 0.37367931008338928 -0.65236866474151611 0.65937769412994385
vn 0.78680044412612915 -0.61707013845443726 -0.013017706573009491
vn -0.82078582048416138 -0.56868988275527954 -0.053874257951974869
vn -0.23423689603805542 -0.40219974517822266 -0.88508105278015137
vn -0.55856311321258545 -0.41621348261833191 -0.71747720241546631
vn 0.068027123808860779 -0.99449479579925537 -0.079701721668243408
vn 0.23464033007621765 -0.90162193775177002 0.36334800720214844
vn 0.39218655228614807 -0.76981806755065918 -0.50355714559555054
vn -0.43387970328330994 -0.78601628541946411 0.44037127494812012
vn 0.82971525192260742 -0.52919352054595947 -0.17755798995494843
vn -0.37101006507873535 -0.90283924341201782 0.21733108162879944
vn -0.40146425366401672 -0.90920627117156982 0.11031980067491531
vn -0.3365044891834259 -0.89793884754180908 0.28367331624031067
vn -0.53235030174255371 -0.75938159227371216 0.37408924102783203
vn -0.22593875229358673 -0.89169090986251831 0.39222317934036255
vn 0.49453264474868774 -0.80533492565155029 -0.32691448926925659
vn -0.66997611522674561 -0.7131354808807373 -0.20632432401180267
vn -0.43083995580673218 -0.76875782012939453 0.4726397693157196
vn -0.41956436634063721 -0.85128837823867798 0.31507748365402222
vn -0.17519474029541016 -0.98047435283660889 0.089313320815563202
vn 0.19474145770072937 -0.94931638240814209 -0.24672682583332062
vn 0.08500884473323822 -0.42363458871841431 -0.90183550119400024
vn -0.73390239477157593 -0.67910057306289673 0.014481279067695141
vn -0.49541565775871277 -0.73748546838760376 0.45899727940559387
vn 0.20143121480941772 -0.96625286340713501 0.16056419909000397
vn 0.13980190455913544 -0.94142270088195801 0.30688554048538208
vn -0.28916114568710327 -0.90944242477416992 0.2988315224647522
vn -0.23483791947364807 -0.92171895503997803 0.30868324637413025
vn -0.11346835643053055 -0.97697532176971436 0.18067702651023865
vn -0.51694273948669434 -0.46384119987487793 -0.7194591760635376
vn -0.66365796327590942 -0.48809421062469482 -0.566852867603302
f 3//3 305//305 4//4
f 14//14 1//1 5//5
f 2//2 7//7 3//3
f 6//6 7//7 2//2
f 7//7 305//305 3//3
f 345//345 305//305 8//8
f 9//9 352//352 345//345
f 280//280 12//12 362//362
f 21//21 362//362 20//20
f 5//5 280//280 362//362
f 6//6 14//14 22//22
f 15//15 16//16 8//8
f 25//25 373//373 24//24
f 10//10 373//373 11//11
f 14//14 396//396 22//22
f 24//24 9//9 17//17
f 26//26 25//25 297//297
f 18//18 26//26 279//279
f 27//27 26//26 369//369
f 27//27 278//278 279//279
f 332//332 28//28 281//281
f 332//332 390//390 20//20
f 332//332 20//20 19//19
f 23//23 320//320 30//30
f 315//315 32//32 288//288
f 327//327 339//339 24//24
f 339//339 327//327 33//33
f 277//277 278//278 27//27
f 277//277 369//369 302//302
f 277//277 302//302 36//36
f 276//276 36//36 37//37
f 278//278 277//277 276//276
f 37//37 275//275 276//276
f 351//351 39//39 40//40
f 41//41 31//31 30//30
f 32//32 42//42 288//288
f 33//33 288//288 43//43
f 34//34 297//297 339//339
f 35//35 302//302 369//369
f 46//46 36//36 302//302
f 37//37 61//61 274//274
f 282//282 48//48 38//38
f 282//282 38//38 281//281
f 48//48 49//49 38//38
f 39//39 49//49 344//344
f 358//358 387//387 51//51
f 325//325 41//41 53//53
f 54//54 53//53 67//67
f 57//57 56//56 333//333
f 45//45 46//46 302//302
f 283//283 47//47 249//249
f 283//283 75//75 47//47
f 75//75 48//48 47//47
f 344//344 49//49 386//386
f 50//50 64//64 298//298
f 51//51 52//52 358//358
f 54//54 67//67 68//68
f 70//70 71//71 59//59
f 72//72 73//73 60//60
f 61//61 73//73 356//356
f 73//73 61//61 60//60
f 62//62 356//356 74//74
f 77//77 386//386 63//63
f 298//298 311//311 79//79
f 289//289 80//80 79//79
f 286//286 313//313 321//321
f 58//58 371//371 70//70
f 86//86 359//359 71//71
f 359//359 72//72 71//71
f 367//367 74//74 87//87
f 250//250 284//284 283//283
f 75//75 372//372 76//76
f 372//372 283//283 284//284
f 76//76 90//90 77//77
f 310//310 82//82 290//290
f 304//304 331//331 321//321
f 384//384 338//338 94//94
f 95//95 83//83 384//384
f 84//84 371//371 83//83
f 359//359 97//97 87//87
f 97//97 367//367 87//87
f 273//273 367//367 111//111
f 367//367 273//273 88//88
f 89//89 98//98 99//99
f 383//383 319//319 401//401
f 92//92 104//104 337//337
f 348//348 349//349 310//310
f 109//109 293//293 309//309
f 97//97 382//382 111//111
f 112//112 111//111 303//303
f 99//99 251//251 113//113
f 101//101 319//319 383//383
f 401//401 103//103 102//102
f 118//118 104//104 328//328
f 342//342 119//119 349//349
f 106//106 385//385 121//121
f 107//107 122//122 108//108
f 123//123 324//324 122//122
f 123//123 124//124 309//309
f 124//124 125//125 334//334
f 334//334 110//110 109//109
f 127//127 303//303 139//139
f 252//252 251//251 199//199
f 140//140 113//113 252//252
f 295//295 375//375 113//113
f 114//114 129//129 395//395
f 132//132 328//328 117//117
f 122//122 135//135 123//123
f 303//303 138//138 139//139
f 272//272 139//139 355//355
f 295//295 141//141 128//128
f 295//295 113//113 140//140
f 128//128 129//129 114//114
f 314//314 143//143 130//130
f 131//131 145//145 117//117
f 393//393 147//147 148//148
f 134//134 393//393 149//149
f 135//135 149//149 150//150
f 137//137 151//151 152//152
f 153//153 125//125 152//152
f 154//154 355//355 153//153
f 271//271 272//272 355//355
f 355//355 138//138 153//153
f 155//155 141//141 140//140
f 156//156 142//142 128//128
f 156//156 128//128 141//141
f 389//389 143//143 314//314
f 322//322 346//346 160//160
f 347//347 147//147 308//308
f 317//317 163//163 164//164
f 165//165 164//164 380//380
f 301//301 154//154 153//153
f 154//154 301//301 269//269
f 154//154 270//270 271//271
f 253//253 256//256 254//254
f 257//257 254//254 259//259
f 403//403 257//257 255//255
f 159//159 158//158 168//168
f 146//146 329//329 161//161
f 177//177 170//170 354//354
f 163//163 171//171 172//172
f 301//301 174//174 269//269
f 256//256 203//203 254//254
f 403//403 167//167 157//157
f 167//167 299//299 168//168
f 169//169 176//176 287//287
f 354//354 364//364 177//177
f 179//179 171//171 170//170
f 173//173 266//266 267//267
f 267//267 174//174 173//173
f 269//269 267//267 268//268
f 259//259 255//255 257//257
f 377//377 175//175 182//182
f 258//258 175//175 259//259
f 402//402 260//260 183//183
f 292//292 300//300 176//176
f 364//364 363//363 177//177
f 178//178 186//186 179//179
f 187//187 180//180 341//341
f 188//188 180//180 264//264
f 266//266 173//173 188//188
f 218//218 267//267 266//266
f 182//182 261//261 260//260
f 189//189 183//183 260//260
f 263//263 376//376 189//189
f 335//335 376//376 184//184
f 192//192 186//186 178//178
f 264//264 187//187 193//193
f 266//266 188//188 265//265
f 262//262 189//189 261//261
f 376//376 263//263 190//190
f 194//194 190//190 263//263
f 191//191 394//394 192//192
f 370//370 195//195 196//196
f 370//370 187//187 186//186
f 194//194 394//394 191//191
f 394//394 195//195 192//192
f 242//242 243//243 280//280
f 242//242 280//280 5//5
f 241//241 5//5 1//1
f 241//241 242//242 5//5
f 243//243 244//244 12//12
f 244//244 245//245 19//19
f 243//243 12//12 280//280
f 238//238 239//239 3//3
f 10//10 237//237 4//4
f 239//239 2//2 3//3
f 1//1 240//240 241//241
f 2//2 239//239 240//240
f 4//4 237//237 238//238
f 4//4 238//238 3//3
f 248//248 249//249 47//47
f 248//248 47//47 282//282
f 197//197 98//98 284//284
f 250//250 197//197 284//284
f 249//249 250//250 283//283
f 197//197 198//198 98//98
f 244//244 19//19 12//12
f 28//28 245//245 246//246
f 19//19 245//245 28//28
f 282//282 247//247 248//248
f 247//247 282//282 281//281
f 246//246 247//247 281//281
f 246//246 281//281 28//28
f 237//237 10//10 236//236
f 11//11 236//236 10//10
f 235//235 236//236 11//11
f 235//235 18//18 234//234
f 18//18 235//235 11//11
f 234//234 18//18 279//279
f 279//279 278//278 233//233
f 233//233 234//234 279//279
f 232//232 233//233 278//278
f 232//232 278//278 276//276
f 231//231 232//232 276//276
f 275//275 231//231 276//276
f 275//275 230//230 231//231
f 275//275 274//274 230//230
f 274//274 275//275 37//37
f 229//229 274//274 62//62
f 228//228 62//62 74//74
f 274//274 229//229 230//230
f 228//228 229//229 62//62
f 74//74 227//227 228//228
f 88//88 227//227 74//74
f 226//226 88//88 273//273
f 88//88 226//226 227//227
f 225//225 226//226 273//273
f 112//112 225//225 273//273
f 224//224 225//225 112//112
f 198//198 199//199 251//251
f 251//251 252//252 113//113
f 252//252 200//200 140//140
f 200//200 252//252 199//199
f 200//200 201//201 140//140
f 201//201 155//155 140//140
f 155//155 201//201 202//202
f 202//202 256//256 155//155
f 256//256 202//202 203//203
f 204//204 254//254 203//203
f 204//204 258//258 254//254
f 205//205 258//258 204//204
f 258//258 205//205 181//181
f 181//181 205//205 206//206
f 181//181 206//206 182//182
f 206//206 207//207 182//182
f 207//207 261//261 182//182
f 207//207 208//208 261//261
f 261//261 208//208 262//262
f 208//208 209//209 262//262
f 262//262 209//209 263//263
f 210//210 194//194 263//263
f 194//194 211//211 394//394
f 211//211 212//212 394//394
f 210//210 211//211 194//194
f 209//209 210//210 263//263
f 220//220 268//268 219//219
f 268//268 270//270 269//269
f 270//270 268//268 220//220
f 219//219 268//268 267//267
f 224//224 127//127 223//223
f 223//223 127//127 272//272
f 222//222 223//223 272//272
f 271//271 221//221 222//222
f 270//270 220//220 221//221
f 222//222 272//272 271//271
f 221//221 271//271 270//270
f 193//193 214//214 215//215
f 215//215 264//264 193//193
f 213//213 196//196 195//195
f 212//212 213//213 195//195
f 213//213 214//214 196//196
f 214//214 193//193 196//196
f 217//217 266//266 265//265
f 218//218 219//219 267//267
f 217//217 218//218 266//266
f 264//264 216//216 265//265
f 216//216 264//264 215//215
f 265//265 216//216 217//217
f 212//212 195//195 394//394
f 198//198 251//251 98//98
f 13//13 14//14 5//5
f 326//326 6//6 22//22
f 12//12 19//19 20//20
f 22//22 23//23 15//15
f 32//32 315//315 323//323
f 358//358 391//391 29//29
f 320//320 23//23 22//22
f 31//31 323//323 23//23
f 288//288 327//327 315//315
f 34//34 33//33 44//44
f 339//339 297//297 25//25
f 36//36 276//276 277//277
f 390//390 351//351 21//21
f 41//41 30//30 358//358
f 32//32 31//31 325//325
f 43//43 44//44 33//33
f 35//35 294//294 360//360
f 48//48 282//282 47//47
f 344//344 40//40 39//39
f 387//387 40//40 50//50
f 358//358 29//29 387//387
f 55//55 43//43 361//361
f 55//55 56//56 44//44
f 58//58 45//45 360//360
f 62//62 274//274 61//61
f 298//298 353//353 50//50
f 53//53 343//343 66//66
f 68//68 361//361 54//54
f 63//63 76//76 77//77
f 64//64 386//386 78//78
f 79//79 398//398 353//353
f 81//81 66//66 65//65
f 285//285 400//400 333//333
f 371//371 291//291 70//70
f 284//284 98//98 89//89
f 372//372 284//284 89//89
f 78//78 296//296 311//311
f 311//311 298//298 78//78
f 289//289 399//399 102//102
f 340//340 80//80 289//289
f 290//290 348//348 310//310
f 321//321 331//331 286//286
f 69//69 338//338 285//285
f 95//95 84//84 83//83
f 296//296 318//318 91//91
f 91//91 399//399 311//311
f 289//289 102//102 340//340
f 104//104 92//92 340//340
f 337//337 348//348 81//81
f 93//93 106//106 94//94
f 384//384 94//94 107//107
f 108//108 324//324 378//378
f 324//324 293//293 378//378
f 368//368 375//375 100//100
f 314//314 319//319 115//115
f 328//328 116//116 117//117
f 337//337 118//118 342//342
f 304//304 105//105 93//93
f 105//105 385//385 93//93
f 121//121 366//366 106//106
f 382//382 126//126 303//303
f 224//224 112//112 127//127
f 131//131 116//116 392//392
f 379//379 118//118 132//132
f 316//316 379//379 350//350
f 330//330 133//133 120//120
f 134//134 133//133 393//393
f 272//272 127//127 139//139
f 389//389 314//314 115//115
f 145//145 336//336 117//117
f 336//336 132//132 117//117
f 350//350 308//308 330//330
f 147//147 393//393 133//133
f 124//124 123//123 136//136
f 156//156 403//403 142//142
f 144//144 143//143 158//158
f 346//346 145//145 144//144
f 306//306 397//397 322//322
f 308//308 146//146 161//161
f 148//148 149//149 393//393
f 151//151 150//150 365//365
f 151//151 166//166 152//152
f 152//152 166//166 301//301
f 257//257 253//253 254//254
f 329//329 306//306 169//169
f 163//163 162//162 171//171
f 172//172 164//164 163//163
f 164//164 165//165 365//365
f 173//173 165//165 380//380
f 155//155 256//256 253//253
f 292//292 307//307 168//168
f 171//171 179//179 341//341
f 180//180 172//172 341//341
f 258//258 181//181 175//175
f 254//254 258//258 259//259
f 175//175 255//255 259//259
f 181//181 182//182 175//175
f 260//260 402//402 377//377
f 300//300 335//335 287//287
f 363//363 287//287 335//335
f 178//178 179//179 170//170
f 265//265 188//188 264//264
f 189//189 262//262 263//263
f 175//175 377//377 255//255
f 299//299 255//255 377//377
f 161//161 388//388 347//347
f 161//161 347//347 308//308
f 400//400 83//83 371//371
f 285//285 333//333 69//69
f 191//191 190//190 194//194
f 189//189 260//260 261//261
f 286//286 55//55 313//313
f 399//399 383//383 102//102
f 100//100 101//101 318//318
f 131//131 144//144 145//145
f 307//307 346//346 159//159
f 141//141 253//253 156//156
f 66//66 67//67 53//53
f 290//290 81//81 348//348
f 291//291 71//71 70//70
f 105//105 310//310 349//349
f 397//397 306//306 146//146
f 324//324 309//309 293//293
f 8//8 326//326 15//15
f 44//44 294//294 34//34
f 130//130 392//392 314//314
f 96//96 374//374 86//86
f 369//369 277//277 27//27
f 398//398 51//51 353//353
f 143//143 389//389 157//157
f 318//318 368//368 100//100
f 136//136 123//123 135//135
f 140//140 141//141 295//295
f 149//149 135//135 134//134
f 60//60 37//37 36//36
f 72//72 46//46 59//59
f 299//299 167//167 255//255
f 292//292 402//402 300//300
f 300//300 183//183 335//335
f 167//167 403//403 255//255
f 158//158 167//167 168//168
f 129//129 142//142 389//389
f 72//72 59//59 71//71
f 301//301 166//166 174//174
f 153//153 138//138 125//125
f 36//36 46//46 60//60
f 126//126 382//382 110//110
f 303//303 126//126 138//138
f 63//63 49//49 48//48
f 185//185 363//363 184//184
f 188//188 173//173 380//380
f 285//285 384//384 83//83
f 327//327 17//17 315//315
f 57//57 400//400 58//58
f 187//187 341//341 186//186
f 193//193 370//370 196//196
f 305//305 7//7 8//8
f 364//364 169//169 287//287
f 159//159 346//346 144//144
f 308//308 147//147 330//330
f 388//388 161//161 354//354
f 334//334 309//309 124//124
f 291//291 84//84 85//85
f 85//85 378//378 293//293
f 399//399 289//289 79//79
f 311//311 296//296 91//91
f 316//316 120//120 357//357
f 357//357 349//349 119//119
f 294//294 35//35 34//34
f 59//59 58//58 70//70
f 336//336 397//397 312//312
f 42//42 54//54 361//361
f 313//313 68//68 321//321
f 102//102 103//103 340//340
f 103//103 401//401 116//116
f 319//319 314//314 392//392
f 80//80 340//340 92//92
f 16//16 17//17 345//345
f 185//185 184//184 191//191
f 343//343 53//53 52//52
f 317//317 164//164 365//365
f 148//148 317//317 149//149
f 138//138 126//126 125//125
f 101//101 91//91 318//318
f 318//318 90//90 368//368
f 86//86 85//85 96//96
f 64//64 78//78 298//298
f 14//14 6//6 1//1
f 366//366 122//122 107//107
f 59//59 45//45 58//58
f 281//281 38//38 332//332
f 69//69 286//286 338//338
f 192//192 185//185 191//191
f 169//169 364//364 329//329
f 396//396 320//320 22//22
f 84//84 95//95 378//378
f 82//82 321//321 68//68
f 158//158 159//159 144//144
f 395//395 115//115 101//101
f 395//395 129//129 115//115
f 109//109 110//110 96//96
f 166//166 151//151 365//365
f 176//176 160//160 307//307
f 287//287 176//176 300//300
f 322//322 336//336 145//145
f 386//386 49//49 63//63
f 42//42 43//43 288//288
f 361//361 313//313 55//55
f 8//8 16//16 345//345
f 65//65 92//92 81//81
f 81//81 92//92 337//337
f 304//304 82//82 310//310
f 362//362 21//21 13//13
f 119//119 118//118 379//379
f 147//147 347//347 148//148
f 375//375 295//295 114//114
f 150//150 149//149 317//317
f 297//297 369//369 26//26
f 150//150 136//136 135//135
f 137//137 152//152 125//125
f 301//301 153//153 152//152
f 167//167 158//158 157//157
f 159//159 168//168 307//307
f 158//158 143//143 157//157
f 135//135 366//366 134//134
f 124//124 136//136 137//137
f 185//185 178//178 177//177
f 326//326 22//22 15//15
f 17//17 327//327 24//24
f 288//288 33//33 327//327
f 95//95 384//384 108//108
f 116//116 131//131 117//117
f 398//398 80//80 65//65
f 76//76 89//89 90//90
f 103//103 104//104 340//340
f 328//328 132//132 118//118
f 347//347 162//162 148//148
f 171//171 388//388 170//170
f 329//329 146//146 306//306
f 354//354 161//161 329//329
f 360//360 294//294 57//57
f 330//330 316//316 350//350
f 147//147 133//133 330//330
f 320//320 391//391 30//30
f 94//94 338//338 331//331
f 331//331 304//304 93//93
f 19//19 28//28 332//332
f 90//90 296//296 77//77
f 66//66 290//290 67//67
f 82//82 67//67 290//290
f 160//160 176//176 169//169
f 114//114 395//395 100//100
f 23//23 30//30 31//31
f 334//334 125//125 126//126
f 335//335 183//183 376//376
f 312//312 379//379 132//132
f 338//338 286//286 331//331
f 130//130 143//143 144//144
f 351//351 390//390 39//39
f 177//177 178//178 170//170
f 186//186 192//192 370//370
f 52//52 53//53 41//41
f 7//7 6//6 326//326
f 339//339 25//25 24//24
f 297//297 34//34 35//35
f 372//372 89//89 76//76
f 87//87 74//74 356//356
f 294//294 44//44 56//56
f 344//344 50//50 40//40
f 163//163 148//148 162//162
f 291//291 86//86 71//71
f 396//396 14//14 13//13
f 112//112 303//303 127//127
f 382//382 97//97 374//374
f 269//269 174//174 267//267
f 104//104 103//103 328//328
f 341//341 172//172 171//171
f 342//342 349//349 348//348
f 118//118 119//119 342//342
f 270//270 154//154 269//269
f 343//343 65//65 66//66
f 187//187 264//264 180//180
f 56//56 57//57 294//294
f 334//334 126//126 110//110
f 388//388 171//171 162//162
f 344//344 64//64 50//50
f 125//125 124//124 137//137
f 352//352 305//305 345//345
f 345//345 17//17 9//9
f 1//1 2//2 240//240
f 1//1 6//6 2//2
f 73//73 359//359 87//87
f 78//78 77//77 296//296
f 46//46 72//72 60//60
f 111//111 112//112 273//273
f 53//53 54//54 325//325
f 346//346 322//322 145//145
f 346//346 307//307 160//160
f 96//96 293//293 109//109
f 93//93 94//94 331//331
f 192//192 178//178 185//185
f 342//342 348//348 337//337
f 299//299 292//292 168//168
f 122//122 366//366 135//135
f 120//120 133//133 121//121
f 379//379 316//316 119//119
f 350//350 312//312 146//146
f 33//33 34//34 339//339
f 326//326 8//8 7//7
f 315//315 16//16 323//323
f 26//26 18//18 25//25
f 18//18 373//373 25//25
f 29//29 381//381 351//351
f 351//351 40//40 29//29
f 352//352 9//9 10//10
f 4//4 305//305 352//352
f 397//397 146//146 312//312
f 107//107 106//106 366//366
f 392//392 401//401 319//319
f 353//353 387//387 50//50
f 354//354 170//170 388//388
f 355//355 154//154 271//271
f 355//355 139//139 138//138
f 144//144 131//131 130//130
f 128//128 114//114 295//295
f 356//356 62//62 61//61
f 73//73 87//87 356//356
f 89//89 99//99 368//368
f 385//385 357//357 120//120
f 357//357 105//105 349//349
f 52//52 51//51 343//343
f 52//52 41//41 358//358
f 380//380 180//180 188//188
f 359//359 73//73 72//72
f 359//359 374//374 97//97
f 328//328 103//103 116//116
f 360//360 57//57 58//58
f 361//361 43//43 42//42
f 361//361 68//68 313//313
f 176//176 307//307 292//292
f 362//362 13//13 5//5
f 362//362 12//12 20//20
f 363//363 335//335 184//184
f 48//48 75//75 63//63
f 55//55 286//286 69//69
f 364//364 287//287 363//363
f 364//364 354//354 329//329
f 91//91 101//101 383//383
f 365//365 165//165 166//166
f 317//317 365//365 150//150
f 106//106 107//107 94//94
f 366//366 121//121 134//134
f 66//66 81//81 290//290
f 23//23 323//323 15//15
f 160//160 306//306 322//322
f 101//101 115//115 319//319
f 367//367 97//97 111//111
f 367//367 88//88 74//74
f 368//368 99//99 375//375
f 368//368 90//90 89//89
f 26//26 27//27 279//279
f 369//369 297//297 35//35
f 131//131 392//392 130//130
f 370//370 193//193 187//187
f 370//370 192//192 195//195
f 371//371 58//58 400//400
f 371//371 84//84 291//291
f 324//324 123//123 309//309
f 108//108 122//122 324//324
f 381//381 13//13 21//21
f 372//372 75//75 283//283
f 186//186 341//341 179//179
f 69//69 333//333 56//56
f 174//174 166//166 165//165
f 338//338 384//384 285//285
f 17//17 16//16 315//315
f 136//136 151//151 137//137
f 51//51 398//398 343//343
f 363//363 185//185 177//177
f 373//373 18//18 11//11
f 373//373 10//10 9//9
f 79//79 353//353 298//298
f 45//45 59//59 46//46
f 296//296 90//90 318//318
f 54//54 42//42 325//325
f 172//172 180//180 380//380
f 374//374 359//359 86//86
f 110//110 374//374 96//96
f 45//45 35//35 360//360
f 375//375 114//114 100//100
f 99//99 113//113 375//375
f 325//325 31//31 41//41
f 42//42 32//32 325//325
f 376//376 183//183 189//189
f 376//376 190//190 184//184
f 148//148 163//163 317//317
f 377//377 182//182 260//260
f 378//378 95//95 108//108
f 378//378 85//85 84//84
f 312//312 132//132 336//336
f 379//379 312//312 350//350
f 165//165 173//173 174//174
f 164//164 172//172 380//380
f 21//21 351//351 381//381
f 391//391 381//381 29//29
f 92//92 65//65 80//80
f 382//382 374//374 110//110
f 382//382 303//303 111//111
f 150//150 151//151 136//136
f 357//357 119//119 316//316
f 384//384 107//107 108//108
f 120//120 316//316 330//330
f 309//309 334//334 109//109
f 67//67 82//82 68//68
f 385//385 106//106 93//93
f 385//385 120//120 121//121
f 56//56 55//55 69//69
f 386//386 77//77 78//78
f 402//402 292//292 299//299
f 291//291 85//85 86//86
f 387//387 29//29 40//40
f 387//387 353//353 51//51
f 388//388 162//162 347//347
f 389//389 115//115 129//129
f 157//157 389//389 142//142
f 9//9 24//24 373//373
f 251//251 99//99 98//98
f 76//76 63//63 75//75
f 390//390 21//21 20//20
f 391//391 358//358 30//30
f 391//391 320//320 396//396
f 31//31 32//32 323//323
f 60//60 61//61 37//37
f 257//257 156//156 253//253
f 253//253 141//141 155//155
f 118//118 337//337 104//104
f 82//82 304//304 321//321
f 308//308 350//350 146//146
f 133//133 134//134 121//121
f 85//85 293//293 96//96
f 15//15 323//323 16//16
f 190//190 191//191 184//184
f 395//395 101//101 100//100
f 381//381 391//391 396//396
f 13//13 381//381 396//396
f 397//397 336//336 322//322
f 398//398 65//65 343//343
f 398//398 79//79 80//80
f 142//142 129//129 128//128
f 399//399 91//91 383//383
f 399//399 79//79 311//311
f 400//400 57//57 333//333
f 400//400 285//285 83//83
f 105//105 304//304 310//310
f 357//357 385//385 105//105
f 344//344 386//386 64//64
f 169//169 306//306 160//160
f 43//43 55//55 44//44
f 35//35 45//45 302//302
f 401//401 392//392 116//116
f 401//401 102//102 383//383
f 402//402 299//299 377//377
f 402//402 183//183 300//300
f 403//403 156//156 257//257
f 403//403 157//157 142//142
f 10//10 4//4 352//352
f 39//39 38//38 49//49
f 38//38 390//390 332//332
f 390//390 38//38 39//39
