# Rhino

mtllib circle.mtl
usemtl diffuse_ControlText
v -32.883319854736328 37.66546630859375 0
v -36.26953125 34.4168701171875 0
cstype bspline
deg 1
curv 0 4.6925264866841969 1 2
parm u 0 0 4.6925264866841969 4.6925264866841969
end
usemtl diffuse_ControlText
v 49.059589385986328 -9.6517801284790039 0
v 49.7996826171875 -4.4711790084838867 0
cstype bspline
deg 1
curv 0 5.2331984441032295 3 4
parm u 0 0 5.2331984441032295 5.2331984441032295
end
usemtl diffuse_ControlText
v 47.770389556884766 -14.764482498168945 0
v 49.059589385986328 -9.6517801284790039 0
cstype bspline
deg 1
curv 0 5.2727375925972879 5 6
parm u 0 0 5.2727375925972879 5.2727375925972879
end
usemtl diffuse_ControlText
v 45.953968048095703 -19.703624725341797 0
v 47.770389556884766 -14.764482498168945 0
cstype bspline
deg 1
curv 0 5.2625576517348991 7 8
parm u 0 0 5.2625576517348991 5.2625576517348991
end
usemtl diffuse_ControlText
v 43.544044494628906 -24.574705123901367 0
v 45.953968048095703 -19.703624725341797 0
cstype bspline
deg 1
curv 0 5.4346256340970989 9 10
parm u 0 0 5.4346256340970989 5.4346256340970989
end
usemtl diffuse_ControlText
v 40.504592895507812 -29.315147399902344 0
v 43.544044494628906 -24.574705123901367 0
cstype bspline
deg 1
curv 0 5.6311685284225943 11 12
parm u 0 0 5.6311685284225943 5.6311685284225943
end
usemtl diffuse_ControlText
v 36.960334777832031 -33.673934936523438 0
v 40.504592895507812 -29.315147399902344 0
cstype bspline
deg 1
curv 0 5.6178994645787359 13 14
parm u 0 0 5.6178994645787359 5.6178994645787359
end
usemtl diffuse_ControlText
v 33.162136077880859 -37.420219421386719 0
v 36.960334777832031 -33.673934936523438 0
cstype bspline
deg 1
curv 0 5.3348815175070303 15 16
parm u 0 0 5.3348815175070303 5.3348815175070303
end
usemtl diffuse_ControlText
v 29.234394073486328 -40.562915802001953 0
v 33.162136077880859 -37.420219421386719 0
cstype bspline
deg 1
curv 0 5.0302781030294206 17 18
parm u 0 0 5.0302781030294206 5.0302781030294206
end
usemtl diffuse_ControlText
v -33.446868896484375 -37.165935516357422 0
v -29.617137908935547 -40.2843017578125 0
cstype bspline
deg 1
curv 0 4.938729335855367 19 20
parm u 0 0 4.938729335855367 4.938729335855367
end
usemtl diffuse_ControlText
v -36.941749572753906 -33.694316864013672 0
v -33.446868896484375 -37.165935516357422 0
cstype bspline
deg 1
curv 0 4.926086378522327 21 22
parm u 0 0 4.926086378522327 4.926086378522327
end
usemtl diffuse_ControlText
v -40.222946166992188 -29.700416564941406 0
v -36.941749572753906 -33.694316864013672 0
cstype bspline
deg 1
curv 0 5.1688964672326749 23 24
parm u 0 0 5.1688964672326749 5.1688964672326749
end
usemtl diffuse_ControlText
v -43.153438568115234 -25.25432014465332 0
v -40.222946166992188 -29.700416564941406 0
cstype bspline
deg 1
curv 0 5.3249938114084649 25 26
parm u 0 0 5.3249938114084649 5.3249938114084649
end
usemtl diffuse_ControlText
v -45.627723693847656 -20.447757720947266 0
v -43.153438568115234 -25.25432014465332 0
cstype bspline
deg 1
curv 0 5.4060271194661738 27 28
parm u 0 0 5.4060271194661738 5.4060271194661738
end
usemtl diffuse_ControlText
v -47.578334808349609 -15.372122764587402 0
v -45.627723693847656 -20.447757720947266 0
cstype bspline
deg 1
curv 0 5.4375503611682294 29 30
parm u 0 0 5.4375503611682294 5.4375503611682294
end
usemtl diffuse_ControlText
v -48.823326110839844 -10.783448219299316 0
v -47.578334808349609 -15.372122764587402 0
cstype bspline
deg 1
curv 0 4.7545701620494727 31 32
parm u 0 0 4.7545701620494727 4.7545701620494727
end
usemtl diffuse_ControlText
v -49.703990936279297 -5.4325962066650391 0
v -48.823326110839844 -10.783448219299316 0
cstype bspline
deg 1
curv 0 5.422839458796342 33 34
parm u 0 0 5.422839458796342 5.422839458796342
end
usemtl diffuse_ControlText
v -49.085567474365234 9.5187826156616211 0
v -49.778312683105469 4.7031407356262207 0
cstype bspline
deg 1
curv 0 4.865213524706129 35 36
parm u 0 0 4.865213524706129 4.865213524706129
end
usemtl diffuse_ControlText
v -48.022541046142578 13.922484397888184 0
v -49.085567474365234 9.5187826156616211 0
cstype bspline
deg 1
curv 0 4.5301892426128543 37 38
parm u 0 0 4.5301892426128543 4.5301892426128543
end
usemtl diffuse_ControlText
v -46.429702758789062 18.554853439331055 0
v -48.022541046142578 13.922484397888184 0
cstype bspline
deg 1
curv 0 4.8985688466916155 39 40
parm u 0 0 4.8985688466916155 4.8985688466916155
end
usemtl diffuse_ControlText
v -44.429412841796875 22.935281753540039 0
v -46.429702758789062 18.554853439331055 0
cstype bspline
deg 1
curv 0 4.815528212765904 41 42
parm u 0 0 4.815528212765904 4.815528212765904
end
usemtl diffuse_ControlText
v -42.032955169677734 27.078235626220703 0
v -44.429412841796875 22.935281753540039 0
cstype bspline
deg 1
curv 0 4.7861337387727065 43 44
parm u 0 0 4.7861337387727065 4.7861337387727065
end
usemtl diffuse_ControlText
v -39.244930267333984 30.981210708618164 0
v -42.032955169677734 27.078235626220703 0
cstype bspline
deg 1
curv 0 4.7964880224914923 45 46
parm u 0 0 4.7964880224914923 4.7964880224914923
end
usemtl diffuse_ControlText
v -36.26953125 34.4168701171875 0
v -39.244930267333984 30.981210708618164 0
cstype bspline
deg 1
curv 0 4.5449702841760189 47 48
parm u 0 0 4.5449702841760189 4.5449702841760189
end
usemtl diffuse_ControlText
v -29.434703826904297 40.417797088623047 0
v -32.883319854736328 37.66546630859375 0
cstype bspline
deg 1
curv 0 4.4122870747625491 49 50
parm u 0 0 4.4122870747625491 4.4122870747625491
end
usemtl diffuse_ControlText
v -25.072664260864258 43.259235382080078 0
v -29.434703826904297 40.417797088623047 0
cstype bspline
deg 1
curv 0 5.2058775198061253 51 52
parm u 0 0 5.2058775198061253 5.2058775198061253
end
usemtl diffuse_ControlText
v 25.767736434936523 42.848846435546875 0
v 21.936216354370117 44.931083679199219 0
cstype bspline
deg 1
curv 0 4.3607634729066094 53 54
parm u 0 0 4.3607634729066094 4.3607634729066094
end
usemtl diffuse_ControlText
v 29.324239730834961 40.498012542724609 0
v 25.767736434936523 42.848846435546875 0
cstype bspline
deg 1
curv 0 4.2632306629337258 55 56
parm u 0 0 4.2632306629337258 4.2632306629337258
end
usemtl diffuse_ControlText
v 32.517303466796875 37.981903076171875 0
v 29.324239730834961 40.498012542724609 0
cstype bspline
deg 1
curv 0 4.0652752513933592 57 58
parm u 0 0 4.0652752513933592 4.0652752513933592
end
usemtl diffuse_ControlText
v 35.438156127929688 35.272327423095703 0
v 32.517303466796875 37.981903076171875 0
cstype bspline
deg 1
curv 0 3.9841160233845847 59 60
parm u 0 0 3.9841160233845847 3.9841160233845847
end
usemtl diffuse_ControlText
v 38.988994598388672 31.302688598632812 0
v 35.438156127929688 35.272327423095703 0
cstype bspline
deg 1
curv 0 5.3260197370996121 61 62
parm u 0 0 5.3260197370996121 5.3260197370996121
end
usemtl diffuse_ControlText
v 41.996784210205078 27.134298324584961 0
v 38.988994598388672 31.302688598632812 0
cstype bspline
deg 1
curv 0 5.1402602877410208 63 64
parm u 0 0 5.1402602877410208 5.1402602877410208
end
usemtl diffuse_ControlText
v 44.457241058349609 22.881292343139648 0
v 41.996784210205078 27.134298324584961 0
cstype bspline
deg 1
curv 0 4.9134415413018733 65 66
parm u 0 0 4.9134415413018733 4.9134415413018733
end
usemtl diffuse_ControlText
v 46.55401611328125 18.240715026855469 0
v 44.457241058349609 22.881292343139648 0
cstype bspline
deg 1
curv 0 5.0922905906276457 67 68
parm u 0 0 5.0922905906276457 5.0922905906276457
end
usemtl diffuse_ControlText
v 48.225109100341797 13.203738212585449 0
v 46.55401611328125 18.240715026855469 0
cstype bspline
deg 1
curv 0 5.3069470695397651 69 70
parm u 0 0 5.3069470695397651 5.3069470695397651
end
usemtl diffuse_ControlText
v 49.135547637939453 9.257319450378418 0
v 48.225109100341797 13.203738212585449 0
cstype bspline
deg 1
curv 0 4.0500764656290924 71 72
parm u 0 0 4.0500764656290924 4.0500764656290924
end
usemtl diffuse_ControlText
v 49.741298675537109 5.0796809196472168 0
v 49.135547637939453 9.257319450378418 0
cstype bspline
deg 1
curv 0 4.2213265702857656 73 74
parm u 0 0 4.2213265702857656 4.2213265702857656
end
usemtl diffuse_ControlText
v 49.997615814208984 0.48816445469856262 0
v 49.7996826171875 -4.4711790084838867 0
cstype bspline
deg 1
curv 0 4.9632917641716006 75 76
parm u 0 0 4.9632917641716006 4.9632917641716006
end
usemtl diffuse_ControlText
v 49.997615814208984 0.48816445469856262 0
v 49.741298675537109 5.0796809196472168 0
cstype bspline
deg 1
curv 0 4.5986652328117481 77 78
parm u 0 0 4.5986652328117481 4.5986652328117481
end
usemtl diffuse_ControlText
v -39.249279022216797 -16.061410903930664 0
v -42.928302764892578 -11.95732307434082 0
v -45.908100128173828 -2.3325326442718506 0
v -44.548416137695312 2.0673201084136963 0
v -43.377803802490234 10.62281322479248 0
v -40.77215576171875 -20.712867736816406 0
v -39.561958312988281 -7.3951935768127441 0
v -41.651607513427734 -2.6430377960205078 0
v -39.159465789794922 1.506610631942749 0
v -40.863918304443359 5.9667172431945801 0
v -39.567543029785156 14.181194305419922 0
v -39.220626831054688 22.5264892578125 0
v -36.133491516113281 -20.361379623413086 0
v -37.501945495605469 -11.621881484985352 0
v -34.008750915527344 -7.4617276191711426 0
v -36.920158386230469 -3.1460180282592773 0
v -36.754413604736328 26.429365158081055 0
v -28.898635864257812 -35.735424041748047 0
v -31.332054138183594 -19.793413162231445 0
v -30.13409423828125 -15.259928703308105 0
v -32.046653747558594 -2.5717780590057373 0
v -30.797538757324219 2.3375771045684814 0
v -29.774492263793945 7.0868234634399414 0
v -31.686874389648438 17.362003326416016 0
v -29.375316619873047 21.617809295654297 0
v -31.861444473266602 26.03703498840332 0
v -29.38677978515625 30.256252288818359 0
v -31.230491638183594 34.530147552490234 0
v -25.236867904663086 -37.615257263183594 0
v -31.384922027587891 -32.420772552490234 0
v -29.242427825927734 -28.116859436035156 0
v -26.652633666992188 -18.81171989440918 0
v -25.900712966918945 -13.973008155822754 0
v -25.048549652099609 -9.1931228637695312 0
v -27.274637222290039 -1.0694118738174438 0
v -25.940206527709961 3.8101432323455811 0
v -29.027088165283203 12.450956344604492 0
v -26.710861206054688 17.239496231079102 0
v -27.115213394165039 25.869653701782227 0
v -26.961200714111328 34.754779815673828 0
v -21.459962844848633 -40.243312835693359 0
v -25.602968215942383 -32.243724822998047 0
v -23.848918914794922 -27.092050552368164 0
v -18.165210723876953 -20.265085220336914 0
v -22.343685150146484 -17.444145202636719 0
v -21.661048889160156 -12.654213905334473 0
v -20.470073699951172 -8.1059198379516602 0
v -23.422943115234375 13.38504695892334 0
v -21.748636245727539 17.927389144897461 0
v -19.600606918334961 22.360963821411133 0
v -24.964090347290039 30.050178527832031 0
v -22.339931488037109 33.741226196289062 0
v -24.02806282043457 38.340106964111328 0
v -17.921592712402344 -42.745735168457031 0
v -17.066671371459961 -38.748928070068359 0
v -16.299320220947266 -34.091896057128906 0
v -18.152412414550781 -25.556127548217773 0
v -18.595592498779297 -15.867732048034668 0
v -15.905176162719727 -7.3569245338439941 0
v -14.411876678466797 -2.759462833404541 0
v -17.234247207641602 18.819162368774414 0
v -17.139970779418945 26.861362457275391 0
v -17.722440719604492 32.051872253417969 0
v -19.016206741333008 36.646335601806641 0
v -15.35059928894043 39.529117584228516 0
v -13.547982215881348 -42.892662048339844 0
v -12.73637580871582 -37.623630523681641 0
v -11.306203842163086 -32.460613250732422 0
v -12.473532676696777 -27.138370513916016 0
v -12.810988426208496 -11.40566349029541 0
v -11.368600845336914 -6.8146171569824219 0
v -7.4077367782592773 1.6636416912078857 0
v -10.513199806213379 9.0845756530761719 0
v -12.766127586364746 17.281452178955078 0
v -12.085102081298828 26.113908767700195 0
v -4.7319960594177246 -44.454170227050781 0
v -8.9951944351196289 -41.086555480957031 0
v -8.8611230850219727 -36.646934509277344 0
v -6.0569162368774414 -33.774616241455078 0
v -7.4155025482177734 -29.032459259033203 0
v -5.0126895904541016 -21.037761688232422 0
v -6.2583327293395996 -16.083583831787109 0
v -7.8780131340026855 -10.840237617492676 0
v -9.5099525451660156 -2.331101655960083 0
v -6.4933261871337891 6.0515880584716797 0
v -5.6852693557739258 10.597419738769531 0
v -7.0389771461486816 18.239435195922852 0
v -7.1836719512939453 26.406082153320312 0
v -5.0140419006347656 36.560997009277344 0
v -7.2866363525390625 41.440963745117188 0
v 0.36508923768997192 -45.564327239990234 0
v -1.5163930654525757 -35.830318450927734 0
v -2.3393418788909912 -30.798364639282227 0
v -3.5668480396270752 -25.943202972412109 0
v -1.7711573839187622 -17.651248931884766 0
v -3.2620611190795898 -12.834075927734375 0
v 0.1183573305606842 -5.8707623481750488 0
v -2.2340059280395508 2.9267551898956299 0
v -2.734100341796875 7.5160927772521973 0
v -0.70396387577056885 11.355385780334473 0
v -1.5626980066299438 19.03839111328125 0
v -4.5862898826599121 22.707660675048828 0
v -2.4960780143737793 27.50023078918457 0
v -0.58586198091506958 32.710956573486328 0
v -2.7242038249969482 41.287322998046875 0
v -4.6268587112426758 45.453525543212891 0
v 3.1206886768341064 -42.242263793945312 0
v 2.886608362197876 -37.962055206298828 0
v 2.3369731903076172 -33.077957153320312 0
v 1.7602659463882446 -27.71467399597168 0
v 4.2863936424255371 -4.8342852592468262 0
v 3.094959020614624 3.1885030269622803 0
v 1.3296049833297729 7.215604305267334 0
v 1.7631701231002808 15.447628021240234 0
v 2.0531492233276367 27.955169677734375 0
v 3.9105274677276611 31.53663444519043 0
v 1.4589353799819946 42.080379486083984 0
v 7.2100138664245605 -40.703693389892578 0
v 6.3876810073852539 -30.973171234130859 0
v 6.4464516639709473 -26.958845138549805 0
v 5.7457056045532227 -14.995022773742676 0
v 8.9799718856811523 -11.706596374511719 0
v 8.0588407516479492 -3.5664787292480469 0
v 8.1057147979736328 3.2853372097015381 0
v 9.002161979675293 11.168329238891602 0
v 8.6159744262695312 20.785732269287109 0
v 8.0226774215698242 32.762042999267578 0
v 8.7636270523071289 37.058635711669922 0
v 5.335113525390625 40.489459991455078 0
v 8.8683748245239258 44.737419128417969 0
v 11.035447120666504 -43.863945007324219 0
v 11.896395683288574 -38.563003540039062 0
v 14.852928161621094 -30.217733383178711 0
v 9.5431413650512695 -24.016458511352539 0
v 12.189576148986816 -20.600673675537109 0
v 14.159408569335938 -17.001140594482422 0
v 13.594021797180176 -13.011051177978516 0
v 12.83843994140625 -8.7880058288574219 0
v 10.383298873901367 -0.45835411548614502 0
v 12.884197235107422 14.091239929199219 0
v 12.882807731628418 18.531000137329102 0
v 13.012443542480469 22.460599899291992 0
v 9.9600048065185547 25.288166046142578 0
v 11.441370010375977 29.582563400268555 0
v 13.309597969055176 38.612136840820312 0
v 18.701728820800781 -33.014884948730469 0
v 19.201799392700195 -28.130025863647461 0
v 14.844335556030273 -25.011835098266602 0
v 16.811548233032227 -20.011154174804688 0
v 17.48396110534668 -10.181050300598145 0
v 14.997016906738281 -1.1581442356109619 0
v 17.782848358154297 2.5444071292877197 0
v 17.2117919921875 16.628198623657227 0
v 17.809852600097656 21.880237579345703 0
v 14.821210861206055 26.135612487792969 0
v 15.991008758544922 30.699750900268555 0
v 16.875724792480469 35.472579956054688 0
v 17.42009162902832 40.5557861328125 0
v 20.586549758911133 -40.840713500976562 0
v 23.292327880859375 -31.446449279785156 0
v 24.516260147094727 -21.098106384277344 0
v 22.135679244995117 -12.024206161499023 0
v 20.981224060058594 -6.6713213920593262 0
v 19.606281280517578 -1.8995867967605591 0
v 20.220884323120117 6.5887937545776367 0
v 21.747306823730469 18.74974250793457 0
v 19.400968551635742 26.927228927612305 0
v 23.362735748291016 28.559473037719727 0
v 24.913860321044922 -39.052169799804688 0
v 27.943159103393555 -24.29368782043457 0
v 28.919485092163086 -19.028562545776367 0
v 26.70257568359375 -11.408524513244629 0
v 25.464664459228516 -7.2227702140808105 0
v 24.261873245239258 -2.4640142917633057 0
v 27.422931671142578 1.8031338453292847 0
v 25.011604309082031 6.2275848388671875 0
v 27.015172958374023 10.549410820007324 0
v 28.459537506103516 14.840639114379883 0
v 23.644641876220703 23.570959091186523 0
v 27.402559280395508 27.638748168945312 0
v 25.487232208251953 32.930606842041016 0
v 25.372735977172852 38.11767578125 0
v 31.95305061340332 -32.161720275878906 0
v 31.53862190246582 -27.2147216796875 0
v 32.023277282714844 -22.252656936645508 0
v 33.369312286376953 -17.642366409301758 0
v 32.674915313720703 1.678104043006897 0
v 29.771989822387695 6.3890314102172852 0
v 31.861289978027344 17.54905891418457 0
v 34.318313598632812 22.294300079345703 0
v 32.115276336669922 26.754587173461914 0
v 35.753990173339844 -28.887998580932617 0
v 38.832157135009766 -24.821338653564453 0
v 36.465259552001953 -20.953678131103516 0
v 38.102432250976562 -16.570468902587891 0
v 35.044300079345703 -13.680801391601562 0
v 37.699531555175781 -6.2322797775268555 0
v 37.212272644042969 -1.0111914873123169 0
v 37.525909423828125 4.0964393615722656 0
v 36.891311645507812 18.118385314941406 0
v 39.292720794677734 22.606723785400391 0
v 36.917736053466797 26.588216781616211 0
v 40.998294830322266 -20.306007385253906 0
v 39.124343872070312 -11.539263725280762 0
v 41.520999908447266 1.2670271396636963 0
v 39.746955871582031 14.200478553771973 0
v 41.648639678955078 18.649330139160156 0
v 42.669620513916016 -15.607063293457031 0
v 44.232936859130859 -11.082716941833496 0
v 41.460044860839844 -3.4504222869873047 0
v 49.997615814208984 0.48816445469856262 0
v 49.741298675537109 5.0796809196472168 0
v 49.135547637939453 9.257319450378418 0
v 48.225109100341797 13.203738212585449 0
v 46.55401611328125 18.240715026855469 0
v 44.457241058349609 22.881292343139648 0
v 41.996784210205078 27.134298324584961 0
v 38.988994598388672 31.302688598632812 0
v 35.438156127929688 35.272327423095703 0
v 32.517303466796875 37.981903076171875 0
v 29.324239730834961 40.498012542724609 0
v 25.767736434936523 42.848846435546875 0
v 21.936216354370117 44.931083679199219 0
v 18.126071929931641 46.598770141601562 0
v 12.81440258026123 48.330020904541016 0
v 7.5305085182189941 49.429660797119141 0
v 2.4815206527709961 49.938381195068359 0
v -2.3809936046600342 49.943275451660156 0
v -7.0446624755859375 49.501239776611328 0
v -11.65247631072998 48.623245239257812 0
v -15.880573272705078 47.411048889160156 0
v -20.514858245849609 45.59759521484375 0
v -25.072664260864258 43.259235382080078 0
v -29.434703826904297 40.417797088623047 0
v -36.26953125 34.4168701171875 0
v -39.244930267333984 30.981210708618164 0
v -42.032955169677734 27.078235626220703 0
v -44.429412841796875 22.935281753540039 0
v -46.429702758789062 18.554853439331055 0
v -48.022541046142578 13.922484397888184 0
v -49.085567474365234 9.5187826156616211 0
v -49.778312683105469 4.7031407356262207 0
v -49.999732971191406 0.16314680874347687 0
v -49.703990936279297 -5.4325962066650391 0
v -48.823326110839844 -10.783448219299316 0
v -47.578334808349609 -15.372122764587402 0
v -45.627723693847656 -20.447757720947266 0
v -43.153438568115234 -25.25432014465332 0
v -40.222946166992188 -29.700416564941406 0
v -36.941749572753906 -33.694316864013672 0
v -33.446868896484375 -37.165935516357422 0
v -29.617137908935547 -40.2843017578125 0
v -25.713497161865234 -42.881420135498047 0
v -21.497783660888672 -45.142501831054688 0
v -16.911371231079102 -47.053218841552734 0
v -12.423442840576172 -48.431995391845703 0
v -7.4103507995605469 -49.447818756103516 0
v -2.5932381153106689 -49.932704925537109 0
v 2.3191184997558594 -49.946186065673828 0
v 6.385350227355957 -49.590595245361328 0
v 10.356281280517578 -48.915718078613281 0
v 15.045808792114258 -47.682529449462891 0
v 19.842746734619141 -45.894065856933594 0
v 24.625436782836914 -43.515377044677734 0
v 29.234394073486328 -40.562915802001953 0
v 33.162136077880859 -37.420219421386719 0
v 36.960334777832031 -33.673934936523438 0
v 40.504592895507812 -29.315147399902344 0
v 43.544044494628906 -24.574705123901367 0
v 45.953968048095703 -19.703624725341797 0
v 47.770389556884766 -14.764482498168945 0
v 49.059589385986328 -9.6517801284790039 0
v 49.7996826171875 -4.4711790084838867 0
v -29.516653060913086 -10.466459274291992 0
v -41.525146484375 18.63694953918457 0
v 21.207075119018555 -17.796546936035156 0
v -37.932781219482422 9.7981433868408203 0
v -8.6402139663696289 45.484676361083984 0
v 17.541568756103516 11.287790298461914 0
v 30.666927337646484 31.517843246459961 0
v 29.996627807617188 -8.0721435546875 0
v 26.649677276611328 19.013782501220703 0
v 43.069534301757812 10.938423156738281 0
v 21.228324890136719 36.692401885986328 0
v 10.685898780822754 -28.413602828979492 0
v 6.8266744613647461 28.452787399291992 0
v -19.443382263183594 9.9633073806762695 0
v -9.4925642013549805 29.632301330566406 0
v 2.8059220314025879 -18.774091720581055 0
v 38.567157745361328 9.3064041137695312 0
v -10.440471649169922 38.280220031738281 0
v 0.29587212204933167 37.861354827880859 0
v 13.289182662963867 10.105276107788086 0
v -15.365342140197754 6.3928947448730469 0
v -14.299057006835938 -16.690607070922852 0
v -13.496931076049805 30.547849655151367 0
v -16.719524383544922 43.272064208984375 0
v 4.1200151443481445 -9.8912811279296875 0
v -19.118614196777344 -3.4333484172821045 0
v 4.2694497108459473 11.555216789245605 0
v 15.793392181396484 -42.411651611328125 0
v 30.503599166870117 -13.606544494628906 0
v 45.70355224609375 3.1821088790893555 0
v -34.267604827880859 21.974254608154297 0
v -21.061428070068359 -35.416767120361328 0
v 10.795929908752441 6.8668742179870605 0
v 7.5825862884521484 15.906461715698242 0
v 17.827653884887695 -14.918195724487305 0
v 41.983283996582031 6.116633415222168 0
v -36.737197875976562 18.057184219360352 0
v 7.007655143737793 -35.831077575683594 0
v -10.237549781799316 -14.836518287658691 0
v -5.0585474967956543 -38.931934356689453 0
v 1.3216421604156494 -14.099556922912598 0
v 34.272991180419922 -9.4907207489013672 0
v -34.715366363525391 -28.8223876953125 0
v 19.981121063232422 -23.159526824951172 0
v -24.779245376586914 8.7089023590087891 0
v -22.418888092041016 0.29012039303779602 0
v 22.165004730224609 -36.119113922119141 0
v -34.675125122070312 -15.934276580810547 0
v 22.497291564941406 10.488089561462402 0
v -9.5159063339233398 33.784702301025391 0
v -24.532381057739258 21.746112823486328 0
v -34.557987213134766 13.617391586303711 0
v 33.444980621337891 -4.1511650085449219 0
v -22.69932746887207 -22.288307189941406 0
v -17.173751831054688 -11.970391273498535 0
v 43.874103546142578 15.018876075744629 0
v -43.695716857910156 15.036142349243164 0
v -44.530200958251953 -7.0560779571533203 0
v -9.1529331207275391 13.769512176513672 0
v -45.381591796875 6.5562934875488281 0
v 13.022560119628906 2.9762425422668457 0
v 34.762428283691406 30.369510650634766 0
v 29.633457183837891 35.747566223144531 0
v -23.862543106079102 -4.5126628875732422 0
v -20.849365234375 5.1638894081115723 0
v -33.238983154296875 -11.988382339477539 0
v 5.2274904251098633 24.174552917480469 0
v -14.200799942016602 35.156810760498047 0
v 14.622807502746582 -34.708934783935547 0
v -13.657651901245117 -22.228694915771484 0
v 4.479835033416748 -23.326122283935547 0
v 27.626514434814453 -29.627079010009766 0
v -34.858283996582031 0.78460222482681274 0
v -12.661386489868164 1.6116067171096802 0
v 12.47293758392334 34.040176391601562 0
v -14.280632019042969 11.871257781982422 0
v 10.823662757873535 -33.252883911132812 0
v 11.990655899047852 -4.5601167678833008 0
v 21.406986236572266 41.503890991210938 0
v 4.3421897888183594 45.398468017578125 0
v 15.630744934082031 6.716099739074707 0
v 34.196853637695312 7.5528955459594727 0
v -27.699609756469727 -23.495275497436523 0
v 4.1234707832336426 35.527870178222656 0
v 20.453098297119141 31.970428466796875 0
v -35.274501800537109 5.3334603309631348 0
v -0.25399404764175415 45.72564697265625 0
v 35.356658935546875 13.143815040588379 0
v -18.078014373779297 14.717329025268555 0
v -9.3333768844604492 -45.179100036621094 0
v 9.8993864059448242 40.950645446777344 0
v 16.439441680908203 -5.5840644836425781 0
v -10.69101619720459 5.0090556144714355 0
v 5.6036615371704102 -0.46095967292785645 0
v -32.826034545898438 -24.321025848388672 0
v 0.85837125778198242 -1.1447197198867798 0
v -20.247762680053711 40.965938568115234 0
v 45.608165740966797 -1.5229445695877075 0
v 6.0513777732849121 7.253516674041748 0
v 24.544950485229492 14.76118278503418 0
v -3.7491047382354736 14.825410842895508 0
v 45.371261596679688 -6.302121639251709 0
v 23.721645355224609 -26.343601226806641 0
v 5.8962078094482422 -45.646804809570312 0
v -14.658272743225098 22.225276947021484 0
v 0.39080491662025452 23.453569412231445 0
v 25.616390228271484 -15.849106788635254 0
v -3.8754334449768066 -7.8764147758483887 0
v 29.014606475830078 -2.9252638816833496 0
v 17.227523803710938 -37.790229797363281 0
v -28.720481872558594 -5.867124080657959 0
v -8.649104118347168 -24.153095245361328 0
v 20.644205093383789 14.39144229888916 0
v -15.673854827880859 -29.8458251953125 0
v -20.795770645141602 29.631244659423828 0
v 13.59644889831543 43.478557586669922 0
v -12.217473983764648 43.259792327880859 0
v 10.18784236907959 -16.175695419311523 0
v 29.267889022827148 22.753076553344727 0
v -5.4383039474487305 31.296960830688477 0
v -33.222774505615234 9.6295433044433594 0
v -0.22971689701080322 -10.091178894042969 0
v 31.297662734985352 11.674606323242188 0
v 7.4399895668029785 -19.689384460449219 0
v -17.509490966796875 1.3678220510482788 0
v 3.7439942359924316 19.671920776367188 0
v -0.22641906142234802 -22.560321807861328 0
v -37.921249389648438 -24.898323059082031 0
v -20.266416549682617 -30.580970764160156 0
v -9.7455024719238281 21.9781494140625 0
v -22.310453414916992 25.950599670410156 0
v 8.2700157165527344 -7.4327149391174316 0
v 27.576913833618164 -35.0843505859375 0
v -9.755223274230957 -19.307165145874023 0
v -34.089115142822266 30.331686019897461 0
v 22.500957489013672 2.1104466915130615 0
v 41.540115356445312 -7.8101682662963867 0
v -0.99436819553375244 -40.9007568359375 0
v 34.926296234130859 -24.877910614013672 0
v -4.1187682151794434 -2.4322662353515625 0
v -43.198429107666016 -16.684768676757812 0
v 46.075828552246094 8.011815071105957 0
v -32.883319854736328 37.66546630859375 0
v -7.3095850944519043 -5.9972710609436035 0
vn 0 0 1
vn 0 0 1
vn 0 0 1
vn 0 0 1
vn 0 0 1
vn 0 0 1
vn 0 0 1
vn 0 0 1
vn 0 0 1
vn 0 0 1
vn 0 0 1
vn 0 0 1
vn 0 0 1
vn 0 0 1
vn 0 0 1
vn 0 0 1
vn 0 0 1
vn 0 0 1
vn 0 0 1
vn 0 0 1
vn 0 0 1
vn 0 0 1
vn 0 0 1
vn 0 0 1
vn 0 0 1
vn 0 0 1
vn 0 0 1
vn 0 0 1
vn 0 0 1
vn 0 0 1
vn 0 0 1
vn 0 0 1
vn 0 0 1
vn 0 0 1
vn 0 0 1
vn 0 0 1
vn 0 0 1
vn 0 0 1
vn 0 0 1
vn 0 0 1
vn 0 0 1
vn 0 0 1
vn 0 0 1
vn 0 0 1
vn 0 0 1
vn 0 0 1
vn 0 0 1
vn 0 0 1
vn 0 0 1
vn 0 0 1
vn 0 0 1
vn 0 0 1
vn 0 0 1
vn 0 0 1
vn 0 0 1
vn 0 0 1
vn 0 0 1
vn 0 0 1
vn 0 0 1
vn 0 0 1
vn 0 0 1
vn 0 0 1
vn 0 0 1
vn 0 0 1
vn 0 0 1
vn 0 0 1
vn 0 0 1
vn 0 0 1
vn 0 0 1
vn 0 0 1
vn 0 0 1
vn 0 0 1
vn 0 0 1
vn 0 0 1
vn 0 0 1
vn 0 0 1
vn 0 0 1
vn 0 0 1
vn 0 0 1
vn 0 0 1
vn 0 0 1
vn 0 0 1
vn 0 0 1
vn 0 0 1
vn 0 0 1
vn 0 0 1
vn 0 0 1
vn 0 0 1
vn 0 0 1
vn 0 0 1
vn 0 0 1
vn 0 0 1
vn 0 0 1
vn 0 0 1
vn 0 0 1
vn 0 0 1
vn 0 0 1
vn 0 0 1
vn 0 0 1
vn 0 0 1
vn 0 0 1
vn 0 0 1
vn 0 0 1
vn 0 0 1
vn 0 0 1
vn 0 0 1
vn 0 0 1
vn 0 0 1
vn 0 0 1
vn 0 0 1
vn 0 0 1
vn 0 0 1
vn 0 0 1
vn 0 0 1
vn 0 0 1
vn 0 0 1
vn 0 0 1
vn 0 0 1
vn 0 0 1
vn 0 0 1
vn 0 0 1
vn 0 0 1
vn 0 0 1
vn 0 0 1
vn 0 0 1
vn 0 0 1
vn 0 0 1
vn 0 0 1
vn 0 0 1
vn 0 0 1
vn 0 0 1
vn 0 0 1
vn 0 0 1
vn 0 0 1
vn 0 0 1
vn 0 0 1
vn 0 0 1
vn 0 0 1
vn 0 0 1
vn 0 0 1
vn 0 0 1
vn 0 0 1
vn 0 0 1
vn 0 0 1
vn 0 0 1
vn 0 0 1
vn 0 0 1
vn 0 0 1
vn 0 0 1
vn 0 0 1
vn 0 0 1
vn 0 0 1
vn 0 0 1
vn 0 0 1
vn 0 0 1
vn 0 0 1
vn 0 0 1
vn 0 0 1
vn 0 0 1
vn 0 0 1
vn 0 0 1
vn 0 0 1
vn 0 0 1
vn 0 0 1
vn 0 0 1
vn 0 0 1
vn 0 0 1
vn 0 0 1
vn 0 0 1
vn 0 0 1
vn 0 0 1
vn 0 0 1
vn 0 0 1
vn 0 0 1
vn 0 0 1
vn 0 0 1
vn 0 0 1
vn 0 0 1
vn 0 0 1
vn 0 0 1
vn 0 0 1
vn 0 0 1
vn 0 0 1
vn 0 0 1
vn 0 0 1
vn 0 0 1
vn 0 0 1
vn 0 0 1
vn 0 0 1
vn 0 0 1
vn 0 0 1
vn 0 0 1
vn 0 0 1
vn 0 0 1
vn 0 0 1
vn 0 0 1
vn 0 0 1
vn 0 0 1
vn 0 0 1
vn 0 0 1
vn 0 0 1
vn 0 0 1
vn 0 0 1
vn 0 0 1
vn 0 0 1
vn 0 0 1
vn 0 0 1
vn 0 0 1
vn 0 0 1
vn 0 0 1
vn 0 0 1
vn 0 0 1
vn 0 0 1
vn 0 0 1
vn 0 0 1
vn 0 0 1
vn 0 0 1
vn 0 0 1
vn 0 0 1
vn 0 0 1
vn 0 0 1
vn 0 0 1
vn 0 0 1
vn 0 0 1
vn 0 0 1
vn 0 0 1
vn 0 0 1
vn 0 0 1
vn 0 0 1
vn 0 0 1
vn 0 0 1
vn 0 0 1
vn 0 0 1
vn 0 0 1
vn 0 0 1
vn 0 0 1
vn 0 0 1
vn 0 0 1
vn 0 0 1
vn 0 0 1
vn 0 0 1
vn 0 0 1
vn 0 0 1
vn 0 0 1
vn 0 0 1
vn 0 0 1
vn 0 0 1
vn 0 0 1
vn 0 0 1
vn 0 0 1
vn 0 0 1
vn 0 0 1
vn 0 0 1
vn 0 0 1
vn 0 0 1
vn 0 0 1
vn 0 0 1
vn 0 0 1
vn 0 0 1
vn 0 0 1
vn 0 0 1
vn 0 0 1
vn 0 0 1
vn 0 0 1
vn 0 0 1
vn 0 0 1
vn 0 0 1
vn 0 0 1
vn 0 0 1
vn 0 0 1
vn 0 0 1
vn 0 0 1
vn 0 0 1
vn 0 0 1
vn 0 0 1
vn 0 0 1
vn 0 0 1
vn 0 0 1
vn 0 0 1
vn 0 0 1
vn 0 0 1
vn 0 0 1
vn 0 0 1
vn 0 0 1
vn 0 0 1
vn 0 0 1
vn 0 0 1
vn 0 0 1
vn 0 0 1
vn 0 0 1
vn 0 0 1
vn 0 0 1
vn 0 0 1
vn 0 0 1
vn 0 0 1
vn 0 0 1
vn 0 0 1
vn 0 0 1
vn 0 0 1
vn 0 0 1
vn 0 0 1
vn 0 0 1
vn 0 0 1
vn 0 0 1
vn 0 0 1
vn 0 0 1
vn 0 0 1
vn 0 0 1
vn 0 0 1
vn 0 0 1
vn 0 0 1
vn 0 0 1
vn 0 0 1
vn 0 0 1
vn 0 0 1
vn 0 0 1
vn 0 0 1
vn 0 0 1
vn 0 0 1
vn 0 0 1
vn 0 0 1
vn 0 0 1
vn 0 0 1
vn 0 0 1
vn 0 0 1
vn 0 0 1
vn 0 0 1
vn 0 0 1
vn 0 0 1
vn 0 0 1
vn 0 0 1
vn 0 0 1
vn 0 0 1
vn 0 0 1
vn 0 0 1
vn 0 0 1
vn 0 0 1
vn 0 0 1
vn 0 0 1
vn 0 0 1
vn 0 0 1
vn 0 0 1
vn 0 0 1
vn 0 0 1
vn 0 0 1
vn 0 0 1
vn 0 0 1
vn 0 0 1
vn 0 0 1
vn 0 0 1
vn 0 0 1
vn 0 0 1
vn 0 0 1
vn 0 0 1
vn 0 0 1
vn 0 0 1
vn 0 0 1
vn 0 0 1
vn 0 0 1
vn 0 0 1
vn 0 0 1
vn 0 0 1
vn 0 0 1
vn 0 0 1
vn 0 0 1
vn 0 0 1
vn 0 0 1
vn 0 0 1
vn 0 0 1
vn 0 0 1
vn 0 0 1
vn 0 0 1
vn 0 0 1
vn 0 0 1
vn 0 0 1
vn 0 0 1
vn 0 0 1
vn 0 0 1
vn 0 0 1
vn 0 0 1
vn 0 0 1
vn 0 0 1
vn 0 0 1
vn 0 0 1
vn 0 0 1
vn 0 0 1
vn 0 0 1
vn 0 0 1
vn 0 0 1
vn 0 0 1
vn 0 0 1
vn 0 0 1
vn 0 0 1
vn 0 0 1
vn 0 0 1
vn 0 0 1
vn 0 0 1
vn 0 0 1
vn 0 0 1
vn 0 0 1
vn 0 0 1
vn 0 0 1
vn 0 0 1
vn 0 0 1
vn 0 0 1
vn 0 0 1
vn 0 0 1
vn 0 0 1
vn 0 0 1
vn 0 0 1
vn 0 0 1
vn 0 0 1
vn 0 0 1
vn 0 0 1
vn 0 0 1
vn 0 0 1
vn 0 0 1
f 81//3 322//244 409//331
f 91//13 399//321 79//1
f 88//10 437//359 355//277
f 91//13 479//401 446//368
f 417//339 93//15 92//14
f 94//16 99//21 424//346
f 104//26 382//304 103//25
f 446//368 109//31 434//356
f 112//34 462//384 352//274
f 113//35 100//22 99//21
f 100//22 114//36 101//23
f 116//38 102//24 115//37
f 105//27 129//51 118//40
f 105//27 106//28 486//408
f 96//18 120//42 108//30
f 434//356 121//43 405//327
f 112//34 125//47 415//337
f 402//324 127//49 128//50
f 117//39 402//324 482//404
f 133//55 383//305 119//41
f 383//305 480//402 120//42
f 137//59 125//47 406//328
f 125//47 377//299 415//337
f 372//294 365//287 416//338
f 482//404 402//324 128//50
f 130//52 141//63 142//64
f 141//63 130//52 466//388
f 135//57 465//387 147//69
f 406//328 136//58 373//295
f 137//59 406//328 148//70
f 372//294 444//366 151//73
f 365//287 427//349 440//362
f 440//362 427//349 152//74
f 139//61 456//378 128//50
f 468//390 375//297 143//65
f 147//69 158//80 463//385
f 390//312 485//407 160//82
f 425//347 162//84 150//72
f 410//332 427//349 151//73
f 401//323 366//288 471//393
f 401//323 167//89 369//291
f 391//313 154//76 489//411
f 157//79 391//313 170//92
f 158//80 157//79 171//93
f 159//81 173//95 160//82
f 491//413 150//72 162//84
f 150//72 176//98 163//85
f 410//332 452//374 165//87
f 165//87 180//102 481//403
f 184//106 183//105 438//360
f 489//411 186//108 170//92
f 170//92 171//93 157//79
f 478//400 188//110 422//344
f 367//289 392//314 173//95
f 376//298 473//395 392//314
f 175//97 189//111 447//369
f 176//98 190//112 191//113
f 179//101 477//399 457//379
f 182//104 435//357 370//292
f 188//110 198//120 422//344
f 199//121 376//298 392//314
f 189//111 201//123 445//367
f 450//372 378//300 191//113
f 385//307 192//114 378//300
f 207//129 370//292 435//357
f 210//132 428//350 389//311
f 197//119 389//311 428//350
f 199//121 469//391 200//122
f 429//351 483//405 216//138
f 202//124 384//306 450//372
f 385//307 219//141 204//126
f 204//126 221//143 418//340
f 222//144 205//127 364//286
f 223//145 442//364 206//128
f 420//342 210//132 461//383
f 224//146 211//133 420//342
f 443//365 429//351 216//138
f 412//334 432//354 384//306
f 357//279 218//140 371//293
f 218//140 219//141 385//307
f 220//142 219//141 232//154
f 221//143 220//142 233//155
f 426//348 234//156 235//157
f 223//145 426//348 235//157
f 236//158 467//389 223//145
f 225//147 224//146 238//160
f 225//147 395//317 226//148
f 354//276 395//317 239//161
f 240//162 241//163 228//150
f 242//164 443//365 241//163
f 487//409 230//152 242//164
f 234//156 436//358 235//157
f 458//380 239//161 249//171
f 243//165 400//322 357//279
f 231//153 464//386 244//166
f 430//352 260//182 300//222
f 423//345 262//184 248//170
f 249//171 248//170 263//185
f 380//302 359//281 250//172
f 474//396 266//188 433//355
f 267//189 470//392 360//282
f 258//180 269//191 358//280
f 262//184 261//183 270//192
f 262//184 490//412 263//185
f 264//186 274//196 380//302
f 404//326 393//315 275//197
f 393//315 404//326 359//281
f 286//208 273//195 281//203
f 273//195 274//196 264//186
f 276//198 275//197 288//210
f 276//198 283//205 277//199
f 279//201 280//202 268//190
f 273//195 286//208 282//204
f 488//410 453//375 288//210
f 488//410 275//197 282//204
f 479//401 327//249 394//316
f 84//6 91//13 79//1
f 84//6 325//247 326//248
f 479//401 326//248 327//249
f 324//246 80//2 323//245
f 323//245 409//331 322//244
f 84//6 492//414 325//247
f 81//3 321//243 322//244
f 144//66 333//255 334//256
f 132//54 332//254 333//255
f 441//363 334//256 335//257
f 336//258 154//76 335//257
f 441//363 335//257 154//76
f 329//251 330//252 96//18
f 394//316 328//250 108//30
f 328//250 329//251 108//30
f 107//29 119//41 383//305
f 107//29 330//252 331//253
f 132//54 119//41 332//254
f 411//333 319//241 320//242
f 83//5 318//240 319//241
f 82//4 320//242 321//243
f 411//333 320//242 82//4
f 408//330 318//240 83//5
f 319//241 411//333 83//5
f 321//243 81//3 82//4
f 408//330 317//239 318//240
f 317//239 353//275 316//238
f 95//17 315//237 90//12
f 105//27 486//408 104//26
f 486//408 95//17 104//26
f 90//12 315//237 316//238
f 106//28 494//416 313//235
f 312//234 118//40 131//53
f 313//235 486//408 106//28
f 118//40 312//234 106//28
f 448//370 310//232 311//233
f 131//53 311//233 312//234
f 468//390 309//231 375//297
f 375//297 448//370 143//65
f 356//278 184//106 307//229
f 356//278 307//229 308//230
f 306//228 307//229 184//106
f 195//117 431//353 438//360
f 308//230 468//390 356//278
f 169//91 337//259 455//377
f 337//259 169//91 336//258
f 339//261 455//377 338//260
f 209//131 339//261 340//262
f 237//159 247//169 398//320
f 247//169 342//264 343//265
f 484//406 344//266 261//183
f 270//192 261//183 345//267
f 270//192 346//268 271//193
f 345//267 346//268 270//192
f 261//183 344//266 345//267
f 348//270 281//203 347//269
f 347//269 271//193 346//268
f 350//272 351//273 453//375
f 286//208 349//271 287//209
f 350//272 287//209 349//271
f 449//371 351//273 289//211
f 286//208 348//270 349//271
f 260//182 430//352 362//284
f 302//224 236//158 430//352
f 299//221 414//336 298//220
f 297//219 358//280 413//335
f 414//336 299//221 260//182
f 297//219 414//336 358//280
f 299//221 300//222 260//182
f 305//227 431//353 304//226
f 431//353 207//129 208//130
f 303//225 208//130 467//389
f 184//106 438//360 306//228
f 467//389 302//224 303//225
f 208//130 303//225 304//226
f 290//212 291//213 493//415
f 493//415 292//214 361//283
f 283//205 449//371 381//303
f 453//375 449//371 288//210
f 280//202 296//218 413//335
f 413//335 296//218 297//219
f 285//207 407//329 293//215
f 292//214 293//215 407//329
f 279//201 295//217 280//202
f 279//201 294//216 295//217
f 409//331 85//7 86//8
f 81//3 86//8 82//4
f 88//10 87//9 437//359
f 88//10 83//5 411//333
f 353//275 89//11 388//310
f 92//14 80//2 79//1
f 93//15 85//7 92//14
f 87//9 88//10 82//4
f 403//325 89//11 355//277
f 109//31 446//368 394//316
f 98//20 97//19 110//32
f 100//22 424//346 99//21
f 437//359 100//22 101//23
f 388//310 403//325 102//24
f 102//24 382//304 388//310
f 109//31 394//316 108//30
f 110//32 97//19 434//356
f 111//33 98//20 110//32
f 98//20 352//274 417//339
f 102//24 116//38 103//25
f 119//41 107//29 331//253
f 136//58 123//45 122//44
f 397//319 416//338 114//36
f 114//36 396//318 101//23
f 115//37 396//318 126//48
f 127//49 116//38 126//48
f 140//62 482//404 128//50
f 480//402 121//43 120//42
f 122//44 123//45 405//327
f 125//47 137//59 377//299
f 377//299 476//398 397//319
f 139//61 128//50 127//49
f 142//64 419//341 143//65
f 145//67 133//55 144//66
f 147//69 421//343 135//57
f 421//343 373//295 122//44
f 425//347 150//72 444//366
f 427//349 410//332 152//74
f 140//62 153//75 374//296
f 140//62 374//296 141//63
f 141//63 419//341 142//64
f 156//78 157//79 146//68
f 158//80 147//69 146//68
f 485//407 421//343 463//385
f 485//407 390//312 373//295
f 161//83 149//71 148//70
f 452//374 410//332 164//86
f 152//74 165//87 481//403
f 153//75 481//403 166//88
f 366//288 401//323 374//296
f 401//323 369//291 419//341
f 468//390 369//291 168//90
f 391//313 157//79 156//78
f 159//81 463//385 172//94
f 160//82 161//83 390//312
f 491//413 447//369 176//98
f 163//85 164//86 151//73
f 192//114 452//374 178//100
f 166//88 181//103 471//393
f 167//89 370//292 183//105
f 170//92 186//108 187//109
f 173//95 478//400 367//289
f 392//314 367//289 199//121
f 174//96 473//395 459//381
f 447//369 190//112 176//98
f 177//99 176//98 191//113
f 457//379 181//103 180//102
f 182//104 193//115 194//116
f 195//117 183//105 370//292
f 196//118 389//311 186//108
f 389//311 187//109 186//108
f 190//112 450//372 191//113
f 364//286 193//115 418//340
f 205//127 435//357 194//116
f 428//350 363//285 197//119
f 212//134 198//120 363//285
f 367//289 475//397 199//121
f 385//307 203//125 218//140
f 221//143 364//286 418//340
f 442//364 208//130 207//129
f 212//134 226//148 213//135
f 227//149 214//136 213//135
f 215//137 386//308 228//150
f 429//351 443//365 229//151
f 230//152 229//151 242//164
f 231//153 218//140 357//279
f 234//156 426//348 222//144
f 398//320 224//146 461//383
f 395//317 354//276 227//149
f 240//162 228//150 386//308
f 257//179 232//154 244//166
f 436//358 245//167 246//168
f 235//157 436//358 362//284
f 484//406 247//169 343//265
f 423//345 454//376 238//160
f 240//162 354//276 458//380
f 250//172 251//173 240//162
f 251//173 252//174 241//163
f 255//177 451//373 400//322
f 246//168 257//179 258//180
f 246//168 245//167 257//179
f 362//284 259//181 260//182
f 249//171 264//186 380//302
f 266//188 254//176 253//175
f 256//178 267//189 360//282
f 269//191 258//180 470//392
f 358//280 414//336 259//181
f 272//194 264//186 263//185
f 393//315 274//196 282//204
f 265//187 276//198 277//199
f 433//355 265//187 277//199
f 474//396 267//189 256//178
f 268//190 267//189 278//200
f 280//202 269//191 268//190
f 387//309 368//290 277//199
f 361//283 284//206 368//290
f 112//34 111//33 124//46
f 155//77 156//78 145//67
f 209//131 379//301 210//132
f 388//310 90//12 353//275
f 109//31 120//42 121//43
f 355//277 83//5 88//10
f 225//147 238//160 454//376
f 448//370 142//64 143//65
f 379//301 237//159 461//383
f 214//136 469//391 213//135
f 357//279 371//293 432//354
f 403//325 472//394 115//37
f 101//23 396//318 115//37
f 231//153 232//154 219//141
f 358//280 259//181 258//180
f 146//68 134//56 145//67
f 251//173 250//172 359//281
f 359//281 380//302 393//315
f 470//392 267//189 268//190
f 249//171 263//185 264//186
f 261//183 262//184 423//345
f 144//66 133//55 132//54
f 292//214 493//415 291//213
f 103//25 402//324 117//39
f 362//284 236//158 235//157
f 233//155 222//144 221//143
f 197//119 198//120 188//110
f 364//286 194//116 193//115
f 364//286 221//143 222//144
f 456//378 139//61 152//74
f 129//51 482//404 466//388
f 284//206 285//207 278//200
f 164//86 163//85 177//99
f 365//287 396//318 416//338
f 427//349 372//294 151//73
f 384//306 371//293 203//125
f 456//378 481//403 153//75
f 272//194 281//203 273//195
f 406//328 125//47 124//46
f 97//19 98//20 399//321
f 200//122 483//405 376//298
f 216//138 215//137 228//150
f 180//102 165//87 179//101
f 471//393 181//103 182//104
f 473//395 174//96 392//314
f 473//395 376//298 175//97
f 167//89 183//105 168//90
f 478//400 173//95 159//81
f 172//94 171//93 188//110
f 113//35 397//319 114//36
f 460//382 253//175 252//174
f 217//139 445//367 201//123
f 229//151 230//152 412//334
f 467//389 208//130 442//364
f 368//290 433//355 277//199
f 387//309 361//283 368//290
f 275//197 393//315 282//204
f 287//209 488//410 282//204
f 85//7 80//2 92//14
f 83//5 89//11 408//330
f 334//256 441//363 144//66
f 468//390 143//65 369//291
f 370//292 167//89 182//104
f 370//292 207//129 195//117
f 475//397 367//289 422//344
f 198//120 197//119 363//285
f 171//93 172//94 158//80
f 455//377 196//118 185//107
f 489//411 170//92 391//313
f 186//108 185//107 196//118
f 471//393 366//288 166//88
f 193//115 182//104 181//103
f 123//45 124//46 111//33
f 372//294 476//398 425//347
f 440//362 127//49 126//48
f 87//9 86//8 94//16
f 465//387 480//402 134//56
f 146//68 147//69 465//387
f 136//58 122//44 373//295
f 485//407 373//295 421//343
f 153//75 366//288 374//296
f 495//417 161//83 459//381
f 149//71 138//60 137//59
f 178//100 378//300 192//114
f 340//262 379//301 209//131
f 226//148 363//285 211//133
f 386//308 227//149 354//276
f 215//137 216//138 200//122
f 219//141 220//142 204//126
f 232//154 231//153 244//166
f 234//156 245//167 436//358
f 460//382 404//326 265//187
f 380//302 250//172 458//380
f 194//116 364//286 205//127
f 101//23 472//394 437//359
f 114//36 416//338 396//318
f 381//303 387//309 283//205
f 99//21 462//384 113//35
f 352//274 98//20 111//33
f 92//14 399//321 417//339
f 190//112 445//367 202//124
f 246//168 258//180 259//181
f 264//186 272//194 273//195
f 490//412 270//192 271//193
f 484//406 238//160 398//320
f 90//12 388//310 382//304
f 382//304 102//24 103//25
f 278//200 279//201 268//190
f 395//317 454//376 239//161
f 237//159 341//263 342//264
f 154//76 169//91 489//411
f 439//361 368//290 284//206
f 183//105 184//106 168//90
f 149//71 162//84 138//60
f 487//409 252//174 253//175
f 427//349 365//287 372//294
f 149//71 495//417 162//84
f 201//123 429//351 217//139
f 123//45 110//32 405//327
f 402//324 103//25 116//38
f 281//203 271//193 347//269
f 205//127 426//348 206//128
f 203//125 450//372 384//306
f 204//126 477//399 385//307
f 386//308 215//137 214//136
f 420//342 461//383 224//146
f 185//107 186//108 489//411
f 389//311 196//118 210//132
f 400//322 464//386 357//279
f 199//121 200//122 376//298
f 469//391 215//137 200//122
f 137//59 148//70 149//71
f 481//403 456//378 152//74
f 143//65 419//341 369//291
f 148//70 406//328 373//295
f 156//78 155//77 391//313
f 192//114 179//101 452//374
f 173//95 174//96 160//82
f 93//15 417//339 352//274
f 274//196 393//315 380//302
f 326//248 479//401 84//6
f 405//327 135//57 122//44
f 421//343 122//44 135//57
f 117//39 105//27 104//26
f 220//142 232//154 233//155
f 227//149 226//148 395//317
f 134//56 146//68 465//387
f 423//345 248//170 454//376
f 167//89 471//393 182//104
f 112//34 124//46 125//47
f 365//287 126//48 396//318
f 113//35 114//36 100//22
f 247//169 237//159 342//264
f 238//160 484//406 423//345
f 399//321 98//20 417//339
f 463//385 421//343 147//69
f 400//322 243//165 254//176
f 400//322 254//176 255//177
f 242//164 241//163 252//174
f 295//217 296//218 280//202
f 448//370 375//297 310//232
f 309//231 310//232 375//297
f 257//179 244//166 360//282
f 356//278 468//390 168//90
f 117//39 129//51 105//27
f 472//394 355//277 437//359
f 404//326 460//382 359//281
f 491//413 495//417 459//381
f 156//78 146//68 145//67
f 133//55 134//56 383//305
f 443//365 242//164 229//151
f 121//43 434//356 109//31
f 86//8 85//7 94//16
f 439//361 284//206 278//200
f 357//279 432//354 243//165
f 148//70 373//295 390//312
f 255//177 256//178 451//373
f 171//93 187//109 188//110
f 187//109 197//119 188//110
f 91//13 97//19 399//321
f 131//53 130//52 142//64
f 144//66 132//54 333//255
f 492//414 84//6 79//1
f 407//329 361//283 292//214
f 207//129 435//357 206//128
f 409//331 80//2 85//7
f 286//208 287//209 282//204
f 155//77 441//363 154//76
f 150//72 163//85 444//366
f 217//139 429//351 229//151
f 248//170 262//184 263//185
f 377//299 137//59 138//60
f 366//288 153//75 166//88
f 269//191 413//335 358//280
f 174//96 173//95 392//314
f 414//336 260//182 259//181
f 248//170 249//171 239//161
f 167//89 401//323 471//393
f 415//337 113//35 462//384
f 476//398 416//338 397//319
f 399//321 92//14 79//1
f 116//38 115//37 126//48
f 230//152 243//165 432//354
f 243//165 487//409 254//176
f 274//196 273//195 282//204
f 188//110 478//400 172//94
f 253//175 265//187 266//188
f 111//33 112//34 352//274
f 419//341 374//296 401//323
f 211//133 428//350 420//342
f 226//148 227//149 213//135
f 220//142 221//143 204//126
f 245//167 232//154 257//179
f 212//134 475//397 422//344
f 96//18 107//29 120//42
f 398//320 238//160 224//146
f 455//377 339//261 209//131
f 430//352 236//158 362//284
f 236//158 302//224 467//389
f 178//100 164//86 177//99
f 424//346 100//22 437//359
f 115//37 102//24 403//325
f 403//325 388//310 89//11
f 476//398 138//60 425//347
f 444//366 372//294 425//347
f 202//124 450//372 190//112
f 426//348 223//145 206//128
f 440//362 152//74 139//61
f 380//302 458//380 249//171
f 161//83 148//70 390//312
f 420//342 428//350 210//132
f 428//350 211//133 363//285
f 429//351 201//123 483//405
f 217//139 229//151 412//334
f 153//75 140//62 456//378
f 259//181 362//284 436//358
f 430//352 300//222 301//223
f 119//41 331//253 332//254
f 431//353 208//130 304//226
f 431//353 305//227 438//360
f 432//354 371//293 384//306
f 432//354 412//334 230//152
f 484//406 343//265 344//266
f 108//30 329//251 96//18
f 486//408 314//236 95//17
f 404//326 276//198 265//187
f 275//197 276//198 404//326
f 255//177 474//396 256//178
f 433//355 368//290 439//361
f 434//356 97//19 446//368
f 435//357 205//127 206//128
f 272//194 490//412 271//193
f 360//282 470//392 257//179
f 436//358 246//168 259//181
f 281//203 348//270 286//208
f 285//207 293//215 294//216
f 90//12 316//238 353//275
f 353//275 408//330 89//11
f 340//262 341//263 379//301
f 176//98 177//99 163//85
f 191//113 178//100 177//99
f 275//197 488//410 288//210
f 225//147 211//133 224//146
f 181//103 457//379 193//115
f 140//62 128//50 456//378
f 438//360 305//227 306//228
f 142//64 448//370 131//53
f 483//405 201//123 189//111
f 487//409 242//164 252//174
f 110//32 123//45 111//33
f 94//16 424//346 87//9
f 381//303 493//415 387//309
f 447//369 491//413 175//97
f 251//173 241//163 240//162
f 439//361 278//200 267//189
f 439//361 474//396 433//355
f 86//8 81//3 409//331
f 87//9 82//4 86//8
f 440//362 139//61 127//49
f 85//7 93//15 94//16
f 441//363 155//77 144//66
f 442//364 207//129 206//128
f 443//365 216//138 228//150
f 241//163 443//365 228//150
f 167//89 168//90 369//291
f 230//152 487//409 243//165
f 95//17 314//236 315//237
f 402//324 116//38 127//49
f 162//84 425//347 138//60
f 444//366 163//85 151//73
f 381//303 289//211 290//212
f 196//118 209//131 210//132
f 244//166 451//373 360//282
f 477//399 179//101 192//114
f 457//379 477//399 418//340
f 413//335 269//191 280//202
f 382//304 104//26 95//17
f 130//52 118//40 129//51
f 223//145 235//157 236//158
f 445//367 190//112 447//369
f 202//124 217//139 412//334
f 278//200 285//207 279//201
f 254//176 266//188 255//177
f 187//109 171//93 170//92
f 377//299 397//319 415//337
f 394//316 446//368 479//401
f 446//368 97//19 91//13
f 409//331 323//245 80//2
f 445//367 447//369 189//111
f 302//224 430//352 301//223
f 448//370 311//233 131//53
f 134//56 133//55 145//67
f 449//371 283//205 288//210
f 449//371 289//211 381//303
f 384//306 202//124 412//334
f 450//372 203//125 378//300
f 165//87 152//74 410//332
f 123//45 136//58 124//46
f 194//116 435//357 182//104
f 175//97 376//298 189//111
f 233//155 234//156 222//144
f 451//373 244//166 464//386
f 451//373 256//178 360//282
f 328//250 394//316 327//249
f 452//374 164//86 178//100
f 179//101 165//87 452//374
f 178//100 191//113 378//300
f 80//2 324//246 492//414
f 408//330 353//275 317//239
f 419//341 141//63 374//296
f 454//376 248//170 239//161
f 454//376 395//317 225//147
f 144//66 155//77 145//67
f 455//377 185//107 169//91
f 455//377 337//259 338//260
f 168//90 184//106 356//278
f 160//82 174//96 161//83
f 397//319 113//35 415//337
f 469//391 475//397 213//135
f 131//53 118//40 130//52
f 277//199 283//205 387//309
f 120//42 109//31 108//30
f 431//353 195//117 207//129
f 457//379 180//102 179//101
f 455//377 209//131 196//118
f 245//167 234//156 233//155
f 205//127 222//144 426//348
f 458//380 354//276 239//161
f 240//162 458//380 250//172
f 132//54 133//55 119//41
f 484//406 398//320 247//169
f 151//73 164//86 410//332
f 459//381 161//83 174//96
f 460//382 251//173 359//281
f 460//382 265//187 253//175
f 281//203 272//194 271//193
f 124//46 136//58 406//328
f 461//383 210//132 379//301
f 461//383 237//159 398//320
f 211//133 225//147 226//148
f 283//205 276//198 288//210
f 462//384 112//34 415//337
f 99//21 93//15 462//384
f 463//385 158//80 172//94
f 159//81 485//407 463//385
f 157//79 158//80 146//68
f 464//386 400//322 451//373
f 231//153 357//279 464//386
f 457//379 418//340 193//115
f 465//387 135//57 480//402
f 217//139 202//124 445//367
f 154//76 336//258 169//91
f 434//356 405//327 110//32
f 285//207 284//206 407//329
f 466//388 130//52 129//51
f 466//388 140//62 141//63
f 467//389 442//364 223//145
f 469//391 199//121 475//397
f 469//391 214//136 215//137
f 470//392 258//180 257//179
f 470//392 268//190 269//191
f 126//48 365//287 440//362
f 203//125 385//307 378//300
f 203//125 371//293 218//140
f 181//103 166//88 180//102
f 287//209 350//272 453//375
f 414//336 297//219 298//220
f 90//12 382//304 95//17
f 438//360 183//105 195//117
f 82//4 88//10 411//333
f 472//394 101//23 115//37
f 472//394 403//325 355//277
f 473//395 175//97 459//381
f 474//396 255//177 266//188
f 474//396 439//361 267//189
f 475//397 212//134 213//135
f 212//134 422//344 198//120
f 354//276 240//162 386//308
f 476//398 377//299 138//60
f 476//398 372//294 416//338
f 93//15 99//21 94//16
f 352//274 462//384 93//15
f 192//114 385//307 477//399
f 477//399 204//126 418//340
f 107//29 96//18 330//252
f 120//42 107//29 383//305
f 478//400 159//81 172//94
f 478//400 422//344 367//289
f 479//401 91//13 84//6
f 285//207 294//216 279//201
f 468//390 308//230 309//231
f 252//174 251//173 460//382
f 226//148 212//134 363//285
f 237//159 379//301 341//263
f 480//402 383//305 134//56
f 480//402 135//57 121//43
f 481//403 180//102 166//88
f 482//404 129//51 117//39
f 482//404 140//62 466//388
f 227//149 386//308 214//136
f 218//140 231//153 219//141
f 483//405 189//111 376//298
f 483//405 200//122 216//138
f 484//406 261//183 423//345
f 485//407 159//81 160//82
f 486//408 313//235 314//236
f 106//28 105//27 118//40
f 232//154 245//167 233//155
f 135//57 405//327 121//43
f 487//409 253//175 254//176
f 488//410 287//209 453//375
f 437//359 87//9 424//346
f 284//206 361//283 407//329
f 187//109 389//311 197//119
f 453//375 351//273 449//371
f 83//5 355//277 89//11
f 154//76 391//313 155//77
f 489//411 169//91 185//107
f 104//26 103//25 117//39
f 490//412 262//184 270//192
f 490//412 272//194 263//185
f 491//413 459//381 175//97
f 491//413 176//98 150//72
f 492//414 79//1 80//2
f 492//414 324//246 325//247
f 493//415 381//303 290//212
f 493//415 361//283 387//309
f 265//187 433//355 266//188
f 494//416 106//28 312//234
f 495//417 149//71 161//83
f 495//417 491//413 162//84
usemtl diffuse_ControlText
v 24.625436782836914 -43.515377044677734 0
v 29.234394073486328 -40.562915802001953 0
cstype bspline
deg 1
curv 0 5.4735285416751962 496 497
parm u 0 0 5.4735285416751962 5.4735285416751962
end
usemtl diffuse_ControlText
v 19.842746734619141 -45.894065856933594 0
v 24.625436782836914 -43.515377044677734 0
cstype bspline
deg 1
curv 0 5.3415619965392631 498 499
parm u 0 0 5.3415619965392631 5.3415619965392631
end
usemtl diffuse_ControlText
v 15.045808792114258 -47.682529449462891 0
v 19.842746734619141 -45.894065856933594 0
cstype bspline
deg 1
curv 0 5.1194936904000361 500 501
parm u 0 0 5.1194936904000361 5.1194936904000361
end
usemtl diffuse_ControlText
v 10.356281280517578 -48.915718078613281 0
v 15.045808792114258 -47.682529449462891 0
cstype bspline
deg 1
curv 0 4.848960968814656 502 503
parm u 0 0 4.848960968814656 4.848960968814656
end
usemtl diffuse_ControlText
v 6.385350227355957 -49.590595245361328 0
v 10.356281280517578 -48.915718078613281 0
cstype bspline
deg 1
curv 0 4.0278719715454132 504 505
parm u 0 0 4.0278719715454132 4.0278719715454132
end
usemtl diffuse_ControlText
v 2.3191184997558594 -49.946186065673828 0
v 6.385350227355957 -49.590595245361328 0
cstype bspline
deg 1
curv 0 4.0817502733548254 506 507
parm u 0 0 4.0817502733548254 4.0817502733548254
end
usemtl diffuse_ControlText
v -2.5932381153106689 -49.932704925537109 0
v 2.3191184997558594 -49.946186065673828 0
cstype bspline
deg 1
curv 0 4.9123751133975162 508 509
parm u 0 0 4.9123751133975162 4.9123751133975162
end
usemtl diffuse_ControlText
v -7.4103507995605469 -49.447818756103516 0
v -2.5932381153106689 -49.932704925537109 0
cstype bspline
deg 1
curv 0 4.841455278123413 510 511
parm u 0 0 4.841455278123413 4.841455278123413
end
usemtl diffuse_ControlText
v -12.423442840576172 -48.431995391845703 0
v -7.4103507995605469 -49.447818756103516 0
cstype bspline
deg 1
curv 0 5.114976922632815 512 513
parm u 0 0 5.114976922632815 5.114976922632815
end
usemtl diffuse_ControlText
v -16.911371231079102 -47.053218841552734 0
v -12.423442840576172 -48.431995391845703 0
cstype bspline
deg 1
curv 0 4.6949468595416493 514 515
parm u 0 0 4.6949468595416493 4.6949468595416493
end
usemtl diffuse_ControlText
v -21.497783660888672 -45.142501831054688 0
v -16.911371231079102 -47.053218841552734 0
cstype bspline
deg 1
curv 0 4.9685026386747868 516 517
parm u 0 0 4.9685026386747868 4.9685026386747868
end
usemtl diffuse_ControlText
v -25.713497161865234 -42.881420135498047 0
v -21.497783660888672 -45.142501831054688 0
cstype bspline
deg 1
curv 0 4.7837987788260241 518 519
parm u 0 0 4.7837987788260241 4.7837987788260241
end
usemtl diffuse_ControlText
v -29.617137908935547 -40.2843017578125 0
v -25.713497161865234 -42.881420135498047 0
cstype bspline
deg 1
curv 0 4.6886495870239306 520 521
parm u 0 0 4.6886495870239306 4.6886495870239306
end
usemtl diffuse_ControlText
v -49.999732971191406 0.16314680874347687 0
v -49.703990936279297 -5.4325962066650391 0
cstype bspline
deg 1
curv 0 5.6035527342666409 522 523
parm u 0 0 5.6035527342666409 5.6035527342666409
end
usemtl diffuse_ControlText
v -49.778312683105469 4.7031407356262207 0
v -49.999732971191406 0.16314680874347687 0
cstype bspline
deg 1
curv 0 4.5453901702833228 524 525
parm u 0 0 4.5453901702833228 4.5453901702833228
end
usemtl diffuse_ControlText
v -20.514858245849609 45.59759521484375 0
v -25.072664260864258 43.259235382080078 0
cstype bspline
deg 1
curv 0 5.1226479849767399 526 527
parm u 0 0 5.1226479849767399 5.1226479849767399
end
usemtl diffuse_ControlText
v -15.880573272705078 47.411048889160156 0
v -20.514858245849609 45.59759521484375 0
cstype bspline
deg 1
curv 0 4.9764657580661478 528 529
parm u 0 0 4.9764657580661478 4.9764657580661478
end
usemtl diffuse_ControlText
v -11.65247631072998 48.623245239257812 0
v -15.880573272705078 47.411048889160156 0
cstype bspline
deg 1
curv 0 4.3984342567615045 530 531
parm u 0 0 4.3984342567615045 4.3984342567615045
end
usemtl diffuse_ControlText
v -7.0446624755859375 49.501239776611328 0
v -11.65247631072998 48.623245239257812 0
cstype bspline
deg 1
curv 0 4.6907166560097693 532 533
parm u 0 0 4.6907166560097693 4.6907166560097693
end
usemtl diffuse_ControlText
v -2.3809936046600342 49.943275451660156 0
v -7.0446624755859375 49.501239776611328 0
cstype bspline
deg 1
curv 0 4.6845707248006372 534 535
parm u 0 0 4.6845707248006372 4.6845707248006372
end
usemtl diffuse_ControlText
v 2.4815206527709961 49.938381195068359 0
v -2.3809936046600342 49.943275451660156 0
cstype bspline
deg 1
curv 0 4.8625167205334758 536 537
parm u 0 0 4.8625167205334758 4.8625167205334758
end
usemtl diffuse_ControlText
v 7.5305085182189941 49.429660797119141 0
v 2.4815206527709961 49.938381195068359 0
cstype bspline
deg 1
curv 0 5.0745516953451899 538 539
parm u 0 0 5.0745516953451899 5.0745516953451899
end
usemtl diffuse_ControlText
v 12.81440258026123 48.330020904541016 0
v 7.5305085182189941 49.429660797119141 0
cstype bspline
deg 1
curv 0 5.3971051826172927 540 541
parm u 0 0 5.3971051826172927 5.3971051826172927
end
usemtl diffuse_ControlText
v 18.126071929931641 46.598770141601562 0
v 12.81440258026123 48.330020904541016 0
cstype bspline
deg 1
curv 0 5.5866860019520086 542 543
parm u 0 0 5.5866860019520086 5.5866860019520086
end
usemtl diffuse_ControlText
v 21.936216354370117 44.931083679199219 0
v 18.126071929931641 46.598770141601562 0
cstype bspline
deg 1
curv 0 4.1591319613543947 544 545
parm u 0 0 4.1591319613543947 4.1591319613543947
end
