# Exported by export_obj
# Vertices: 61
# Faces: 96
v -25.9953826408 -44.9790312685 -11.7304580113
v -22.5903191062 -39.1544907741 -2.342822679
v -34.9871768326 -36.3941886309 -9.36131053
v -13.98025853 -48.5048572221 -9.3437982436
v -7.82927698653 -40.6992778438 1.61798149541
v 0.0157471179471 -49.3799327014 -7.6892016341
v 7.81966688419 -40.7018725385 1.63729537295
v 14.0040786729 -48.5133221204 -9.30578595169
v 22.620953145 -39.1535290805 -2.25868066492
v 25.9994184051 -44.9934104483 -11.6667604662
v 35.0222262173 -36.388028665 -9.31467852752
v -31.3288262993 -27.1167886431 1.59511255397
v -42.7529406027 -24.6866597303 -7.71562131405
v -16.6610545731 -28.8451499324 8.16143623872
v -0.0106020623849 -29.4665834064 10.5165626695
v 16.661107842 -28.8236683905 8.15890646104
v 31.3173814425 -27.1393880072 1.63976265462
v 42.7938312875 -24.6989404707 -7.63441953921
v -39.1731900209 -13.5669764061 1.59932208387
v -49.0062548319 -12.1133283672 -9.40993789965
v -25.5232757678 -14.7228101593 10.4779854941
v -8.90038922414 -15.382911585 15.5658609283
v 8.87900996982 -15.3852551093 15.5382955574
v 25.5098068744 -14.7416481263 10.5755859273
v 39.1757745562 -13.5747288149 1.69057210933
v 49.0199754041 -12.1464456261 -9.31290467786
v -45.2100774338 0.00412049279341 -2.34246831603
v -51.9497440653 0.0177382634227 -11.7713019287
v -33.318230945 0.0090634468744 8.12545823636
v -17.7751675497 0.000864697981517 15.5123525688
v 0.00219831889122 -0.000747376937879 18.2905600044
v 17.7449075935 0.00338972027032 15.5510600905
v 33.297600092 -0.00737332539396 8.18683549257
v 45.2108749601 -0.00816300351276 -2.25251031858
v 51.9659963244 -0.0258593882245 -11.6447436665
v -48.9974226633 12.1419735511 -9.41771558312
v -39.1863337522 13.5620303853 1.59841489168
v -25.5310766521 14.7450568677 10.5151737681
v -8.90871098713 15.3935647345 15.5205889506
v 8.87183952287 15.3859303288 15.5818568769
v 25.4961418586 14.7376887712 10.5300342417
v 39.1710252349 13.5648383946 1.67625660627
v 49.0107359004 12.1123184647 -9.28896880448
v -42.7810045553 24.6931299014 -7.72976551624
v -31.3349372503 27.1247277137 1.5615070391
v -16.6605483643 28.8409602722 8.12214085115
v -0.00594363789376 29.4720437952 10.4967164905
v 16.644690163 28.8443724569 8.17593990666
v 31.3194757905 27.1374597717 1.64789810732
v 42.76870193 24.6879854414 -7.6313391013
v -34.9989427674 36.3814166856 -9.40470551307
v -22.5992362776 39.1627075448 -2.3188176755
v -7.81857148951 40.7035064427 1.60159099082
v 7.81782713228 40.6804917805 1.63723331245
v 22.6011453357 39.1535291106 -2.30732682528
v 35.0090235952 36.392591697 -9.30005924415
v -25.9729431352 44.9970385973 -11.748768845
v -13.9769165602 48.5099641474 -9.36155266659
v -0.00317500701127 49.3722397536 -7.69720088444
v 14.0014218577 48.4981456354 -9.33100473301
v 25.9976170463 44.9849412527 -11.6858520906
f 1 2 3
f 1 4 2
f 4 5 2
f 4 6 5
f 6 7 5
f 6 8 7
f 8 9 7
f 8 10 9
f 10 11 9
f 3 12 13
f 3 2 12
f 2 14 12
f 2 5 14
f 5 15 14
f 5 7 15
f 7 16 15
f 7 9 16
f 9 17 16
f 9 11 17
f 11 18 17
f 13 19 20
f 13 12 19
f 12 21 19
f 12 14 21
f 14 22 21
f 14 15 22
f 15 23 22
f 15 16 23
f 16 24 23
f 16 17 24
f 17 25 24
f 17 18 25
f 18 26 25
f 20 27 28
f 20 19 27
f 19 29 27
f 19 21 29
f 21 30 29
f 21 22 30
f 22 31 30
f 22 23 31
f 23 32 31
f 23 24 32
f 24 33 32
f 24 25 33
f 25 34 33
f 25 26 34
f 26 35 34
f 28 27 36
f 27 37 36
f 27 29 37
f 29 38 37
f 29 30 38
f 30 39 38
f 30 31 39
f 31 40 39
f 31 32 40
f 32 41 40
f 32 33 41
f 33 42 41
f 33 34 42
f 34 43 42
f 34 35 43
f 36 37 44
f 37 45 44
f 37 38 45
f 38 46 45
f 38 39 46
f 39 47 46
f 39 40 47
f 40 48 47
f 40 41 48
f 41 49 48
f 41 42 49
f 42 50 49
f 42 43 50
f 44 45 51
f 45 52 51
f 45 46 52
f 46 53 52
f 46 47 53
f 47 54 53
f 47 48 54
f 48 55 54
f 48 49 55
f 49 56 55
f 49 50 56
f 51 52 57
f 52 58 57
f 52 53 58
f 53 59 58
f 53 54 59
f 54 60 59
f 54 55 60
f 55 61 60
f 55 56 61
