####
#
# OBJ File Generated by Meshlab
#
####
# Object curved_discrete.obj
#
# Vertices: 56
# Faces: 83
#
####
vn -1.2204970 0.8755591 -1.2745812
v -1.2500000 -1.0000000 0.2197266
vn -1.8339502 1.2365351 -2.0814166
v -1.2495737 -0.8301402 0.3360017
vn -1.8525677 0.6441980 -2.2117937
v -1.2497871 -0.3730219 0.5484300
vn -1.9309016 0.0228297 -2.2249668
v -1.2492485 -0.0029597 0.6096076
vn -1.9017241 -0.4915135 -2.2360566
v -1.2498465 0.2383933 0.5815393
vn -1.8129969 -1.0371354 -2.1656647
v -1.2498828 0.7005122 0.4112645
vn -1.8663845 -1.3595601 -2.0424917
v -1.2499112 0.9601285 0.2501194
vn -1.1474770 -0.9829533 -1.2861582
v -1.2500000 1.0000000 0.2197266
vn -1.8661702 1.3565878 -2.0778627
v -1.2043763 -0.9999681 0.1760608
vn -1.5224228 1.3729142 -2.2743258
v -0.9247670 -0.9998904 -0.0515967
vn -3.2019165 -2.4927883 -4.7760639
v -0.8855194 0.7036399 0.1108873
vn -1.7024338 -1.3937218 -2.1593034
v -1.0684571 0.9998799 0.0578506
vn -3.6280859 0.6420799 -5.0536451
v -0.9319753 -0.1635525 0.3239251
vn -2.6136293 -1.7649615 -5.4104180
v -0.6398948 0.4252170 0.0872152
vn -0.9071226 1.4718248 -2.4251587
v -0.5584307 -0.9997557 -0.2624899
vn -2.0598886 -2.8130991 -5.2043877
v -0.5043290 0.7015039 -0.0942299
vn -1.2638965 -1.4851066 -2.3289883
v -0.7263341 0.9999103 -0.1794099
vn -2.5535076 -0.2882489 -5.6995912
v -0.5894913 0.0688302 0.1311493
vn -0.2566075 1.6624813 -2.4229789
v -0.0729973 -0.9997870 -0.3809670
vn -1.2139876 2.4546351 -5.6186895
v -0.3012926 -0.5854872 -0.0954996
vn -0.5984758 -1.5139788 -2.4332914
v -0.3685877 0.9997919 -0.3361653
vn -1.0255699 -1.5761622 -5.9371762
v -0.2363092 0.3593912 -0.0293205
vn 0.8087823 -2.5439327 -5.6453152
v 0.1833689 0.5681656 -0.1104771
vn 0.4900106 1.6467431 -2.4029274
v 0.2812033 -0.9996657 -0.3593628
vn 1.3502989 0.8403604 -6.0442266
v 0.2920806 -0.1819347 0.0199237
vn 0.3134282 -1.4870532 -2.4996896
v 0.1807902 0.9959430 -0.3715717
vn 1.1304439 1.5123019 -2.3639336
v 0.6290376 -0.9998221 -0.2275859
vn 1.0157427 -0.7632079 -6.1130342
v 0.2150799 0.1660743 0.0075807
vn 2.6008348 0.0857192 -5.6814227
v 0.5946750 -0.0253221 0.1365872
vn 2.4664135 2.7923670 -5.0328131
v 0.6327829 -0.7233930 -0.0503134
vn 1.0772746 -1.5018623 -2.3596792
v 0.6274177 0.9998541 -0.2277484
vn 1.6300585 1.4115987 -2.1752424
v 1.0467769 -0.9998942 0.0398788
vn 3.5403485 1.1007086 -5.0477977
v 0.9256491 -0.2835677 0.3015276
vn 1.6313137 -1.5132477 -2.0920887
v 1.0154315 0.9998426 0.0140256
vn 1.1137220 0.8548089 -1.3121347
v 1.2500000 -1.0000000 0.2197266
vn 1.7821839 0.9311126 -2.1840558
v 1.2479964 -0.6116964 0.4584662
vn 1.8479356 0.2494742 -2.2524235
v 1.2498028 -0.1176156 0.6005633
vn 1.8788111 -0.3831240 -2.2262859
v 1.2496989 0.2141793 0.5906011
vn 1.8962277 -0.9488069 -2.1182404
v 1.2457820 0.5796396 0.4728146
vn 1.0968273 -0.8171160 -1.3331467
v 1.2500000 1.0000000 0.2197266
vn 2.5143137 -1.7029840 -5.4595299
v 0.6100076 0.4127236 0.0790995
vn -3.4373150 2.2042921 -4.7507443
v -0.9547912 -0.6082760 0.2082342
vn 3.0282874 -2.7042198 -4.7829552
v 0.8382786 0.7782632 0.0361626
vn -2.4799383 1.4980314 -5.5400028
v -0.5989963 -0.3565919 0.0924550
vn 2.4939291 1.6278136 -5.5001264
v 0.5983182 -0.3985633 0.0803685
vn 0.8753697 2.2570231 -5.7505999
v 0.2001771 -0.5138174 -0.0865942
vn 1.4335989 3.2072947 -5.1874642
v 0.3465452 -0.8026994 -0.2053661
vn -3.6373045 -1.1218890 -4.9626093
v -0.9658870 0.2848419 0.3298272
vn 1.9393537 -2.9374452 -5.1913605
v 0.4883015 0.7501808 -0.1235119
vn -0.5800465 -2.9690084 -5.4851146
v -0.1512369 0.7226325 -0.1954084
vn -0.2026366 3.2588429 -5.3325071
v -0.0175640 -0.8043467 -0.2527400
vn -2.5519552 2.7513318 -5.0212946
v -0.6697419 -0.7075467 -0.0246965
vn 3.6105082 -1.9414318 -4.7377615
v 1.0166266 0.5206470 0.2941010
vn 3.3742132 2.3825979 -4.7148290
v 0.9475635 -0.6709267 0.1774022
vn -0.6908617 0.6253995 -6.1489024
v -0.1477439 -0.1463688 -0.0026264
vn 3.6579914 -0.4830858 -5.0498123
v 0.9356371 0.1218198 0.3392785
# 56 vertices, 0 vertices normals

f 1//1 2//2 9//9
f 2//2 3//3 42//42
f 36//36 33//33 37//37
f 3//3 4//4 13//13
f 13//13 4//4 48//48
f 6//6 12//12 11//11
f 7//7 12//12 6//6
f 7//7 8//8 12//12
f 16//16 11//11 17//17
f 49//49 31//31 43//43
f 16//16 17//17 21//21
f 23//23 50//50 26//26
f 5//5 6//6 48//48
f 43//43 31//31 34//34
f 16//16 14//14 11//11
f 49//49 26//26 31//31
f 28//28 22//22 23//23
f 46//46 25//25 45//45
f 22//22 14//14 16//16
f 30//30 32//32 27//27
f 4//4 5//5 48//48
f 44//44 18//18 55//55
f 18//18 14//14 22//22
f 42//42 3//3 13//13
f 55//55 22//22 28//28
f 20//20 55//55 46//46
f 50//50 16//16 21//21
f 28//28 41//41 29//29
f 45//45 25//25 29//29
f 50//50 22//22 16//16
f 51//51 15//15 20//20
f 22//22 50//50 23//23
f 41//41 49//49 43//43
f 53//53 39//39 38//38
f 25//25 28//28 29//29
f 56//56 53//53 38//38
f 49//49 23//23 26//26
f 48//48 6//6 11//11
f 25//25 55//55 28//28
f 30//30 27//27 47//47
f 18//18 22//22 55//55
f 11//11 12//12 17//17
f 11//11 14//14 48//48
f 27//27 24//24 47//47
f 54//54 32//32 30//30
f 47//47 51//51 46//46
f 19//19 51//51 24//24
f 51//51 47//47 24//24
f 25//25 46//46 55//55
f 30//30 47//47 46//46
f 42//42 13//13 44//44
f 20//20 44//44 55//55
f 42//42 10//10 9//9
f 43//43 53//53 41//41
f 42//42 9//9 2//2
f 44//44 52//52 42//42
f 42//42 52//52 10//10
f 20//20 15//15 52//52
f 28//28 23//23 41//41
f 48//48 14//14 18//18
f 13//13 48//48 18//18
f 13//13 18//18 44//44
f 50//50 21//21 26//26
f 51//51 20//20 46//46
f 15//15 51//51 19//19
f 41//41 23//23 49//49
f 10//10 52//52 15//15
f 20//20 52//52 44//44
f 45//45 54//54 30//30
f 45//45 30//30 46//46
f 33//33 45//45 29//29
f 54//54 45//45 33//33
f 32//32 54//54 35//35
f 43//43 34//34 40//40
f 33//33 36//36 54//54
f 54//54 36//36 35//35
f 56//56 38//38 37//37
f 29//29 41//41 56//56
f 29//29 56//56 33//33
f 33//33 56//56 37//37
f 53//53 43//43 40//40
f 39//39 53//53 40//40
f 56//56 41//41 53//53
# 83 faces, 0 coords texture

# End of File
