####
#
# OBJ File Generated by Meshlab
#
####
# Object curved_surface.obj
#
# Vertices: 152
# Faces: 256
#
####
vn -1.2124197 0.9576585 -1.2660830
v -1.2500000 -1.0000000 0.2197266
vn -1.8788792 1.4250122 -2.0071712
v -1.2498080 -0.9380162 0.2664269
vn -1.9024518 1.1406673 -2.1115923
v -1.2493396 -0.7222642 0.4055765
vn -1.9545026 0.8043107 -2.1639519
v -1.2498739 -0.4978337 0.5129473
vn -1.9924190 0.4210789 -2.2321539
v -1.2497003 -0.2482101 0.5839127
vn -2.0496593 0.0446494 -2.2512729
v -1.2492485 -0.0029597 0.6096076
vn -2.0373771 -0.2515548 -2.2289450
v -1.2499864 0.1213031 0.6044571
vn -1.9981645 -0.6042715 -2.2060537
v -1.2497065 0.3554836 0.5586215
vn -1.9600618 -0.9523261 -2.1178036
v -1.2498794 0.5762467 0.4788045
vn -1.8706124 -1.2486608 -2.0944839
v -1.2498863 0.8247777 0.3437245
vn -1.8523618 -1.4746203 -2.0239451
v -1.2499112 0.9601285 0.2501194
vn -1.1877595 -0.9735342 -1.2736788
v -1.2500000 1.0000000 0.2197266
vn -1.8675582 1.4563239 -2.0246792
v -1.2043763 -0.9999681 0.1760608
vn -3.9419112 -1.9018817 -4.4983435
v -1.1430261 0.5396605 0.3963620
vn -1.6609231 1.4871495 -2.1542914
v -1.0182737 -0.9998572 0.0160721
vn -4.0939379 -0.3539880 -4.7453194
v -1.0973862 0.0922305 0.4661468
vn -1.8020518 -1.5168519 -2.0369582
v -1.1446471 0.9999470 0.1215211
vn -4.0265908 -1.1225307 -4.6820211
v -1.1104691 0.3040336 0.4452981
vn -3.9957924 1.3068895 -4.6616979
v -1.0999753 -0.3621722 0.4214911
vn -3.6303191 -2.8911207 -4.2317419
v -1.0983202 0.8862684 0.1651873
vn -3.6157584 -2.4115005 -4.5316000
v -1.0339730 0.6941983 0.2285103
vn -3.6377373 0.8975392 -5.0320425
v -0.9303663 -0.2302286 0.3174349
vn -1.6413012 -1.5386503 -2.1356897
v -0.9922670 0.9998127 -0.0058201
vn -1.4451580 1.5693905 -2.2392397
v -0.8312603 -0.9999237 -0.1192656
vn -3.1760607 0.2776605 -5.4003372
v -0.7568251 -0.0668440 0.2224401
vn -3.0958900 -2.3094091 -4.9448390
v -0.8085189 0.5997683 0.1148285
vn -3.7048984 -0.9149722 -4.9820070
v -0.9545708 0.2406509 0.3329190
vn -1.4121143 -1.5793455 -2.2441819
v -0.8324996 0.9999330 -0.1192603
vn -1.1565789 1.6190863 -2.3339241
v -0.6707981 -0.9998008 -0.2145785
vn -3.3018022 -1.4930918 -5.1230693
v -0.8308448 0.3768800 0.2153215
vn -0.8012610 1.6883533 -2.4132252
v -0.4460633 -0.9997107 -0.3104014
vn -1.8384240 -3.1989069 -5.0771303
v -0.4651845 0.8137116 -0.1723584
vn -2.4489086 2.2274418 -5.3304052
v -0.6004258 -0.5322923 0.0286583
vn -1.0803444 -1.6382957 -2.3432560
v -0.6201686 0.9998876 -0.2395594
vn -2.6028678 -0.4861248 -5.6848011
v -0.5949817 0.1055267 0.1339587
vn -2.3330841 1.4615984 -5.6390147
v -0.5308127 -0.3315355 0.0670634
vn -1.8271117 -0.1021150 -5.9988098
v -0.3934047 0.0246273 0.0607252
vn -1.9147786 3.3024981 -4.9839826
v -0.5024087 -0.8543459 -0.1863195
vn -0.3576687 1.7122917 -2.4584994
v -0.1923078 -0.9998760 -0.3751590
vn -1.9895637 -1.0127056 -5.8649850
v -0.4437394 0.2293501 0.0564290
vn -1.6545781 1.9735911 -5.7194290
v -0.3780551 -0.4437796 -0.0198143
vn -0.6580445 -1.6740091 -2.4268625
v -0.3685877 0.9997919 -0.3361653
vn -1.7334268 -1.8771453 -5.7273250
v -0.3829277 0.4199002 -0.0097360
vn -1.3605520 -2.7035379 -5.4950080
v -0.3114303 0.6315511 -0.1187385
vn -0.0942942 -3.3786683 -5.2898993
v -0.0281128 0.8238500 -0.2641681
vn 0.0801041 1.7330170 -2.4990003
v 0.0463132 -0.9996979 -0.3867750
vn -0.6600912 1.5482610 -6.0349674
v -0.1366803 -0.3305608 -0.0351455
vn -0.8856177 0.3041173 -6.1953440
v -0.1813456 -0.0652438 0.0125217
vn -0.1454730 3.0654135 -5.4722385
v -0.0314101 -0.7234591 -0.2035591
vn 0.1797155 0.6809729 -6.2305489
v 0.0328649 -0.1435120 -0.0073163
vn -0.1399100 -1.7321236 -2.4856505
v -0.0672694 0.9996668 -0.3864070
vn 0.3080316 -1.3221303 -6.1138387
v 0.0700833 0.2748727 -0.0278221
vn 0.4137965 1.6069269 -6.0508971
v 0.0931405 -0.3373662 -0.0406264
vn 0.5247409 3.4429965 -5.2209234
v 0.1299200 -0.8507972 -0.2766210
vn 0.2189563 -1.8253329 -2.4142756
v 0.1280935 0.9998180 -0.3839924
vn 0.5439788 -3.0837240 -5.4377670
v 0.1248003 0.7346075 -0.2045420
vn 0.8030959 -0.1611899 -6.2170720
v 0.1670484 0.0302862 0.0113416
vn 0.5060104 1.7164613 -2.4454341
v 0.2812033 -0.9996657 -0.3593628
vn 0.5407938 -3.5545282 -5.1455860
v 0.1343171 0.8977355 -0.3062477
vn 0.8447431 2.8800778 -5.5091000
v 0.1981007 -0.6737787 -0.1615280
vn 1.1767080 2.0902913 -5.7926946
v 0.2569315 -0.4675752 -0.0596882
vn 1.3053782 1.0009490 -6.0449109
v 0.2735694 -0.2132154 0.0123106
vn 0.5889243 -1.7516764 -2.4312291
v 0.3293170 0.9998415 -0.3476878
vn 0.9173179 1.6635003 -2.3860431
v 0.4974020 -0.9997890 -0.2924055
vn 1.3292834 -1.9352103 -5.8169594
v 0.2956207 0.4316600 -0.0385079
vn 1.4150382 -0.9379562 -6.0374336
v 0.3089149 0.1998734 0.0210985
vn 2.2422695 -0.4497913 -5.8402481
v 0.4977553 0.1022398 0.0922331
vn 0.9232394 -1.6700550 -2.3999979
v 0.4920235 0.9998543 -0.2934776
vn 2.2945867 3.1248238 -4.9362464
v 0.5937493 -0.8193127 -0.1244281
vn 2.2572341 0.6725410 -5.8103161
v 0.5198168 -0.1555419 0.0966386
vn 1.3004065 1.5944774 -2.2753425
v 0.7606732 -0.9998552 -0.1627662
vn 2.1856720 -3.0685034 -5.0167150
v 0.5602942 0.7923744 -0.1229462
vn 3.3114052 -1.5520185 -5.0980206
v 0.8426117 0.3966320 0.2160793
vn 1.3045803 -1.5695639 -2.2734637
v 0.7628120 0.9998538 -0.1620192
vn 1.5925736 1.5434328 -2.1558049
v 0.9746486 -0.9999493 -0.0188849
vn 3.8471701 1.2751110 -4.7902775
v 1.0310045 -0.3522473 0.3673401
vn 3.4735289 0.6633165 -5.1813984
v 0.8551657 -0.1698108 0.2739534
vn 3.8007803 -1.2820793 -4.8278584
v 1.0061485 0.3403609 0.3490285
vn 1.7695749 1.5014403 -2.0730243
v 1.1189052 -0.9998391 0.0986424
vn 3.6319046 -2.0818565 -4.6781917
v 1.0036782 0.5750113 0.2635954
vn 4.0004592 -0.5000111 -4.8089719
v 1.0703714 0.1420141 0.4390597
vn 1.6470321 -1.4816732 -2.1472321
v 1.0154315 0.9998426 0.0140256
vn 1.1735774 0.9182113 -1.2883973
v 1.2500000 -1.0000000 0.2197266
vn 1.9131368 1.2631527 -2.0594244
v 1.2499943 -0.7943823 0.3637635
vn 1.9355083 1.0765526 -2.1310229
v 1.2497717 -0.6731992 0.4330388
vn 1.9513313 0.7715475 -2.2098765
v 1.2497545 -0.4877895 0.5144017
vn 2.0301821 0.3802390 -2.1982155
v 1.2498653 -0.2130400 0.5912817
vn 2.0738564 0.0045241 -2.1857457
v 1.2497404 -0.0221913 0.6098449
vn 2.0170023 -0.3354038 -2.2359385
v 1.2496989 0.2141793 0.5906011
vn 2.0038152 -0.7045764 -2.1764822
v 1.2496374 0.4305962 0.5375122
vn 1.9806707 -1.0007988 -2.0991335
v 1.2498769 0.6147035 0.4621616
vn 1.9509201 -1.3087770 -1.9850504
v 1.2498486 0.8355284 0.3366917
vn 1.1679128 -0.8818614 -1.3066545
v 1.2500000 1.0000000 0.2197266
vn 3.6630368 2.8004818 -4.2639546
v 1.1129384 -0.8516499 0.2006054
vn -3.2262115 -2.9158833 -4.5286574
v -0.9125539 0.8341488 0.0533484
vn 2.0900421 -2.3677592 -5.4213977
v 0.5012473 0.5640089 -0.0262652
vn 2.7647498 -1.9338715 -5.2921619
v 0.6714265 0.4761695 0.0879075
vn -0.3532837 -2.8643146 -5.5710640
v -0.0844184 0.6664850 -0.1713302
vn -0.1409834 -0.3008728 -6.2656202
v -0.0236390 0.0599498 -0.0012555
vn -0.2827239 3.5234842 -5.1869059
v -0.0671880 -0.8786805 -0.2998852
vn -3.0483215 1.4260616 -5.2901821
v -0.7395853 -0.3440486 0.1683889
vn -2.6029918 -3.0426731 -4.8339381
v -0.7006361 0.8115142 -0.0653458
vn 4.0059981 -1.7959528 -4.4896569
v 1.1320122 0.5054485 0.3993706
vn 1.7982813 2.6685197 -5.3859577
v 0.4316030 -0.6390535 -0.0868358
vn -3.5962918 1.8412253 -4.8028736
v -0.9648240 -0.4861961 0.2695025
vn -0.6492439 -2.0813696 -5.8778601
v -0.1388737 0.4552857 -0.0739365
vn -3.9475975 1.9980240 -4.4560809
v -1.1247005 -0.5704192 0.3667063
vn 3.5147886 -2.7258055 -4.4323244
v 1.0295336 0.8072589 0.1591453
vn -2.2657762 -2.5043657 -5.2873464
v -0.5530251 0.6109616 -0.0254218
vn 4.1106787 0.8704090 -4.6629438
v 1.1362090 -0.2381491 0.4817897
vn -4.0558853 0.4662248 -4.7670789
v -1.0910993 -0.1243353 0.4589716
vn 4.1069555 -1.1692667 -4.6029396
v 1.1390480 0.3250886 0.4657100
vn 2.9364061 0.1385310 -5.5410161
v 0.6804258 -0.0278691 0.1785745
vn -0.9974800 -0.9480506 -6.1106634
v -0.2128230 0.2017276 0.0018981
vn 2.8731663 -0.9834570 -5.4881206
v 0.6697187 0.2357195 0.1536214
vn -2.6450322 -1.5394242 -5.4722562
v -0.6302897 0.3689013 0.1021972
vn 2.1595683 -1.4860810 -5.6993413
v 0.4876719 0.3396661 0.0468221
vn 2.6949928 -2.5750189 -5.0543261
v 0.6831481 0.6621059 0.0107574
vn 0.4462459 -2.3746848 -5.7855568
v 0.0960550 0.5355827 -0.1095639
vn 2.9763107 -2.9449210 -4.6773229
v 0.8225082 0.8192399 0.0020395
vn -0.9033301 2.5621758 -5.6520371
v -0.2034114 -0.5866302 -0.1178508
vn 3.5085645 -0.4530212 -5.1757164
v 0.8705880 0.1166066 0.2911201
vn -3.1511443 2.3394139 -4.8985591
v -0.8250525 -0.6246989 0.1125252
vn 3.8974586 0.3431004 -4.9073811
v 1.0156258 -0.0914292 0.3977541
vn 3.8395081 -2.4625907 -4.3154230
v 1.1558645 0.7414103 0.3063772
vn -1.8010008 2.7593365 -5.3408265
v -0.4393811 -0.6705304 -0.0997567
vn 1.6489413 0.0133527 -6.0546136
v 0.3501580 -0.0044376 0.0475607
vn -1.6688361 0.9703109 -5.9668360
v -0.3640328 -0.2112596 0.0346909
vn -3.6451678 -1.7297939 -4.8084364
v -0.9805665 0.4633483 0.2913843
vn 3.8150470 2.1300547 -4.5059338
v 1.0906032 -0.6115258 0.3196298
vn 3.2991138 2.4941251 -4.7208567
v 0.8998809 -0.6837482 0.1339429
vn 2.1985879 1.8017459 -5.5879622
v 0.5097772 -0.4165717 0.0343205
vn 2.6642160 2.5532629 -5.0772972
v 0.6682338 -0.6450797 0.0117440
vn -2.4958944 0.5818253 -5.7256503
v -0.5645384 -0.1343102 0.1175221
vn 0.1519862 2.3550601 -5.8118229
v 0.0315765 -0.5219086 -0.1061192
vn 1.4291707 3.3182881 -5.1310272
v 0.3569611 -0.8295838 -0.2192307
vn -3.6361861 2.6139085 -4.3975134
v -1.0647055 -0.7727816 0.2097644
vn -3.1489670 2.9499593 -4.5620518
v -0.8853819 -0.8330339 0.0352435
vn 4.2008796 0.1043800 -4.6615920
v 1.1580321 -0.0361606 0.5228023
vn -3.2486148 -0.7060428 -5.3230081
v -0.7829255 0.1778422 0.2257573
vn 1.3012048 -3.3711605 -5.1293221
v 0.3276606 0.8433591 -0.2365189
vn -3.6982722 -0.0664406 -5.0694761
v -0.9341179 0.0148097 0.3394936
vn -0.9358345 -3.3094845 -5.2488446
v -0.2244916 0.8223451 -0.2445275
vn -1.1042314 3.2986102 -5.2212348
v -0.2710158 -0.8176556 -0.2317302
vn 1.3580663 -2.7572546 -5.4695773
v 0.3180457 0.6519949 -0.1256506
vn -2.5671110 2.9754467 -4.8919406
v -0.6798418 -0.7860317 -0.0610616
vn 3.2001030 -2.3713605 -4.8529873
v 0.8535324 0.6350747 0.1264332
vn 2.9295177 2.0268335 -5.1696825
v 0.7383440 -0.5106643 0.1121617
vn 2.9804556 3.0004442 -4.6421099
v 0.8423630 -0.8394378 0.0024051
vn 2.9344010 1.1933372 -5.4166322
v 0.7056536 -0.3039867 0.1574231
vn 3.4381299 1.6492240 -4.9831610
v 0.8812574 -0.4291861 0.2314401
vn 3.3864434 2.9871068 -4.3661175
v 0.9905012 -0.8818401 0.0799167
# 152 vertices, 0 vertices normals

f 1//1 2//2 13//13
f 15//15 138//138 24//24
f 64//64 69//69 71//71
f 130//130 84//84 94//94
f 84//84 130//130 85//85
f 3//3 4//4 107//107
f 61//61 104//104 60//60
f 4//4 5//5 19//19
f 86//86 110//110 87//87
f 5//5 111//111 19//19
f 5//5 6//6 111//111
f 150//150 70//70 113//113
f 150//150 113//113 77//77
f 77//77 122//122 124//124
f 113//113 70//70 67//67
f 111//111 6//6 16//16
f 7//7 8//8 18//18
f 113//113 67//67 115//115
f 103//103 78//78 80//80
f 40//40 43//43 114//114
f 116//116 109//109 43//43
f 43//43 44//44 106//106
f 9//9 10//10 14//14
f 10//10 21//21 14//14
f 10//10 11//11 20//20
f 82//82 108//108 120//120
f 20//20 23//23 95//95
f 11//11 17//17 20//20
f 11//11 12//12 17//17
f 102//102 95//95 28//28
f 45//45 51//51 59//59
f 72//72 141//141 68//68
f 72//72 68//68 74//74
f 72//72 74//74 120//120
f 49//49 121//121 135//135
f 102//102 28//28 34//34
f 32//32 34//34 42//42
f 122//122 115//115 73//73
f 98//98 106//106 44//44
f 92//92 91//91 125//125
f 32//32 109//109 102//102
f 45//45 143//143 51//51
f 81//81 112//112 89//89
f 54//54 100//100 49//49
f 49//49 135//135 60//60
f 8//8 14//14 18//18
f 98//98 56//56 119//119
f 20//20 17//17 23//23
f 57//57 66//66 127//127
f 109//109 26//26 102//102
f 79//79 75//75 152//152
f 73//73 78//78 122//122
f 8//8 9//9 14//14
f 119//119 106//106 98//98
f 56//56 141//141 145//145
f 120//120 74//74 82//82
f 33//33 36//36 41//41
f 56//56 59//59 141//141
f 29//29 38//38 31//31
f 61//61 53//53 62//62
f 48//48 37//37 114//114
f 124//124 122//122 81//81
f 114//114 43//43 106//106
f 43//43 40//40 116//116
f 102//102 26//26 95//95
f 141//141 63//63 68//68
f 31//31 38//38 144//144
f 52//52 106//106 119//119
f 62//62 53//53 50//50
f 135//135 61//61 60//60
f 61//61 135//135 53//53
f 36//36 134//134 128//128
f 21//21 20//20 95//95
f 103//103 125//125 91//91
f 61//61 62//62 132//132
f 113//113 115//115 122//122
f 127//127 66//66 67//67
f 44//44 109//109 32//32
f 52//52 66//66 57//57
f 48//48 99//99 50//50
f 26//26 109//109 116//116
f 43//43 109//109 44//44
f 72//72 145//145 141//141
f 50//50 99//99 57//57
f 2//2 3//3 137//137
f 47//47 50//50 53//53
f 130//130 86//86 85//85
f 41//41 121//121 126//126
f 137//137 107//107 105//105
f 123//123 105//105 101//101
f 47//47 48//48 50//50
f 99//99 48//48 114//114
f 149//149 75//75 71//71
f 129//129 30//30 27//27
f 129//129 26//26 30//30
f 6//6 7//7 16//16
f 128//128 48//48 47//47
f 100//100 54//54 46//46
f 65//65 96//96 117//117
f 97//97 96//96 118//118
f 90//90 103//103 91//91
f 41//41 126//126 33//33
f 35//35 116//116 40//40
f 107//107 4//4 19//19
f 110//110 139//139 87//87
f 78//78 103//103 112//112
f 52//52 57//57 99//99
f 99//99 114//114 52//52
f 33//33 101//101 36//36
f 16//16 7//7 18//18
f 106//106 52//52 114//114
f 37//37 48//48 128//128
f 41//41 47//47 121//121
f 143//143 32//32 42//42
f 73//73 147//147 80//80
f 37//37 40//40 114//114
f 39//39 100//100 46//46
f 117//117 96//96 97//97
f 66//66 117//117 67//67
f 132//132 62//62 70//70
f 18//18 27//27 16//16
f 14//14 129//129 18//18
f 73//73 97//97 147//147
f 143//143 44//44 32//32
f 144//144 49//49 100//100
f 144//144 38//38 126//126
f 104//104 61//61 132//132
f 76//76 124//124 110//110
f 111//111 16//16 142//142
f 44//44 143//143 98//98
f 118//118 72//72 120//120
f 129//129 14//14 21//21
f 118//118 96//96 72//72
f 32//32 102//102 34//34
f 73//73 115//115 97//97
f 27//27 18//18 129//129
f 41//41 36//36 128//128
f 119//119 56//56 145//145
f 143//143 45//45 98//98
f 22//22 111//111 142//142
f 81//81 89//89 139//139
f 67//67 117//117 115//115
f 122//122 78//78 81//81
f 112//112 81//81 78//78
f 121//121 47//47 135//135
f 117//117 97//97 115//115
f 122//122 77//77 113//113
f 62//62 127//127 70//70
f 124//124 139//139 110//110
f 19//19 111//111 22//22
f 73//73 80//80 78//78
f 112//112 90//90 89//89
f 112//112 103//103 90//90
f 124//124 81//81 139//139
f 127//127 67//67 70//70
f 130//130 151//151 76//76
f 139//139 88//88 87//87
f 141//141 59//59 63//63
f 21//21 10//10 20//20
f 59//59 51//51 55//55
f 62//62 50//50 57//57
f 66//66 65//65 117//117
f 62//62 57//57 127//127
f 129//129 21//21 26//26
f 69//69 64//64 136//136
f 35//35 40//40 37//37
f 80//80 125//125 103//103
f 125//125 80//80 108//108
f 147//147 97//97 118//118
f 95//95 23//23 28//28
f 95//95 26//26 21//21
f 64//64 58//58 136//136
f 94//94 131//131 130//130
f 149//149 71//71 69//69
f 54//54 49//49 60//60
f 149//149 133//133 131//131
f 136//136 54//54 60//60
f 101//101 22//22 25//25
f 46//46 54//54 58//58
f 19//19 22//22 105//105
f 107//107 19//19 105//105
f 133//133 132//132 148//148
f 133//133 104//104 132//132
f 54//54 136//136 58//58
f 134//134 35//35 37//37
f 53//53 135//135 47//47
f 137//137 3//3 107//107
f 36//36 101//101 134//134
f 140//140 25//25 142//142
f 140//140 27//27 30//30
f 59//59 55//55 63//63
f 69//69 136//136 104//104
f 101//101 25//25 134//134
f 136//136 60//60 104//104
f 101//101 105//105 22//22
f 56//56 98//98 45//45
f 56//56 45//45 59//59
f 41//41 128//128 47//47
f 137//137 105//105 123//123
f 123//123 101//101 33//33
f 13//13 137//137 15//15
f 120//120 147//147 118//118
f 2//2 137//137 13//13
f 16//16 27//27 142//142
f 65//65 145//145 96//96
f 119//119 145//145 65//65
f 33//33 146//146 123//123
f 134//134 37//37 128//128
f 140//140 142//142 27//27
f 137//137 138//138 15//15
f 29//29 146//146 38//38
f 126//126 38//38 146//146
f 52//52 119//119 65//65
f 52//52 65//65 66//66
f 139//139 89//89 88//88
f 140//140 30//30 116//116
f 140//140 116//116 35//35
f 76//76 77//77 124//124
f 25//25 140//140 35//35
f 25//25 35//35 134//134
f 22//22 142//142 25//25
f 108//108 80//80 147//147
f 108//108 147//147 120//120
f 143//143 42//42 51//51
f 144//144 100//100 39//39
f 24//24 138//138 146//146
f 49//49 144//144 121//121
f 144//144 126//126 121//121
f 123//123 146//146 138//138
f 31//31 144//144 39//39
f 96//96 145//145 72//72
f 24//24 146//146 29//29
f 137//137 123//123 138//138
f 126//126 146//146 33//33
f 133//133 149//149 69//69
f 133//133 69//69 104//104
f 26//26 116//116 30//30
f 151//151 148//148 150//150
f 131//131 148//148 151//151
f 148//148 132//132 150//150
f 79//79 94//94 83//83
f 108//108 82//82 93//93
f 125//125 108//108 93//93
f 151//151 130//130 131//131
f 133//133 148//148 131//131
f 92//92 125//125 93//93
f 149//149 131//131 152//152
f 132//132 70//70 150//150
f 76//76 151//151 77//77
f 76//76 110//110 86//86
f 76//76 86//86 130//130
f 94//94 84//84 83//83
f 151//151 150//150 77//77
f 152//152 75//75 149//149
f 79//79 152//152 94//94
f 152//152 131//131 94//94
# 256 faces, 0 coords texture

# End of File
