####
#
# OBJ File Generated by Meshlab
#
####
# Object hemisphere_iso.obj
#
# Vertices: 87
# Faces: 151
#
####
v -49.4760094 0.0020535 -7.2002401
v -13.2117424 14.3984556 -46.0180016
v 2.0580196 13.1355658 -48.1902199
v 16.7793865 12.5977125 -45.3774452
v 44.6005898 14.8693600 -17.0043049
v 48.7121544 10.8726130 -2.9549184
v -35.1607323 10.2109671 -34.0430794
v -40.8977890 16.1463661 -23.7939243
v -30.5841446 26.2539730 -29.5781441
v -16.5805149 26.9858932 -38.6784630
v 8.2806807 34.5866508 -35.1314468
v 34.1835709 22.3871803 -28.8018436
v -6.3994741 34.7624702 -35.3495293
v -17.0332375 37.6719322 -28.1088734
v -46.7833099 13.4461765 -11.4190149
v 24.0032558 34.9750175 -26.4538307
v 36.2056198 31.0235043 -15.0325584
v 43.9246101 23.8297844 -1.4768620
v -39.4397697 27.2357864 -14.2161283
v -2.7083621 42.8125381 -25.6727886
v -13.2577047 45.7676086 -15.1293821
v -27.5491047 38.5216026 -16.0122795
v 24.2384968 42.0592957 -11.9590559
v 1.1497539 48.4330215 -12.3274317
v 13.0213995 47.4744987 -8.6979580
v -34.2278786 36.4189072 -1.1892757
v -21.5635700 45.0228958 -2.6499953
v -43.9579506 23.7814980 1.2262434
v 19.9341698 45.7930260 2.1467752
v -43.9078560 17.3901405 16.4047604
v 11.1285820 46.3356972 15.1053286
v 33.5204811 37.0855560 0.7163488
v -15.1078930 46.9962120 7.8874321
v 40.4385033 14.4074364 25.6290226
v 26.3379288 39.3695145 15.9890118
v -0.4153516 42.8425331 25.7654858
v -48.9589310 9.5288305 3.4213693
v 15.2096825 37.6768417 29.1277542
v 1.7767869 32.1959343 38.2036057
v 39.1065216 27.6100159 14.4157104
v -12.4379511 35.8222694 32.5831528
v 29.8810120 27.7712593 28.8979797
v 46.7430038 13.4979506 11.5060196
v 16.9607430 24.2144184 40.3137703
v -10.2169561 25.8275871 41.5669594
v 0.7659148 16.1431923 47.3040314
v -29.9827061 12.9726925 37.8407860
v 17.3770409 9.3487015 45.9374313
v 30.4395542 13.3138132 37.3616180
v -16.5128574 14.1304655 45.0199280
v -49.9702568 0.0000000 1.6358569
v -46.2651443 0.0007268 18.9569111
v -35.6462440 0.0006266 35.0580139
v -22.8430271 0.0017475 44.4743843
v -9.4543657 0.0024796 49.0955429
v 5.0695448 0.0010080 49.7396240
v 18.5968475 0.0006692 46.4097061
v 27.6958008 0.0015342 41.6274338
v 40.2402496 0.0004513 29.6747627
v 43.7693100 0.0000000 24.1685143
v 49.6732826 0.0012020 5.6882987
v 48.3111610 0.0000176 -12.8829336
v 44.9139366 0.0010224 -21.9678593
v 34.9654922 0.0005963 -35.7367630
v 24.5265083 0.0030101 -43.5677528
v 9.2169285 0.0019641 -49.1400871
v -7.6979151 0.0045876 -49.4028625
v -25.0023842 0.0072131 -43.2997322
v -36.4910278 0.0007451 -34.1775780
v -43.5387459 0.0022967 -24.5780983
v 9.4791641 22.8671970 -43.4349098
v 11.8682318 43.7786942 -21.0198174
v -25.6379986 41.5123138 10.8921518
v -34.5876999 23.3307648 27.5427570
v -25.5362091 35.1724701 24.6978226
v 29.6850471 12.1133204 -38.3591080
v -2.8589091 25.5347023 -42.8873520
v 21.3866138 24.4115238 -38.0265923
v -8.0650597 49.3082275 -1.6145759
v 5.8160648 49.6376228 1.1032965
v -36.4940071 31.1734772 13.9940577
v 39.0845757 10.2580700 -29.4376965
v -14.4099970 43.5966225 19.7757759
v -39.6565857 11.2082548 28.3098106
v -3.6365073 48.4434814 11.8035736
v -22.5545616 25.6825657 36.4813957
v -25.1786995 16.2418118 -40.0188980
# 87 vertices, 0 vertices normals

f 10 77 2
f 20 13 14
f 22 14 9
f 21 14 22
f 23 16 72
f 43 6 18
f 27 22 26
f 35 29 31
f 30 28 37
f 81 28 30
f 83 85 33
f 36 31 85
f 39 38 36
f 48 44 46
f 37 1 51
f 68 69 7
f 67 68 2
f 8 70 15
f 66 67 3
f 65 66 4
f 63 64 82
f 5 63 82
f 76 65 4
f 6 62 5
f 37 15 1
f 46 45 50
f 57 48 56
f 62 6 61
f 6 43 61
f 3 2 77
f 10 87 9
f 7 8 9
f 11 78 71
f 16 78 11
f 10 9 14
f 11 71 77
f 9 8 19
f 13 10 14
f 22 9 19
f 16 11 72
f 17 12 16
f 5 12 17
f 20 14 21
f 5 17 18
f 23 72 25
f 17 16 23
f 28 19 15
f 6 5 18
f 28 15 37
f 26 22 19
f 24 20 21
f 18 17 32
f 21 22 27
f 32 17 23
f 80 25 24
f 29 25 80
f 80 85 31
f 29 80 31
f 27 26 73
f 32 23 29
f 26 19 28
f 81 26 28
f 32 29 35
f 33 27 73
f 85 79 33
f 38 31 36
f 35 31 38
f 40 32 35
f 43 40 34
f 43 18 40
f 75 73 81
f 39 36 41
f 42 35 38
f 30 37 52
f 45 39 41
f 42 38 44
f 44 38 39
f 39 45 46
f 60 34 59
f 44 39 46
f 42 44 49
f 34 42 49
f 59 34 49
f 49 44 48
f 84 30 52
f 47 74 84
f 45 86 50
f 57 58 48
f 54 50 47
f 56 48 46
f 69 70 7
f 70 1 15
f 68 7 87
f 67 2 3
f 66 3 4
f 62 63 5
f 37 51 52
f 84 52 53
f 47 53 54
f 50 54 55
f 46 55 56
f 49 48 58
f 49 58 59
f 43 34 60
f 43 60 61
f 3 71 4
f 25 72 24
f 29 23 25
f 81 73 26
f 84 74 30
f 45 41 86
f 74 47 86
f 4 78 76
f 72 20 24
f 18 32 40
f 33 73 83
f 40 35 42
f 74 81 30
f 41 75 86
f 34 40 42
f 13 77 10
f 71 3 77
f 76 78 12
f 21 79 24
f 79 21 27
f 80 79 85
f 79 80 24
f 75 81 74
f 50 86 47
f 15 19 8
f 71 78 4
f 11 77 13
f 11 13 20
f 11 20 72
f 33 79 27
f 82 64 76
f 12 82 76
f 36 83 41
f 41 83 75
f 47 84 53
f 82 12 5
f 74 86 75
f 65 76 64
f 83 73 75
f 12 78 16
f 36 85 83
f 46 50 55
f 7 70 8
f 10 2 87
f 87 7 9
f 68 87 2
# 151 faces, 0 coords texture

# End of File
